<svg width="250" height="249" viewBox="0 0 250 249" fill="none" xmlns="http://www.w3.org/2000/svg">
<path d="M0 146.893L250 0V11.2994L0 158.192V146.893Z" fill="url(#paint0_linear_1572_3315)"/>
<path d="M0 169.492L250 22.5989V33.8983L0 180.791V169.492Z" fill="url(#paint1_linear_1572_3315)"/>
<path d="M0 192.091L250 45.1979V56.4973L0 203.39V192.091Z" fill="url(#paint2_linear_1572_3315)"/>
<path d="M0 214.689L250 67.7966V79.0961L0 225.989V214.689Z" fill="url(#paint3_linear_1572_3315)"/>
<path d="M0 237.288L250 90.3955V101.695L0 248.588V237.288Z" fill="url(#paint4_linear_1572_3315)"/>
<defs>
<linearGradient id="paint0_linear_1572_3315" x1="250" y1="158.192" x2="4.31036" y2="158.192" gradientUnits="userSpaceOnUse">
<stop stop-color="#0C7B73"/>
<stop offset="1" stop-color="#00B0B0"/>
</linearGradient>
<linearGradient id="paint1_linear_1572_3315" x1="250" y1="180.791" x2="4.31036" y2="180.791" gradientUnits="userSpaceOnUse">
<stop stop-color="#0C7B73"/>
<stop offset="1" stop-color="#00B0B0"/>
</linearGradient>
<linearGradient id="paint2_linear_1572_3315" x1="250" y1="203.39" x2="4.31036" y2="203.39" gradientUnits="userSpaceOnUse">
<stop stop-color="#0C7B73"/>
<stop offset="1" stop-color="#00B0B0"/>
</linearGradient>
<linearGradient id="paint3_linear_1572_3315" x1="250" y1="225.989" x2="4.31036" y2="225.989" gradientUnits="userSpaceOnUse">
<stop stop-color="#0C7B73"/>
<stop offset="1" stop-color="#00B0B0"/>
</linearGradient>
<linearGradient id="paint4_linear_1572_3315" x1="250" y1="248.588" x2="4.31036" y2="248.588" gradientUnits="userSpaceOnUse">
<stop stop-color="#0C7B73"/>
<stop offset="1" stop-color="#00B0B0"/>
</linearGradient>
</defs>
</svg>
