<svg width="460" height="70" viewBox="0 0 460 70" fill="none" xmlns="http://www.w3.org/2000/svg">
<g filter="url(#filter0_d_664_583)">
<path d="M5 17.0783L24.8568 3H455V47.9337L432.881 63H5V17.0783Z" stroke="white" stroke-width="6" shape-rendering="crispEdges"/>
</g>
<g filter="url(#filter1_d_664_583)">
<path d="M32.465 40.164C33.0997 39.66 33.389 39.4267 33.333 39.464C35.1624 37.952 36.5997 36.7107 37.645 35.74C38.709 34.7693 39.605 33.752 40.333 32.688C41.061 31.624 41.425 30.588 41.425 29.58C41.425 28.8147 41.2477 28.2173 40.893 27.788C40.5384 27.3587 40.0064 27.144 39.297 27.144C38.5877 27.144 38.0277 27.4147 37.617 27.956C37.225 28.4787 37.029 29.2253 37.029 30.196H32.409C32.4464 28.6093 32.7824 27.284 33.417 26.22C34.0704 25.156 34.9197 24.372 35.965 23.868C37.029 23.364 38.205 23.112 39.493 23.112C41.7144 23.112 43.385 23.6813 44.505 24.82C45.6437 25.9587 46.213 27.4427 46.213 29.272C46.213 31.2693 45.5317 33.1267 44.169 34.844C42.8064 36.5427 41.0704 38.204 38.961 39.828H46.521V43.72H32.465V40.164ZM48.6291 33.5C48.6291 30.2893 49.2451 27.76 50.4771 25.912C51.7278 24.064 53.7345 23.14 56.4971 23.14C59.2598 23.14 61.2571 24.064 62.4891 25.912C63.7398 27.76 64.3651 30.2893 64.3651 33.5C64.3651 36.748 63.7398 39.296 62.4891 41.144C61.2571 42.992 59.2598 43.916 56.4971 43.916C53.7345 43.916 51.7278 42.992 50.4771 41.144C49.2451 39.296 48.6291 36.748 48.6291 33.5ZM59.6611 33.5C59.6611 31.6147 59.4558 30.168 59.0451 29.16C58.6345 28.1333 57.7851 27.62 56.4971 27.62C55.2091 27.62 54.3598 28.1333 53.9491 29.16C53.5385 30.168 53.3331 31.6147 53.3331 33.5C53.3331 34.7693 53.4078 35.824 53.5571 36.664C53.7065 37.4853 54.0051 38.1573 54.4531 38.68C54.9198 39.184 55.6011 39.436 56.4971 39.436C57.3931 39.436 58.0651 39.184 58.5131 38.68C58.9798 38.1573 59.2878 37.4853 59.4371 36.664C59.5865 35.824 59.6611 34.7693 59.6611 33.5ZM66.7268 40.164C67.3614 39.66 67.6508 39.4267 67.5948 39.464C69.4241 37.952 70.8614 36.7107 71.9068 35.74C72.9708 34.7693 73.8668 33.752 74.5948 32.688C75.3228 31.624 75.6868 30.588 75.6868 29.58C75.6868 28.8147 75.5094 28.2173 75.1548 27.788C74.8001 27.3587 74.2681 27.144 73.5588 27.144C72.8494 27.144 72.2894 27.4147 71.8788 27.956C71.4868 28.4787 71.2908 29.2253 71.2908 30.196H66.6708C66.7081 28.6093 67.0441 27.284 67.6788 26.22C68.3321 25.156 69.1814 24.372 70.2268 23.868C71.2908 23.364 72.4668 23.112 73.7548 23.112C75.9761 23.112 77.6468 23.6813 78.7668 24.82C79.9054 25.9587 80.4748 27.4427 80.4748 29.272C80.4748 31.2693 79.7934 33.1267 78.4308 34.844C77.0681 36.5427 75.3321 38.204 73.2228 39.828H80.7828V43.72H66.7268V40.164ZM82.7229 40.164C83.3575 39.66 83.6469 39.4267 83.5909 39.464C85.4202 37.952 86.8575 36.7107 87.9029 35.74C88.9669 34.7693 89.8629 33.752 90.5909 32.688C91.3189 31.624 91.6829 30.588 91.6829 29.58C91.6829 28.8147 91.5055 28.2173 91.1509 27.788C90.7962 27.3587 90.2642 27.144 89.5549 27.144C88.8455 27.144 88.2855 27.4147 87.8749 27.956C87.4829 28.4787 87.2869 29.2253 87.2869 30.196H82.6669C82.7042 28.6093 83.0402 27.284 83.6749 26.22C84.3282 25.156 85.1775 24.372 86.2229 23.868C87.2869 23.364 88.4629 23.112 89.7509 23.112C91.9722 23.112 93.6429 23.6813 94.7629 24.82C95.9015 25.9587 96.4709 27.4427 96.4709 29.272C96.4709 31.2693 95.7895 33.1267 94.4269 34.844C93.0642 36.5427 91.3282 38.204 89.2189 39.828H96.7789V43.72H82.7229V40.164Z" fill="white"/>
</g>
<line x1="121" y1="3" x2="121" y2="63" stroke="white" stroke-width="6"/>
<g filter="url(#filter2_d_664_583)">
<path d="M143.208 40.848V42.6H156.696V40.848H143.208ZM142.296 33.816V43.92H144.12V35.52H155.784V43.848H157.68V33.816H142.296ZM152.376 25.512C154.728 27.648 157.464 30.672 158.64 32.712L160.2 31.584C158.952 29.592 156.12 26.616 153.768 24.576L152.376 25.512ZM141 31.776C141 31.416 142.2 30.864 142.2 30.864V30.816C144.744 28.704 147.432 25.728 149.736 22.536L147.936 21.768C146.064 24.744 143.256 27.792 142.368 28.584C141.576 29.376 140.952 29.904 140.4 30C140.616 30.48 140.928 31.392 141 31.776ZM141 31.776C141.96 31.44 143.4 31.392 157.872 30.576C157.776 30.192 157.704 29.472 157.68 28.968L142.32 29.688L140.976 30.36L141 31.776ZM173.952 26.208V27.216H178.416V26.208H173.952ZM173.952 27.984V28.992H178.416V27.984H173.952ZM170.328 39.096V40.32H182.712V39.096H170.328ZM173.232 24.264V25.368H179.04V24.264H173.232ZM175.08 30.864H177.216V32.448H175.08V30.864ZM173.904 29.856V33.456H178.44V29.856H173.904ZM170.808 36.72V37.896H182.832V34.296H169.392V35.472H181.152V36.72H170.808ZM170.28 36.72C169.992 37.92 169.608 39.312 169.224 40.32H170.928C171.264 39.36 171.648 37.992 171.96 36.72H170.28ZM182.184 39.096V39.312C181.776 41.16 181.392 42.072 180.912 42.408C180.672 42.576 180.408 42.6 179.88 42.6C179.28 42.6 177.696 42.576 176.16 42.432C176.424 42.816 176.64 43.416 176.664 43.824C178.2 43.92 179.664 43.92 180.36 43.92C181.176 43.896 181.68 43.824 182.184 43.464C182.832 42.96 183.312 41.904 183.768 39.84C183.864 39.6 183.888 39.096 183.888 39.096H182.184ZM163.392 23.328C164.616 24.096 166.056 25.224 166.728 26.064L167.856 24.72C167.136 23.904 165.648 22.848 164.448 22.152L163.392 23.328ZM162.864 29.784C164.088 30.456 165.624 31.536 166.344 32.304L167.4 30.936C166.656 30.168 165.12 29.16 163.872 28.536L162.864 29.784ZM163.32 42.696L164.928 43.632C165.888 41.424 166.968 38.448 167.76 35.952L166.344 35.016C165.456 37.704 164.208 40.824 163.32 42.696ZM171.528 27.312C172.008 28.104 172.464 29.136 172.656 29.808L173.592 29.376C173.424 28.752 172.92 27.768 172.44 27.024L171.528 27.312ZM171.72 30.384C172.104 31.248 172.464 32.352 172.56 33.072L173.472 32.688C173.4 31.992 173.016 30.912 172.608 30.072L171.72 30.384ZM168.36 30.528C168.192 31.584 167.928 32.664 167.448 33.504C167.712 33.624 168.168 33.936 168.36 34.104C168.816 33.24 169.176 31.944 169.416 30.768L168.36 30.528ZM168.144 26.496C168.144 26.28 168.912 25.992 168.912 25.992V25.968C169.704 25.056 170.544 23.712 171.12 22.392L169.968 21.984C169.584 23.256 168.72 24.648 168.456 24.96C168.24 25.32 168.024 25.536 167.736 25.584C167.88 25.824 168.096 26.304 168.144 26.496ZM168.144 26.496C168.456 26.4 168.984 26.28 171.48 26.088C171.48 25.848 171.528 25.416 171.6 25.104L168.864 25.272L168.12 25.632L168.144 26.496ZM168.168 29.76C168.168 29.544 169.032 29.232 169.032 29.232V29.208C170.4 27.984 171.768 26.232 172.848 24.528L171.744 24.024C170.856 25.752 169.368 27.552 168.888 28.008C168.48 28.464 168.144 28.776 167.784 28.848C167.928 29.088 168.12 29.568 168.168 29.76ZM168.168 29.76C168.528 29.616 169.128 29.472 172.8 28.992C172.704 28.752 172.632 28.32 172.584 28.056L168.816 28.488L168.12 28.872L168.168 29.76ZM169.92 30.696C170.232 31.656 170.424 32.904 170.448 33.672L171.432 33.336C171.408 32.616 171.192 31.416 170.88 30.48L169.92 30.696ZM174.84 22.344C175.224 22.944 175.656 23.76 175.8 24.312L177.12 23.928C176.928 23.424 176.472 22.608 176.088 22.032L174.84 22.344ZM182.736 27.264C183.216 28.104 183.744 29.184 183.96 29.88L184.872 29.472C184.68 28.824 184.128 27.744 183.6 26.952L182.736 27.264ZM182.904 30.312C183.36 31.32 183.792 32.64 183.912 33.48L184.848 33.048C184.704 32.256 184.272 30.984 183.768 30L182.904 30.312ZM179.544 30.408C179.376 31.464 179.112 32.568 178.632 33.384C178.92 33.528 179.376 33.816 179.568 34.008C180 33.12 180.384 31.824 180.624 30.648L179.544 30.408ZM179.352 26.448C179.352 26.232 180.12 25.92 180.12 25.92V25.896C180.912 24.984 181.752 23.64 182.304 22.368L181.176 21.936C180.768 23.208 179.928 24.576 179.664 24.912C179.424 25.248 179.232 25.488 178.944 25.512C179.088 25.752 179.28 26.256 179.352 26.448ZM179.352 26.448C179.64 26.328 180.192 26.232 182.688 26.04C182.664 25.8 182.712 25.344 182.784 25.032L180.048 25.2L179.328 25.584L179.352 26.448ZM179.376 29.712C179.376 29.496 180.216 29.184 180.216 29.184V29.136C181.608 27.912 182.952 26.184 184.032 24.456L182.928 23.976C182.04 25.704 180.576 27.504 180.096 27.936C179.688 28.416 179.352 28.704 178.968 28.776C179.112 29.016 179.328 29.496 179.376 29.712ZM179.376 29.712C179.736 29.568 180.336 29.424 184.008 28.92C183.912 28.704 183.816 28.272 183.792 27.984L180 28.44L179.328 28.8L179.376 29.712ZM181.08 30.672C181.416 31.704 181.632 33.048 181.656 33.888L182.64 33.552C182.64 32.76 182.376 31.464 182.016 30.432L181.08 30.672ZM189.864 30.12V31.632H208.656V30.12H189.864ZM189.072 24.072V25.536H207.912V24.072H189.072ZM193.44 34.128V35.592H207.312V34.128H193.44ZM193.392 37.728V39.192H206.76V37.728H193.392ZM191.112 41.64V43.152H209.04V41.64H191.112ZM199.032 32.064V42.648H200.784V32.064H199.032ZM188.928 30.12V35.184C188.928 37.608 188.712 40.752 186.744 43.008C187.128 43.224 187.848 43.824 188.112 44.16C190.296 41.688 190.704 37.944 190.704 35.208V30.12H188.928ZM193.944 32.04C193.224 33.96 192.072 35.808 190.728 37.08C191.04 37.416 191.544 38.256 191.688 38.592C193.248 37.104 194.64 34.8 195.48 32.496L193.944 32.04ZM191.88 26.424C196.32 27.408 201.912 29.136 204.984 30.312L206.136 29.232C202.968 28.104 197.376 26.448 193.08 25.44L191.88 26.424ZM203.928 25.344C201.048 26.952 195.408 28.44 191.112 29.232C191.4 29.496 191.88 30 192.12 30.312C196.368 29.448 201.816 27.936 205.2 26.136L203.928 25.344ZM196.68 22.272C197.424 23.16 198.24 24.384 198.624 25.176L199.968 24.432C199.584 23.64 198.72 22.464 197.952 21.624L196.68 22.272ZM211.512 36.672V38.184H232.536V36.672H211.512ZM211.608 26.136V27.624H232.44V26.136H211.608ZM212.568 30.288V31.752H231.576V30.288H212.568ZM213.792 33.504V34.896H230.4V33.504H213.792ZM221.064 30.936V43.944H222.84V30.936H221.064ZM218.88 21.84V26.856H220.56V21.84H218.88ZM223.416 21.84V26.784H225.144V21.84H223.416ZM228.984 22.128C228.576 23.232 227.784 24.816 227.136 25.824L228.6 26.304C229.272 25.368 230.112 23.952 230.832 22.632L228.984 22.128ZM225.888 27.552C225.552 28.248 224.904 29.328 224.424 30.048L225.912 30.504C226.464 29.856 227.136 28.968 227.736 28.056L225.888 27.552ZM213.552 22.632C214.344 23.76 215.208 25.296 215.544 26.256L217.152 25.656C216.816 24.672 215.928 23.16 215.088 22.08L213.552 22.632ZM216.552 27.936C217.104 28.728 217.656 29.808 217.848 30.48L219.576 30.024C219.336 29.328 218.784 28.296 218.232 27.528L216.552 27.936ZM218.544 39.408C216.96 40.44 213.888 41.4 211.392 41.808C211.752 42.144 212.256 42.72 212.496 43.152C214.992 42.6 218.16 41.352 219.888 40.056L218.544 39.408ZM224.4 40.272C226.704 41.088 229.776 42.336 231.36 43.104L232.488 41.976C230.856 41.208 227.76 40.056 225.504 39.288L224.4 40.272ZM248.424 41.112C251.112 42 253.848 43.104 255.456 43.92L257.04 42.72C255.24 41.904 252.312 40.824 249.648 39.96L248.424 41.112ZM236.424 23.664V25.104H255.744V23.664H236.424ZM235.224 29.328V30.912H256.8V29.328H235.224ZM245.016 32.64V39.552H246.816V32.64H245.016ZM239.736 36.6H252.432V38.568H239.736V36.6ZM239.736 33.384H252.432V35.328H239.736V33.384ZM238.008 32.064V39.888H254.232V32.064H238.008ZM242.04 39.96C240.48 40.968 237.408 42.096 234.936 42.72C235.344 43.056 235.92 43.632 236.208 43.968C238.632 43.344 241.68 42.168 243.648 40.992L242.04 39.96ZM240.912 21.816V28.128H251.232V21.816H249.408V26.808H242.64V21.816H240.912ZM263.784 29.04V30.72H276.192V29.04H263.784ZM260.712 33.984V35.64H279.312V33.984H260.712ZM259.632 41.568V43.224H280.392V41.568H259.632ZM268.968 29.784V42.408H270.888V29.784H268.968ZM262.752 36.792C263.664 38.16 264.6 40.032 264.96 41.208L266.544 40.536C266.16 39.36 265.152 37.512 264.216 36.192L262.752 36.792ZM275.568 36.168C274.968 37.536 273.888 39.456 273.048 40.632L274.416 41.232C275.304 40.104 276.384 38.376 277.272 36.84L275.568 36.168ZM270.696 22.872L269.184 23.616C271.752 26.664 276.216 29.64 280.056 31.056C280.344 30.576 280.896 29.88 281.328 29.472C277.464 28.272 272.976 25.56 270.696 22.872ZM269.976 21.624C267.672 25.2 263.256 28.032 258.72 29.496C259.176 29.928 259.68 30.624 259.944 31.128C264.648 29.424 269.04 26.352 271.632 22.392L269.976 21.624ZM283.32 30.816V32.664H304.848V30.816H283.32ZM293.064 21.864V43.92H294.984V21.864H293.064ZM312.648 21.768C311.472 25.008 309.48 28.128 307.2 30.12C307.656 30.36 308.4 30.96 308.76 31.272C310.992 29.112 313.128 25.776 314.448 22.224L312.648 21.768ZM312.264 24.744L311.4 26.496H327.744V24.744H312.264ZM311.088 30.192V37.56H312.888V31.872H327.216V30.192H311.088ZM307.128 36.648V38.4H328.872V36.648H307.128ZM318.288 25.656V43.944H320.136V25.656H318.288ZM336.864 37.176C335.616 38.88 333.6 40.656 331.704 41.784C332.16 42.048 332.928 42.648 333.288 42.96C335.112 41.712 337.224 39.744 338.664 37.824L336.864 37.176ZM345.288 37.896C347.208 39.36 349.584 41.472 350.712 42.768L352.248 41.712C351.024 40.392 348.624 38.376 346.704 36.96L345.288 37.896ZM341.304 34.992V41.712C341.304 42 341.208 42.072 340.824 42.096C340.416 42.144 339.12 42.144 337.656 42.072C337.944 42.576 338.256 43.344 338.352 43.872C340.104 43.872 341.328 43.848 342.12 43.56C342.912 43.272 343.128 42.768 343.128 41.736V34.992H341.304ZM347.112 21.864C343.656 23.472 337.488 24.984 332.04 25.992C332.256 26.376 332.52 27.024 332.592 27.48C338.112 26.496 344.4 25.08 348.432 23.28L347.112 21.864ZM333.096 36.888C333.096 36.552 334.392 36.144 334.392 36.144V36.096C338.856 34.368 343.536 31.992 347.976 28.872L346.584 27.696C342.624 30.672 337.464 33.312 335.856 34.008C334.392 34.68 333.312 35.064 332.544 35.16C332.736 35.64 333.024 36.528 333.096 36.888ZM333.096 36.888C334.008 36.552 335.376 36.432 349.824 35.376C349.824 34.992 349.824 34.296 349.872 33.816L334.296 34.872L333.048 35.52L333.096 36.888ZM334.392 31.848C334.392 31.512 335.616 31.032 335.616 31.032V30.984C338.064 29.952 340.632 28.392 343.032 26.544L341.424 25.536C339.408 27.336 336.672 28.968 335.808 29.4C335.016 29.808 334.392 30.072 333.864 30.12C334.056 30.6 334.32 31.488 334.392 31.848ZM334.392 31.848C335.016 31.632 335.976 31.536 344.208 31.032C344.232 30.672 344.328 30 344.424 29.544L335.424 30L334.368 30.552L334.392 31.848ZM345.912 31.56C347.688 33.24 349.776 35.592 350.784 37.056L352.32 36.12C351.288 34.68 349.224 32.472 347.4 30.816L345.912 31.56ZM368.304 24.6V37.728H370.056V24.6H368.304ZM374.136 22.296V41.592C374.136 42.024 373.968 42.168 373.512 42.192C373.08 42.192 371.592 42.216 369.96 42.168C370.224 42.672 370.488 43.464 370.608 43.944C372.792 43.968 374.088 43.92 374.88 43.608C375.6 43.32 375.936 42.792 375.936 41.568V22.296H374.136ZM358.92 28.32V30H365.448V28.32H358.92ZM355.416 23.088V24.768H367.368V23.088H355.416ZM357.216 33.384C358.992 34.464 361.296 36.024 362.424 37.032L363.336 35.52C362.184 34.56 359.856 33.072 358.056 32.064L357.216 33.384ZM364.776 28.32V28.728C363.672 35.784 360.384 40.32 356.016 42.648C356.424 42.936 357.096 43.584 357.36 43.992C361.8 41.448 365.28 36.504 366.6 28.656L365.472 28.248L365.136 28.32H364.776ZM359.76 23.88C359.016 27.6 357.312 32.04 354.528 34.68C354.888 34.992 355.464 35.544 355.776 35.88C358.776 33.024 360.552 28.368 361.584 24.216L359.76 23.88ZM388.296 36.912V38.448H399.096V36.912H388.296ZM389.4 28.488V30.072H397.608V28.488H389.4ZM387.432 32.16V44.016H388.968V33.696H398.976V32.16H387.432ZM391.104 32.856V43.416H392.424V32.856H391.104ZM394.608 32.856V43.416H395.928V32.856H394.608ZM398.184 32.16V42.048C398.184 42.24 398.136 42.312 397.968 42.312C397.776 42.312 397.248 42.312 396.624 42.288C396.816 42.744 396.984 43.392 397.056 43.824C397.992 43.824 398.664 43.8 399.144 43.536C399.6 43.272 399.696 42.816 399.696 42.048V32.16H398.184ZM393.408 21.744C391.848 24.672 388.608 27.72 385.656 29.16C386.064 29.592 386.52 30.336 386.76 30.84C389.784 29.112 393.072 25.824 394.824 22.68L393.408 21.744ZM394.128 23.016L392.688 23.568C394.248 26.448 397.128 29.232 399.96 30.504C400.248 30 400.824 29.256 401.256 28.872C398.448 27.84 395.568 25.392 394.128 23.016ZM379.8 29.112V30.552H385.656V29.112H379.8ZM379.8 32.256V33.696H385.656V32.256H379.8ZM378.96 25.92V27.432H386.304V25.92H378.96ZM380.448 35.472V36.984H384.312V40.968H380.448V42.48H385.824V35.472H380.448ZM379.68 35.472V43.608H381.192V35.472H379.68ZM381 22.464C381.672 23.448 382.44 24.816 382.8 25.704L384.264 24.84C383.904 24 383.112 22.728 382.416 21.744L381 22.464ZM403.248 27.72V29.424H409.752V27.72H403.248ZM405.936 22.128V38.208H407.64V22.128H405.936ZM402.84 38.904L403.44 40.728C405.456 39.96 407.976 38.928 410.4 37.944L410.064 36.312C407.4 37.296 404.688 38.328 402.84 38.904ZM409.344 24V25.368H424.68V24H409.344ZM408.72 41.976V43.368H424.896V41.976H408.72ZM415.008 29.544H418.92V30.72H415.008V29.544ZM413.712 28.584V31.704H420.24V28.584H413.712ZM412.008 27.576H422.016V32.664H412.008V27.576ZM410.496 26.424V33.84H423.6V26.424H410.496ZM412.92 38.376H420.936V39.744H412.92V38.376ZM412.92 35.976H420.936V37.32H412.92V35.976ZM411.24 34.872V40.872H422.664V34.872H411.24ZM414.984 22.272C415.584 23.016 416.208 24.072 416.472 24.792L417.984 24C417.696 23.304 417.072 22.32 416.448 21.576L414.984 22.272Z" fill="white"/>
</g>
<defs>
<filter id="filter0_d_664_583" x="0" y="0" width="460" height="70" filterUnits="userSpaceOnUse" color-interpolation-filters="sRGB">
<feFlood flood-opacity="0" result="BackgroundImageFix"/>
<feColorMatrix in="SourceAlpha" type="matrix" values="0 0 0 0 0 0 0 0 0 0 0 0 0 0 0 0 0 0 127 0" result="hardAlpha"/>
<feOffset dy="2"/>
<feGaussianBlur stdDeviation="1"/>
<feComposite in2="hardAlpha" operator="out"/>
<feColorMatrix type="matrix" values="0 0 0 0 0 0 0 0 0 0 0 0 0 0 0 0 0 0 0.8 0"/>
<feBlend mode="normal" in2="BackgroundImageFix" result="effect1_dropShadow_664_583"/>
<feBlend mode="normal" in="SourceGraphic" in2="effect1_dropShadow_664_583" result="shape"/>
</filter>
<filter id="filter1_d_664_583" x="30.4091" y="23.1121" width="68.3698" height="24.804" filterUnits="userSpaceOnUse" color-interpolation-filters="sRGB">
<feFlood flood-opacity="0" result="BackgroundImageFix"/>
<feColorMatrix in="SourceAlpha" type="matrix" values="0 0 0 0 0 0 0 0 0 0 0 0 0 0 0 0 0 0 127 0" result="hardAlpha"/>
<feOffset dy="2"/>
<feGaussianBlur stdDeviation="1"/>
<feComposite in2="hardAlpha" operator="out"/>
<feColorMatrix type="matrix" values="0 0 0 0 0 0 0 0 0 0 0 0 0 0 0 0 0 0 0.8 0"/>
<feBlend mode="normal" in2="BackgroundImageFix" result="effect1_dropShadow_664_583"/>
<feBlend mode="normal" in="SourceGraphic" in2="effect1_dropShadow_664_583" result="shape"/>
</filter>
<filter id="filter2_d_664_583" x="138.4" y="21.5759" width="288.496" height="26.584" filterUnits="userSpaceOnUse" color-interpolation-filters="sRGB">
<feFlood flood-opacity="0" result="BackgroundImageFix"/>
<feColorMatrix in="SourceAlpha" type="matrix" values="0 0 0 0 0 0 0 0 0 0 0 0 0 0 0 0 0 0 127 0" result="hardAlpha"/>
<feOffset dy="2"/>
<feGaussianBlur stdDeviation="1"/>
<feComposite in2="hardAlpha" operator="out"/>
<feColorMatrix type="matrix" values="0 0 0 0 0 0 0 0 0 0 0 0 0 0 0 0 0 0 0.8 0"/>
<feBlend mode="normal" in2="BackgroundImageFix" result="effect1_dropShadow_664_583"/>
<feBlend mode="normal" in="SourceGraphic" in2="effect1_dropShadow_664_583" result="shape"/>
</filter>
</defs>
</svg>
