<svg width="580" height="165" viewBox="0 0 580 165" fill="none" xmlns="http://www.w3.org/2000/svg">
<path d="M62.4711 46.5H29.2401L4 64.3325V122.5H547.884L576 103.416V46.5H280" stroke="white" stroke-width="7.62667"/>
<line x1="283.813" y1="46.5" x2="283.813" y2="122.5" stroke="white" stroke-width="7.62667"/>
<path d="M83.8865 30.9473V20.4533H102.168V68.6333H90.4205V30.9473H83.8865ZM109.889 43.8833C109.889 36.3153 111.341 30.3533 114.245 25.9973C117.193 21.6413 121.923 19.4633 128.435 19.4633C134.947 19.4633 139.655 21.6413 142.559 25.9973C145.507 30.3533 146.981 36.3153 146.981 43.8833C146.981 51.5393 145.507 57.5453 142.559 61.9013C139.655 66.2573 134.947 68.4353 128.435 68.4353C121.923 68.4353 117.193 66.2573 114.245 61.9013C111.341 57.5453 109.889 51.5393 109.889 43.8833ZM135.893 43.8833C135.893 39.4393 135.409 36.0293 134.441 33.6533C133.473 31.2333 131.471 30.0233 128.435 30.0233C125.399 30.0233 123.397 31.2333 122.429 33.6533C121.461 36.0293 120.977 39.4393 120.977 43.8833C120.977 46.8753 121.153 49.3613 121.505 51.3413C121.857 53.2773 122.561 54.8613 123.617 56.0933C124.717 57.2813 126.323 57.8753 128.435 57.8753C130.547 57.8753 132.131 57.2813 133.187 56.0933C134.287 54.8613 135.013 53.2773 135.365 51.3413C135.717 49.3613 135.893 46.8753 135.893 43.8833ZM179.212 5.9333L161.524 80.9753H150.634L168.322 5.9333H179.212ZM182.85 43.8833C182.85 36.3153 184.302 30.3533 187.206 25.9973C190.154 21.6413 194.884 19.4633 201.396 19.4633C207.908 19.4633 212.616 21.6413 215.52 25.9973C218.468 30.3533 219.942 36.3153 219.942 43.8833C219.942 51.5393 218.468 57.5453 215.52 61.9013C212.616 66.2573 207.908 68.4353 201.396 68.4353C194.884 68.4353 190.154 66.2573 187.206 61.9013C184.302 57.5453 182.85 51.5393 182.85 43.8833ZM208.854 43.8833C208.854 39.4393 208.37 36.0293 207.402 33.6533C206.434 31.2333 204.432 30.0233 201.396 30.0233C198.36 30.0233 196.358 31.2333 195.39 33.6533C194.422 36.0293 193.938 39.4393 193.938 43.8833C193.938 46.8753 194.114 49.3613 194.466 51.3413C194.818 53.2773 195.522 54.8613 196.578 56.0933C197.678 57.2813 199.284 57.8753 201.396 57.8753C203.508 57.8753 205.092 57.2813 206.148 56.0933C207.248 54.8613 207.974 53.2773 208.326 51.3413C208.678 49.3613 208.854 46.8753 208.854 43.8833ZM226.301 34.0493C226.477 29.3413 228.017 25.7113 230.921 23.1593C233.825 20.6073 237.763 19.3313 242.735 19.3313C246.035 19.3313 248.851 19.9033 251.183 21.0473C253.559 22.1913 255.341 23.7533 256.529 25.7333C257.761 27.7133 258.377 29.9353 258.377 32.3993C258.377 35.3033 257.651 37.6793 256.199 39.5273C254.747 41.3313 253.053 42.5633 251.117 43.2233V43.4873C253.625 44.3233 255.605 45.7093 257.057 47.6453C258.509 49.5813 259.235 52.0673 259.235 55.1033C259.235 57.8313 258.597 60.2513 257.321 62.3633C256.089 64.4313 254.263 66.0593 251.843 67.2473C249.467 68.4353 246.629 69.0293 243.329 69.0293C238.049 69.0293 233.825 67.7313 230.657 65.1353C227.533 62.5393 225.883 58.6233 225.707 53.3873H236.663C236.707 55.3233 237.257 56.8633 238.313 58.0073C239.369 59.1073 240.909 59.6573 242.933 59.6573C244.649 59.6573 245.969 59.1733 246.893 58.2053C247.861 57.1933 248.345 55.8733 248.345 54.2453C248.345 52.1333 247.663 50.6153 246.299 49.6913C244.979 48.7233 242.845 48.2393 239.897 48.2393H237.785V39.0653H239.897C242.141 39.0653 243.945 38.6913 245.309 37.9433C246.717 37.1513 247.421 35.7653 247.421 33.7853C247.421 32.2013 246.981 30.9693 246.101 30.0893C245.221 29.2093 244.011 28.7693 242.471 28.7693C240.799 28.7693 239.545 29.2753 238.709 30.2873C237.917 31.2993 237.455 32.5533 237.323 34.0493H226.301Z" fill="#FFE500"/>
<path d="M212.21 83.65V104.5H208.79V90.22L202.43 104.5H200.06L193.67 90.22V104.5H190.25V83.65H193.94L201.26 100L208.55 83.65H212.21ZM223.875 104.77C222.315 104.77 220.905 104.42 219.645 103.72C218.385 103 217.395 102 216.675 100.72C215.955 99.42 215.595 97.92 215.595 96.22C215.595 94.54 215.965 93.05 216.705 91.75C217.445 90.45 218.455 89.45 219.735 88.75C221.015 88.05 222.445 87.7 224.025 87.7C225.605 87.7 227.035 88.05 228.315 88.75C229.595 89.45 230.605 90.45 231.345 91.75C232.085 93.05 232.455 94.54 232.455 96.22C232.455 97.9 232.075 99.39 231.315 100.69C230.555 101.99 229.515 103 228.195 103.72C226.895 104.42 225.455 104.77 223.875 104.77ZM223.875 101.8C224.755 101.8 225.575 101.59 226.335 101.17C227.115 100.75 227.745 100.12 228.225 99.28C228.705 98.44 228.945 97.42 228.945 96.22C228.945 95.02 228.715 94.01 228.255 93.19C227.795 92.35 227.185 91.72 226.425 91.3C225.665 90.88 224.845 90.67 223.965 90.67C223.085 90.67 222.265 90.88 221.505 91.3C220.765 91.72 220.175 92.35 219.735 93.19C219.295 94.01 219.075 95.02 219.075 96.22C219.075 98 219.525 99.38 220.425 100.36C221.345 101.32 222.495 101.8 223.875 101.8ZM244.176 87.7C245.476 87.7 246.636 87.97 247.656 88.51C248.696 89.05 249.506 89.85 250.086 90.91C250.666 91.97 250.956 93.25 250.956 94.75V104.5H247.566V95.26C247.566 93.78 247.196 92.65 246.456 91.87C245.716 91.07 244.706 90.67 243.426 90.67C242.146 90.67 241.126 91.07 240.366 91.87C239.626 92.65 239.256 93.78 239.256 95.26V104.5H235.836V87.97H239.256V89.86C239.816 89.18 240.526 88.65 241.386 88.27C242.266 87.89 243.196 87.7 244.176 87.7ZM256.698 104.71C256.078 104.71 255.558 104.5 255.138 104.08C254.718 103.66 254.508 103.14 254.508 102.52C254.508 101.9 254.718 101.38 255.138 100.96C255.558 100.54 256.078 100.33 256.698 100.33C257.298 100.33 257.808 100.54 258.228 100.96C258.648 101.38 258.858 101.9 258.858 102.52C258.858 103.14 258.648 103.66 258.228 104.08C257.808 104.5 257.298 104.71 256.698 104.71Z" fill="white"/>
<path d="M319.28 66.2093V67.8893H331.064V66.2093H319.28ZM326.192 60.5693V80.2973C326.192 80.7053 326.072 80.8253 325.664 80.8253C325.304 80.8493 324.104 80.8493 322.76 80.8253C323.048 81.3053 323.312 82.0973 323.408 82.5773C325.232 82.5773 326.336 82.5293 327.032 82.2173C327.704 81.9053 327.992 81.3773 327.992 80.2973V60.5693H326.192ZM325.904 66.9053C324.464 71.0573 321.656 75.3533 318.728 77.4173C319.136 77.7293 319.664 78.3293 319.976 78.7373C322.952 76.3613 325.76 71.9213 327.344 67.3373L325.904 66.9053ZM311.72 77.0333C311.12 78.7133 310.04 80.4173 308.792 81.5213C309.2 81.7613 309.944 82.2893 310.256 82.6013C311.504 81.3533 312.728 79.4093 313.448 77.4653L311.72 77.0333ZM315.152 77.7053C316.112 78.9053 317.192 80.5853 317.672 81.6653L319.208 80.8733C318.728 79.7933 317.6 78.2093 316.592 77.0093L315.152 77.7053ZM311.792 67.3853H316.736V70.4813H311.792V67.3853ZM311.792 71.8733H316.736V75.0173H311.792V71.8733ZM311.792 62.8973H316.736V65.9693H311.792V62.8973ZM310.064 61.4093V76.5053H318.512V61.4093H310.064ZM337.064 64.5053V65.6573H350.84V64.5053H337.064ZM336.776 74.7773V75.9053H351.2V74.7773H336.776ZM339.344 76.6253C340.136 77.2973 341.024 78.2573 341.432 78.9053L342.656 78.2093C342.248 77.5613 341.312 76.6253 340.496 76.0253L339.344 76.6253ZM339.44 69.4973H348.512V70.5533H339.44V69.4973ZM339.44 67.5773H348.512V68.5853H339.44V67.5773ZM338 66.6413V71.5133H350V66.6413H338ZM346.208 73.8893V78.0893C346.208 78.3293 346.136 78.4013 345.872 78.4013C345.608 78.4253 344.696 78.4253 343.712 78.4013C343.88 78.7133 344.072 79.0973 344.144 79.4573C345.584 79.4573 346.496 79.4573 347.024 79.2653C347.6 79.0973 347.744 78.8573 347.744 78.1373V73.8893H346.208ZM337.112 72.7373L337.208 73.8893C340.304 73.8413 344.744 73.6973 349.064 73.5533L349.112 72.5933C344.648 72.6893 340.088 72.7373 337.112 72.7373ZM347.048 72.1373C347.96 72.8333 349.112 73.9133 349.664 74.6333L350.696 73.8413C350.144 73.1693 349.016 72.1613 348.032 71.4653L347.048 72.1373ZM343.112 63.4013V73.1933L344.648 73.0973V63.4013H343.112ZM334.304 61.5773V82.5773H335.96V63.0173H351.992V82.4573H353.72V61.5773H334.304ZM335.12 79.8653V81.3053H352.736V79.8653H335.12ZM363.368 70.5773V72.2813H378.8V70.5773H363.368ZM364.592 64.4093V66.1373H377.672V64.4093H364.592ZM370.088 60.4973V71.8013H371.936V60.4973H370.088ZM363.392 79.6253L363.656 81.4493C367.064 81.2333 372.08 80.8973 376.856 80.5373V78.9053C371.888 79.1933 366.656 79.4813 363.392 79.6253ZM373.064 75.5213C374.864 77.7053 376.784 80.7053 377.528 82.6013L379.208 81.6653C378.416 79.7213 376.424 76.8653 374.6 74.7293L373.064 75.5213ZM368.48 71.7053C367.736 74.2733 366.32 77.8733 365.144 80.1053L366.728 80.6573C367.928 78.4733 369.368 75.0413 370.424 72.2573L368.48 71.7053ZM358.184 61.9853C359.864 62.6333 361.88 63.7613 362.888 64.6253L363.92 63.1133C362.888 62.2733 360.824 61.2413 359.192 60.6413L358.184 61.9853ZM356.912 68.6093C358.592 69.1853 360.656 70.1933 361.688 70.9613L362.672 69.4493C361.592 68.6813 359.48 67.7453 357.848 67.2173L356.912 68.6093ZM357.752 81.0893L359.312 82.2653C360.656 80.0333 362.24 77.0333 363.44 74.4893L362.096 73.3613C360.776 76.0733 358.976 79.2413 357.752 81.0893ZM390.752 61.2173C390.584 64.4093 390.584 75.9533 380.792 80.9453C381.344 81.3533 381.944 81.9053 382.256 82.3613C392.192 76.9613 392.552 64.9853 392.744 61.2173H390.752ZM392.672 61.6973L390.944 61.8653C391.112 64.0733 391.784 77.4893 401.96 82.3613C402.248 81.8573 402.8 81.2573 403.328 80.8493C393.44 76.3133 392.744 63.5693 392.672 61.6973ZM416.12 64.9613V66.3053H425.072V64.9613H416.12ZM416.12 68.3213V69.6653H425.072V68.3213H416.12ZM413.312 71.7053V73.3133H427.04V71.7053H413.312ZM415.28 61.3853V72.5453H417.008V62.9693H426.008V61.3853H415.28ZM413.288 80.5133L413.624 82.2413C415.88 81.8333 418.832 81.3053 421.688 80.7533L421.616 79.1693C418.544 79.6973 415.376 80.2253 413.288 80.5133ZM420.608 72.4733L419.096 72.7613C420.248 77.3693 422.48 80.9213 426.176 82.6013C426.44 82.1213 426.968 81.4013 427.376 81.0413C423.848 79.6973 421.616 76.4813 420.608 72.4733ZM425.48 73.9853C424.496 74.9453 422.744 76.3373 421.448 77.1533L422.576 77.8733C423.896 77.1293 425.6 75.9533 426.968 74.8493L425.48 73.9853ZM415.328 72.2573V80.8973L417.056 80.5613V72.2573H415.328ZM406.112 72.2093V73.8413H412.28V72.2093H406.112ZM411.488 72.2093V72.4973C411.152 78.0173 410.744 80.1293 410.192 80.6813C410 80.8973 409.76 80.9453 409.352 80.9453C408.944 80.9453 407.888 80.9453 406.784 80.8253C407.048 81.2813 407.24 82.0013 407.264 82.5053C408.416 82.5773 409.544 82.5773 410.12 82.5293C410.84 82.4813 411.272 82.2893 411.728 81.8333C412.448 81.0413 412.832 78.8093 413.216 72.9773C413.264 72.7373 413.288 72.2093 413.288 72.2093H411.488ZM406.184 67.2413C405.968 69.5933 405.512 72.7373 405.128 74.6573L406.808 74.8493C407.168 72.9053 407.576 69.7133 407.84 67.2413H406.184ZM406.424 67.2413V68.9213H412.88V61.7453H405.44V63.4013H411.224V67.2413H406.424ZM430.688 73.6973V75.2813H449.504V73.6973H430.688ZM439.016 71.2013V82.5293H440.816V71.2013H439.016ZM438.608 74.3453C436.712 77.0813 432.92 79.3373 429.032 80.2973C429.44 80.6813 429.944 81.3533 430.208 81.8333C434.144 80.6333 437.984 78.1133 440.072 74.9453L438.608 74.3453ZM441.344 74.4893L439.928 75.0893C442.04 78.1373 445.832 80.7053 449.576 81.9293C449.864 81.4253 450.416 80.7053 450.848 80.3213C447.104 79.3373 443.288 77.0813 441.344 74.4893ZM430.016 68.9933V72.8813H431.744V70.5773H448.256V72.8813H450.056V68.9933H430.016ZM438.224 61.7453C437.816 62.5133 437.048 63.6893 436.448 64.4093L437.552 64.9373C438.2 64.2653 438.992 63.2813 439.736 62.3213L438.224 61.7453ZM433.952 65.5613C435.248 66.4013 436.952 67.6253 437.792 68.3693L439.016 67.2413C438.104 66.5213 436.376 65.3693 435.104 64.5533L433.952 65.5613ZM434.288 60.4733C434.12 64.6493 433.4 66.5453 429.152 67.6253C429.464 67.9133 429.92 68.5373 430.064 68.9453C434.768 67.6493 435.704 65.2733 435.92 60.4733H434.288ZM431.552 61.7933C431.192 62.8973 430.472 64.0733 429.488 64.7453L430.616 65.4653C431.72 64.6973 432.368 63.4253 432.776 62.2013L431.552 61.7933ZM448.736 61.6973C448.28 62.5133 447.392 63.7373 446.72 64.5053L447.848 65.0333C448.568 64.3373 449.504 63.3053 450.296 62.2973L448.736 61.6973ZM444.008 65.3933C445.712 66.4973 447.992 68.0813 449.144 69.0173L450.296 67.7933C449.12 66.8813 446.792 65.3933 445.136 64.3613L444.008 65.3933ZM444.32 60.4733C444.128 64.4093 443.432 66.3053 439.424 67.3853C439.76 67.6973 440.192 68.2973 440.36 68.7053C444.824 67.3853 445.76 65.0333 445.952 60.4733H444.32ZM441.512 61.6973C441.2 62.8493 440.48 64.0253 439.424 64.6493L440.576 65.3933C441.752 64.6493 442.352 63.3773 442.76 62.1053L441.512 61.6973ZM464.888 67.6973V69.1133H469.88V67.6973H464.888ZM463.352 74.6573V75.9533H471.44V74.6573H463.352ZM455.312 61.5053V62.9693H462.032V61.5053H455.312ZM461.528 61.5053V61.7933C460.064 65.0573 456.248 67.6253 452.648 68.7053C452.984 69.0173 453.416 69.6413 453.632 70.0493C457.52 68.7053 461.48 66.0173 463.28 61.9853L462.152 61.4333L461.84 61.5053H461.528ZM465.32 60.4733L463.856 60.9293C465.8 65.1293 469.472 68.2973 474.056 69.7133C474.32 69.2813 474.776 68.6573 475.16 68.2973C470.696 67.1213 467.048 64.1933 465.32 60.4733ZM470.216 60.6413C469.352 61.6253 467.768 62.9693 466.664 63.7853L467.72 64.6253C468.872 63.8333 470.384 62.6813 471.56 61.5773L470.216 60.6413ZM473.096 63.0653C472.208 64.0013 470.576 65.3453 469.424 66.1373L470.528 66.9773C471.704 66.2333 473.264 65.0813 474.416 63.9773L473.096 63.0653ZM456.056 67.7933V69.2093H460.328V73.5533H461.936V67.7933H456.056ZM455.432 71.7293C455.168 73.4813 454.688 75.7373 454.28 77.1773L455.792 77.4413C456.176 75.9533 456.656 73.6013 456.992 71.7293H455.432ZM460.328 75.3773V75.6173C460.04 79.0493 459.776 80.4173 459.344 80.8253C459.152 81.0173 458.888 81.0413 458.432 81.0413C457.976 81.0413 456.68 81.0173 455.336 80.8973C455.624 81.3293 455.816 81.9773 455.864 82.4573C457.184 82.5053 458.456 82.5293 459.08 82.5053C459.824 82.4333 460.256 82.3133 460.688 81.9053C461.312 81.2813 461.624 79.7453 461.936 76.0973C461.96 75.8813 461.984 75.3773 461.984 75.3773H460.328ZM464.24 67.6973V69.5693C464.24 70.7213 463.928 72.0413 462.008 73.0733C462.344 73.2893 462.92 73.8653 463.16 74.2013C465.296 72.9533 465.8 71.1533 465.8 69.5933V67.6973H464.24ZM471.032 74.6573V74.8973C469.712 78.5213 466.112 80.4893 461.984 81.2573C462.272 81.5933 462.632 82.1933 462.776 82.5773C467.312 81.5693 471.08 79.4333 472.664 74.9693L471.632 74.5853L471.344 74.6573H471.032ZM465.632 75.8573L464.216 76.2413C465.8 79.6013 469.016 81.7373 473.408 82.5533C473.648 82.1213 474.104 81.4253 474.488 81.0653C470.24 80.4653 467.024 78.6413 465.632 75.8573ZM456.224 71.7293L455.984 73.1453H460.928V71.7293H456.224ZM455.504 75.3773L455.24 76.7693H460.784V75.3773H455.504ZM469.04 67.6973V71.2973C469.04 72.4493 469.16 72.8093 469.496 73.1213C469.808 73.3853 470.336 73.4813 470.816 73.4813C471.056 73.4813 471.728 73.4813 471.992 73.4813C472.328 73.4813 472.808 73.4573 473.048 73.3613C473.36 73.2653 473.648 73.0733 473.768 72.8093C473.936 72.5213 474.008 71.8253 474.056 71.2013C473.624 71.0813 473.048 70.7933 472.736 70.5293C472.712 71.1293 472.688 71.5853 472.64 71.8013C472.568 71.9693 472.448 72.0893 472.352 72.1373C472.28 72.1613 472.04 72.1613 471.824 72.1613C471.608 72.1613 471.296 72.1613 471.128 72.1613C470.936 72.1613 470.816 72.1613 470.72 72.0893C470.624 72.0173 470.624 71.7773 470.624 71.4413V67.6973H469.04ZM454.664 64.3613C455.792 65.0573 457.112 66.0893 457.736 66.8333L458.84 65.7293C458.192 65.0333 456.824 64.0253 455.72 63.3773L454.664 64.3613ZM478.208 62.8013V64.3373H497.864V62.8013H478.208ZM478.976 80.3933V81.9053H497.144V80.3933H478.976ZM482.936 65.9213V67.2893H493.04V65.9213H482.936ZM482.936 68.9453V70.3133H493.04V68.9453H482.936ZM477.08 72.0413V73.5533H498.896V72.0413H477.08ZM482.12 76.3373V77.8253H493.904V76.3373H482.12ZM481.856 60.4973V72.8813H483.656V60.4973H481.856ZM492.416 60.4973V72.8813H494.216V60.4973H492.416ZM487.016 74.3213V81.2333H488.864V74.3213H487.016ZM483.128 72.4493C481.832 74.5613 479.264 76.6253 476.84 77.5853C477.248 77.9213 477.752 78.5453 478.016 78.9533C480.536 77.7773 483.176 75.4973 484.64 73.0253L483.128 72.4493ZM492.944 72.4493L491.528 73.0013C492.92 75.3533 495.464 77.5853 498.008 78.6653C498.272 78.2333 498.8 77.6093 499.208 77.2733C496.712 76.3853 494.216 74.4893 492.944 72.4493ZM511.904 62.2253C514.112 65.2013 518.288 68.4893 522.008 70.4093C522.32 69.8813 522.752 69.2573 523.184 68.8253C519.416 67.1453 515.264 63.9293 512.72 60.4493H510.872C509.024 63.4733 505.04 67.0253 500.888 69.1133C501.272 69.4973 501.776 70.1213 501.992 70.5533C506.048 68.3933 509.912 65.0813 511.904 62.2253ZM505.952 67.7933V69.4253H518V67.7933H505.952ZM502.856 72.6173V74.2253H521.12V72.6173H502.856ZM501.752 80.2013V81.7853H522.272V80.2013H501.752ZM510.944 68.4173V81.0413H512.84V68.4173H510.944ZM504.848 75.4493C505.808 76.7933 506.744 78.6653 507.056 79.8653L508.616 79.1933C508.28 77.9933 507.296 76.1693 506.312 74.8493L504.848 75.4493ZM517.4 74.8013C516.8 76.1693 515.672 78.0893 514.808 79.2653L516.176 79.8653C517.064 78.7373 518.192 77.0093 519.104 75.4973L517.4 74.8013ZM529.448 68.6813H542.624V72.3053H529.448V68.6813ZM527.912 67.4573V73.5293H544.256V67.4573H527.912ZM531.848 64.8653V66.1373H540.224V64.8653H531.848ZM535.136 67.8413V72.8573H536.672V67.8413H535.136ZM535.88 61.9373C538.328 64.2893 542.648 66.6653 546.176 67.8893C546.44 67.4333 546.848 66.7853 547.232 66.4013C543.512 65.2973 539.336 63.0893 536.624 60.4733H534.92C532.928 62.8013 528.872 65.2493 524.792 66.6413C525.128 67.0253 525.536 67.6493 525.752 68.0573C529.736 66.5693 533.744 64.1213 535.88 61.9373ZM530.912 69.4013C531.512 70.2653 532.064 71.4413 532.256 72.2093L533.648 71.7053C533.408 70.9373 532.832 69.8093 532.208 68.9693L530.912 69.4013ZM539.552 68.8733C539.264 69.6893 538.64 70.9613 538.184 71.7773L539.456 72.2093C539.936 71.4893 540.536 70.3853 541.088 69.3533L539.552 68.8733ZM529.328 74.6813V82.5533H531.104V75.9533H541.064V82.5293H542.888V74.6813H529.328ZM530.384 77.5613V78.8813H541.856V77.5613H530.384ZM530.384 80.5133V81.8093H541.856V80.5133H530.384ZM315.344 108.993C313.392 108.993 311.84 108.561 310.688 107.697C309.536 106.817 308.96 105.577 308.96 103.977C308.96 102.937 309.216 102.065 309.728 101.361C310.256 100.657 310.952 100.169 311.816 99.8973C311.096 99.5453 310.536 99.0493 310.136 98.4093C309.736 97.7533 309.536 97.0093 309.536 96.1773C309.536 94.7213 310.064 93.5773 311.12 92.7453C312.176 91.9133 313.584 91.4973 315.344 91.4973C317.12 91.4973 318.528 91.9133 319.568 92.7453C320.624 93.5773 321.152 94.7213 321.152 96.1773C321.152 97.0093 320.952 97.7533 320.552 98.4093C320.152 99.0493 319.592 99.5453 318.872 99.8973C319.736 100.169 320.424 100.657 320.936 101.361C321.464 102.065 321.728 102.937 321.728 103.977C321.728 105.577 321.152 106.817 320 107.697C318.864 108.561 317.312 108.993 315.344 108.993ZM315.344 99.0333C316.24 99.0333 316.96 98.8013 317.504 98.3373C318.048 97.8573 318.32 97.2173 318.32 96.4173C318.32 95.6173 318.04 94.9693 317.48 94.4733C316.936 93.9773 316.224 93.7293 315.344 93.7293C314.464 93.7293 313.752 93.9773 313.208 94.4733C312.664 94.9693 312.392 95.6173 312.392 96.4173C312.392 97.2173 312.664 97.8573 313.208 98.3373C313.752 98.8013 314.464 99.0333 315.344 99.0333ZM315.344 106.809C316.384 106.809 317.208 106.545 317.816 106.017C318.424 105.473 318.728 104.729 318.728 103.785C318.728 102.873 318.416 102.153 317.792 101.625C317.168 101.097 316.352 100.833 315.344 100.833C314.336 100.833 313.52 101.097 312.896 101.625C312.272 102.153 311.96 102.873 311.96 103.785C311.96 104.729 312.264 105.473 312.872 106.017C313.496 106.545 314.32 106.809 315.344 106.809ZM330.879 108.993C329.407 108.993 328.127 108.641 327.039 107.937C325.951 107.233 325.111 106.225 324.519 104.913C323.943 103.601 323.655 102.049 323.655 100.257C323.655 98.4653 323.943 96.9133 324.519 95.6013C325.095 94.2733 325.919 93.2573 326.991 92.5533C328.079 91.8493 329.375 91.4973 330.879 91.4973C332.367 91.4973 333.655 91.8493 334.743 92.5533C335.831 93.2573 336.663 94.2733 337.239 95.6013C337.815 96.9133 338.103 98.4653 338.103 100.257C338.103 102.049 337.815 103.601 337.239 104.913C336.663 106.225 335.831 107.233 334.743 107.937C333.655 108.641 332.367 108.993 330.879 108.993ZM330.879 106.257C332.207 106.257 333.231 105.729 333.951 104.673C334.687 103.601 335.055 102.137 335.055 100.281C335.055 98.4253 334.695 96.9613 333.975 95.8893C333.255 94.8173 332.231 94.2813 330.903 94.2813C329.575 94.2813 328.543 94.8173 327.807 95.8893C327.087 96.9613 326.727 98.4253 326.727 100.281C326.727 102.137 327.087 103.601 327.807 104.673C328.543 105.729 329.567 106.257 330.879 106.257ZM343.567 95.0733L340.015 97.6413V94.8093L344.047 91.8573H346.591V108.633H343.567V95.0733ZM353.479 96.6813H366.655V100.305H353.479V96.6813ZM351.943 95.4573V101.529H368.287V95.4573H351.943ZM355.879 92.8653V94.1373H364.255V92.8653H355.879ZM359.167 95.8413V100.857H360.703V95.8413H359.167ZM359.911 89.9373C362.359 92.2893 366.679 94.6653 370.207 95.8893C370.471 95.4333 370.879 94.7853 371.263 94.4013C367.543 93.2973 363.367 91.0893 360.655 88.4733H358.951C356.959 90.8013 352.903 93.2493 348.823 94.6413C349.159 95.0253 349.567 95.6493 349.783 96.0573C353.767 94.5693 357.775 92.1213 359.911 89.9373ZM354.943 97.4013C355.543 98.2653 356.095 99.4413 356.287 100.209L357.679 99.7053C357.439 98.9373 356.863 97.8093 356.239 96.9693L354.943 97.4013ZM363.583 96.8733C363.295 97.6893 362.671 98.9613 362.215 99.7773L363.487 100.209C363.967 99.4893 364.567 98.3853 365.119 97.3533L363.583 96.8733ZM353.359 102.681V110.553H355.135V103.953H365.095V110.529H366.919V102.681H353.359ZM354.415 105.561V106.881H365.887V105.561H354.415ZM354.415 108.513V109.809H365.887V108.513H354.415ZM386.935 91.2333V97.2333H388.687V91.2333H386.935ZM384.055 99.6333V108.873C384.055 109.137 383.983 109.209 383.695 109.233C383.407 109.233 382.471 109.233 381.463 109.209C381.655 109.617 381.895 110.193 381.967 110.577C383.359 110.577 384.295 110.553 384.895 110.337C385.471 110.121 385.639 109.713 385.639 108.897V99.6333H384.055ZM391.039 88.4493C390.751 89.1213 390.151 90.1773 389.695 90.8493L390.943 91.3053C391.447 90.6813 392.071 89.8413 392.623 88.9293L391.039 88.4493ZM383.287 88.9773C383.887 89.7213 384.487 90.7053 384.751 91.3773L386.119 90.8013C385.855 90.1293 385.183 89.1453 384.583 88.4733L383.287 88.9773ZM390.991 99.4173C391.951 100.065 393.079 101.049 393.583 101.793L394.687 100.881C394.159 100.185 393.031 99.2253 392.047 98.6013L390.991 99.4173ZM380.575 105.729L380.791 107.193C382.903 106.881 385.615 106.473 388.279 106.065L388.231 104.721C385.399 105.129 382.543 105.489 380.575 105.729ZM386.983 98.4573C385.615 98.9613 383.119 99.3693 381.007 99.6093C381.175 99.9453 381.367 100.449 381.439 100.761C383.623 100.545 386.263 100.137 388.063 99.5613L386.983 98.4573ZM381.535 90.8493V92.1693H394.351V90.8493H381.535ZM382.327 93.7293V94.9773H393.703V93.7293H382.327ZM380.671 96.6573V98.0253H394.855V96.6573H380.671ZM380.647 102.081V103.473H394.903V102.081H380.647ZM388.519 98.6013C388.759 106.161 390.223 110.745 393.175 110.745C394.375 110.745 394.951 110.049 395.215 107.865C394.855 107.721 394.375 107.505 394.063 107.193C393.943 108.753 393.727 109.281 393.319 109.281C391.639 109.305 390.175 105.681 390.079 98.6013H388.519ZM392.527 104.001C391.303 106.329 388.855 108.249 386.359 109.329C386.671 109.593 387.079 110.025 387.271 110.313C389.863 109.137 392.455 107.073 393.847 104.625L392.527 104.001ZM373.927 95.7453V97.1853H380.095V95.7453H373.927ZM374.071 89.3373V90.7773H380.023V89.3373H374.071ZM373.927 98.9613V100.401H380.095V98.9613H373.927ZM372.943 92.4813V93.9693H380.695V92.4813H372.943ZM374.767 102.201V103.689H378.559V107.697H374.767V109.185H380.071V102.201H374.767ZM373.879 102.201V110.313H375.367V102.201H373.879ZM400.951 93.1053V94.3533H408.775V93.1053H400.951ZM402.631 95.6973V96.7293H407.023V95.6973H402.631ZM402.631 98.1453V99.2013H407.023V98.1453H402.631ZM400.783 103.329V104.481H405.487V103.329H400.783ZM400.855 105.801V106.953H405.415V105.801H400.855ZM408.943 93.8493V95.1693H418.543V93.8493H408.943ZM408.535 102.297V103.593H418.999V102.297H408.535ZM412.831 92.4093V97.2813H414.367V92.4093H412.831ZM402.079 93.7293V101.337H403.447V93.7293H402.079ZM402.511 103.809V108.969H403.735V103.809H402.511ZM406.159 93.7293V110.601H407.575V93.7293H406.159ZM415.567 97.6653H417.151V99.9933H415.567V97.6653ZM412.903 97.6653H414.463V99.9933H412.903V97.6653ZM410.359 97.6653H411.823V99.9933H410.359V97.6653ZM409.135 96.5133V101.145H418.375V96.5133H409.135ZM400.591 100.953L400.735 102.297C402.559 102.177 404.839 101.985 407.143 101.769L407.167 100.545C404.695 100.713 402.319 100.881 400.591 100.953ZM400.231 108.729L400.399 109.977C401.935 109.809 403.711 109.569 405.559 109.329L405.535 108.177C403.519 108.393 401.647 108.609 400.231 108.729ZM411.367 105.393V108.729C411.367 110.121 411.703 110.433 413.095 110.433C413.359 110.433 414.679 110.433 414.967 110.433C416.023 110.433 416.407 109.977 416.551 108.081C416.143 107.985 415.615 107.793 415.327 107.577C415.279 109.041 415.207 109.185 414.775 109.185C414.487 109.185 413.455 109.185 413.263 109.185C412.807 109.185 412.735 109.137 412.735 108.729V105.393H411.367ZM409.231 105.537C409.087 106.833 408.727 108.297 408.127 109.161L409.303 109.761C409.975 108.825 410.287 107.265 410.431 105.897L409.231 105.537ZM416.023 105.801C416.911 107.025 417.703 108.657 417.919 109.737L419.215 109.233C418.975 108.129 418.159 106.545 417.271 105.345L416.023 105.801ZM411.775 104.169C412.831 104.697 414.079 105.561 414.655 106.185L415.591 105.225C414.967 104.601 413.719 103.809 412.639 103.305L411.775 104.169ZM407.791 88.4973V91.1853H409.639V88.4973H407.791ZM399.727 90.2493V91.7133H418.783V90.2493H399.727ZM398.551 90.2493V97.8333C398.551 101.313 398.431 106.185 396.799 109.641C397.183 109.809 397.903 110.313 398.191 110.625C399.919 106.977 400.183 101.529 400.183 97.8093V90.2493H398.551Z" fill="white"/>
<path d="M286.82 25.8C285.593 25.8 284.527 25.5067 283.62 24.92C282.713 24.3333 282.013 23.4933 281.52 22.4C281.04 21.3067 280.8 20.0133 280.8 18.52C280.8 17.0267 281.04 15.7333 281.52 14.64C282 13.5333 282.687 12.6867 283.58 12.1C284.487 11.5133 285.567 11.22 286.82 11.22C288.06 11.22 289.133 11.5133 290.04 12.1C290.947 12.6867 291.64 13.5333 292.12 14.64C292.6 15.7333 292.84 17.0267 292.84 18.52C292.84 20.0133 292.6 21.3067 292.12 22.4C291.64 23.4933 290.947 24.3333 290.04 24.92C289.133 25.5067 288.06 25.8 286.82 25.8ZM286.82 23.52C287.927 23.52 288.78 23.08 289.38 22.2C289.993 21.3067 290.3 20.0867 290.3 18.54C290.3 16.9933 290 15.7733 289.4 14.88C288.8 13.9867 287.947 13.54 286.84 13.54C285.733 13.54 284.873 13.9867 284.26 14.88C283.66 15.7733 283.36 16.9933 283.36 18.54C283.36 20.0867 283.66 21.3067 284.26 22.2C284.873 23.08 285.727 23.52 286.82 23.52ZM298.433 25.8C297.619 25.8 296.899 25.7067 296.273 25.52V23.48C296.793 23.72 297.446 23.84 298.233 23.84C299.539 23.84 300.573 23.4533 301.333 22.68C302.093 21.8933 302.546 20.76 302.693 19.28C301.839 20.1867 300.633 20.64 299.073 20.64C298.166 20.64 297.359 20.4533 296.653 20.08C295.959 19.7067 295.413 19.1733 295.013 18.48C294.626 17.7867 294.433 16.9733 294.433 16.04C294.433 15.12 294.639 14.2933 295.053 13.56C295.466 12.8267 296.073 12.2533 296.873 11.84C297.686 11.4267 298.646 11.22 299.753 11.22C300.793 11.22 301.726 11.46 302.553 11.94C303.379 12.42 304.026 13.12 304.493 14.04C304.973 14.96 305.213 16.06 305.213 17.34C305.213 19.14 304.939 20.6733 304.393 21.94C303.859 23.2067 303.079 24.1667 302.053 24.82C301.039 25.4733 299.833 25.8 298.433 25.8ZM299.753 18.78C300.553 18.78 301.219 18.5133 301.753 17.98C302.286 17.4333 302.553 16.7467 302.553 15.92C302.553 15.4133 302.433 14.9467 302.193 14.52C301.966 14.08 301.639 13.7333 301.213 13.48C300.799 13.2133 300.313 13.08 299.753 13.08C298.899 13.08 298.213 13.34 297.693 13.86C297.186 14.38 296.933 15.0667 296.933 15.92C296.933 16.7867 297.186 17.48 297.693 18C298.213 18.52 298.899 18.78 299.753 18.78ZM308.136 18.38C307.776 18.38 307.462 18.2533 307.196 18C306.942 17.7333 306.816 17.42 306.816 17.06C306.816 16.7 306.942 16.3933 307.196 16.14C307.462 15.8733 307.776 15.74 308.136 15.74C308.496 15.74 308.802 15.8733 309.056 16.14C309.322 16.3933 309.456 16.7 309.456 17.06C309.456 17.42 309.322 17.7333 309.056 18C308.802 18.2533 308.496 18.38 308.136 18.38ZM308.136 25.18C307.776 25.18 307.462 25.0533 307.196 24.8C306.942 24.5333 306.816 24.22 306.816 23.86C306.816 23.5 306.942 23.1933 307.196 22.94C307.462 22.6733 307.776 22.54 308.136 22.54C308.496 22.54 308.802 22.6733 309.056 22.94C309.322 23.1933 309.456 23.5 309.456 23.86C309.456 24.22 309.322 24.5333 309.056 24.8C308.802 25.0533 308.496 25.18 308.136 25.18ZM311.054 23.86L313.814 21.32L315.134 20.14C315.867 19.5 316.421 18.9867 316.794 18.6C317.181 18.2133 317.494 17.8 317.734 17.36C317.974 16.9067 318.094 16.42 318.094 15.9C318.094 15.14 317.867 14.56 317.414 14.16C316.974 13.7467 316.341 13.54 315.514 13.54C314.874 13.54 314.207 13.66 313.514 13.9C312.834 14.1267 312.214 14.4533 311.654 14.88V12.46C312.814 11.6333 314.241 11.22 315.934 11.22C317.427 11.22 318.587 11.62 319.414 12.42C320.241 13.22 320.654 14.3133 320.654 15.7C320.654 16.3533 320.527 16.9667 320.274 17.54C320.021 18.1 319.661 18.6467 319.194 19.18C318.727 19.7133 318.094 20.3467 317.294 21.08L314.794 23.4H321.154V25.5H311.054V23.86ZM328.773 25.8C327.546 25.8 326.48 25.5067 325.573 24.92C324.666 24.3333 323.966 23.4933 323.473 22.4C322.993 21.3067 322.753 20.0133 322.753 18.52C322.753 17.0267 322.993 15.7333 323.473 14.64C323.953 13.5333 324.64 12.6867 325.533 12.1C326.44 11.5133 327.52 11.22 328.773 11.22C330.013 11.22 331.086 11.5133 331.993 12.1C332.9 12.6867 333.593 13.5333 334.073 14.64C334.553 15.7333 334.793 17.0267 334.793 18.52C334.793 20.0133 334.553 21.3067 334.073 22.4C333.593 23.4933 332.9 24.3333 331.993 24.92C331.086 25.5067 330.013 25.8 328.773 25.8ZM328.773 23.52C329.88 23.52 330.733 23.08 331.333 22.2C331.946 21.3067 332.253 20.0867 332.253 18.54C332.253 16.9933 331.953 15.7733 331.353 14.88C330.753 13.9867 329.9 13.54 328.793 13.54C327.686 13.54 326.826 13.9867 326.213 14.88C325.613 15.7733 325.313 16.9933 325.313 18.54C325.313 20.0867 325.613 21.3067 326.213 22.2C326.826 23.08 327.68 23.52 328.773 23.52ZM350.553 20.24C350.18 20.24 349.806 20.1867 349.433 20.08C349.073 19.9733 348.646 19.82 348.153 19.62C347.606 19.42 347.173 19.2733 346.853 19.18C346.533 19.0867 346.2 19.04 345.853 19.04C344.92 19.04 344.166 19.4333 343.593 20.22V17.96C343.806 17.64 344.106 17.3933 344.493 17.22C344.893 17.0467 345.346 16.96 345.853 16.96C346.226 16.96 346.586 17.0133 346.933 17.12C347.293 17.2133 347.753 17.3667 348.313 17.58C348.793 17.7667 349.2 17.9133 349.533 18.02C349.88 18.1133 350.22 18.16 350.553 18.16C351.486 18.16 352.24 17.7667 352.813 16.98V19.24C352.6 19.56 352.293 19.8067 351.893 19.98C351.506 20.1533 351.06 20.24 350.553 20.24ZM364.58 14.2L361.62 16.34V13.98L364.98 11.52H367.1V25.5H364.58V14.2ZM369.101 23.86L371.861 21.32L373.181 20.14C373.914 19.5 374.467 18.9867 374.841 18.6C375.227 18.2133 375.541 17.8 375.781 17.36C376.021 16.9067 376.141 16.42 376.141 15.9C376.141 15.14 375.914 14.56 375.461 14.16C375.021 13.7467 374.387 13.54 373.561 13.54C372.921 13.54 372.254 13.66 371.561 13.9C370.881 14.1267 370.261 14.4533 369.701 14.88V12.46C370.861 11.6333 372.287 11.22 373.981 11.22C375.474 11.22 376.634 11.62 377.461 12.42C378.287 13.22 378.701 14.3133 378.701 15.7C378.701 16.3533 378.574 16.9667 378.321 17.54C378.067 18.1 377.707 18.6467 377.241 19.18C376.774 19.7133 376.141 20.3467 375.341 21.08L372.841 23.4H379.201V25.5H369.101V23.86ZM382.12 18.38C381.76 18.38 381.447 18.2533 381.18 18C380.927 17.7333 380.8 17.42 380.8 17.06C380.8 16.7 380.927 16.3933 381.18 16.14C381.447 15.8733 381.76 15.74 382.12 15.74C382.48 15.74 382.787 15.8733 383.04 16.14C383.307 16.3933 383.44 16.7 383.44 17.06C383.44 17.42 383.307 17.7333 383.04 18C382.787 18.2533 382.48 18.38 382.12 18.38ZM382.12 25.18C381.76 25.18 381.447 25.0533 381.18 24.8C380.927 24.5333 380.8 24.22 380.8 23.86C380.8 23.5 380.927 23.1933 381.18 22.94C381.447 22.6733 381.76 22.54 382.12 22.54C382.48 22.54 382.787 22.6733 383.04 22.94C383.307 23.1933 383.44 23.5 383.44 23.86C383.44 24.22 383.307 24.5333 383.04 24.8C382.787 25.0533 382.48 25.18 382.12 25.18ZM391.058 25.8C389.832 25.8 388.765 25.5067 387.858 24.92C386.952 24.3333 386.252 23.4933 385.758 22.4C385.278 21.3067 385.038 20.0133 385.038 18.52C385.038 17.0267 385.278 15.7333 385.758 14.64C386.238 13.5333 386.925 12.6867 387.818 12.1C388.725 11.5133 389.805 11.22 391.058 11.22C392.298 11.22 393.372 11.5133 394.278 12.1C395.185 12.6867 395.878 13.5333 396.358 14.64C396.838 15.7333 397.078 17.0267 397.078 18.52C397.078 20.0133 396.838 21.3067 396.358 22.4C395.878 23.4933 395.185 24.3333 394.278 24.92C393.372 25.5067 392.298 25.8 391.058 25.8ZM391.058 23.52C392.165 23.52 393.018 23.08 393.618 22.2C394.232 21.3067 394.538 20.0867 394.538 18.54C394.538 16.9933 394.238 15.7733 393.638 14.88C393.038 13.9867 392.185 13.54 391.078 13.54C389.972 13.54 389.112 13.9867 388.498 14.88C387.898 15.7733 387.598 16.9933 387.598 18.54C387.598 20.0867 387.898 21.3067 388.498 22.2C389.112 23.08 389.965 23.52 391.058 23.52ZM404.691 25.8C403.464 25.8 402.398 25.5067 401.491 24.92C400.584 24.3333 399.884 23.4933 399.391 22.4C398.911 21.3067 398.671 20.0133 398.671 18.52C398.671 17.0267 398.911 15.7333 399.391 14.64C399.871 13.5333 400.558 12.6867 401.451 12.1C402.358 11.5133 403.438 11.22 404.691 11.22C405.931 11.22 407.004 11.5133 407.911 12.1C408.818 12.6867 409.511 13.5333 409.991 14.64C410.471 15.7333 410.711 17.0267 410.711 18.52C410.711 20.0133 410.471 21.3067 409.991 22.4C409.511 23.4933 408.818 24.3333 407.911 24.92C407.004 25.5067 405.931 25.8 404.691 25.8ZM404.691 23.52C405.798 23.52 406.651 23.08 407.251 22.2C407.864 21.3067 408.171 20.0867 408.171 18.54C408.171 16.9933 407.871 15.7733 407.271 14.88C406.671 13.9867 405.818 13.54 404.711 13.54C403.604 13.54 402.744 13.9867 402.131 14.88C401.531 15.7733 401.231 16.9933 401.231 18.54C401.231 20.0867 401.531 21.3067 402.131 22.2C402.744 23.08 403.598 23.52 404.691 23.52ZM422.511 28.98C420.511 26.5267 419.511 23.5667 419.511 20.1C419.511 16.6333 420.511 13.6733 422.511 11.22H425.111C423.084 13.82 422.071 16.78 422.071 20.1C422.071 23.42 423.084 26.38 425.111 28.98H422.511ZM432.328 25.8C431.101 25.8 430.034 25.5067 429.128 24.92C428.221 24.3333 427.521 23.4933 427.028 22.4C426.548 21.3067 426.308 20.0133 426.308 18.52C426.308 17.0267 426.548 15.7333 427.028 14.64C427.508 13.5333 428.194 12.6867 429.088 12.1C429.994 11.5133 431.074 11.22 432.328 11.22C433.568 11.22 434.641 11.5133 435.548 12.1C436.454 12.6867 437.148 13.5333 437.628 14.64C438.108 15.7333 438.348 17.0267 438.348 18.52C438.348 20.0133 438.108 21.3067 437.628 22.4C437.148 23.4933 436.454 24.3333 435.548 24.92C434.641 25.5067 433.568 25.8 432.328 25.8ZM432.328 23.52C433.434 23.52 434.288 23.08 434.888 22.2C435.501 21.3067 435.808 20.0867 435.808 18.54C435.808 16.9933 435.508 15.7733 434.908 14.88C434.308 13.9867 433.454 13.54 432.348 13.54C431.241 13.54 430.381 13.9867 429.768 14.88C429.168 15.7733 428.868 16.9933 428.868 18.54C428.868 20.0867 429.168 21.3067 429.768 22.2C430.381 23.08 431.234 23.52 432.328 23.52ZM445.261 25.8C443.634 25.8 442.341 25.44 441.381 24.72C440.421 23.9867 439.941 22.9533 439.941 21.62C439.941 20.7533 440.154 20.0267 440.581 19.44C441.021 18.8533 441.601 18.4467 442.321 18.22C441.721 17.9267 441.254 17.5133 440.921 16.98C440.587 16.4333 440.421 15.8133 440.421 15.12C440.421 13.9067 440.861 12.9533 441.741 12.26C442.621 11.5667 443.794 11.22 445.261 11.22C446.741 11.22 447.914 11.5667 448.781 12.26C449.661 12.9533 450.101 13.9067 450.101 15.12C450.101 15.8133 449.934 16.4333 449.601 16.98C449.267 17.5133 448.801 17.9267 448.201 18.22C448.921 18.4467 449.494 18.8533 449.921 19.44C450.361 20.0267 450.581 20.7533 450.581 21.62C450.581 22.9533 450.101 23.9867 449.141 24.72C448.194 25.44 446.901 25.8 445.261 25.8ZM445.261 17.5C446.007 17.5 446.607 17.3067 447.061 16.92C447.514 16.52 447.741 15.9867 447.741 15.32C447.741 14.6533 447.507 14.1133 447.041 13.7C446.587 13.2867 445.994 13.08 445.261 13.08C444.527 13.08 443.934 13.2867 443.481 13.7C443.027 14.1133 442.801 14.6533 442.801 15.32C442.801 15.9867 443.027 16.52 443.481 16.92C443.934 17.3067 444.527 17.5 445.261 17.5ZM445.261 23.98C446.127 23.98 446.814 23.76 447.321 23.32C447.827 22.8667 448.081 22.2467 448.081 21.46C448.081 20.7 447.821 20.1 447.301 19.66C446.781 19.22 446.101 19 445.261 19C444.421 19 443.741 19.22 443.221 19.66C442.701 20.1 442.441 20.7 442.441 21.46C442.441 22.2467 442.694 22.8667 443.201 23.32C443.721 23.76 444.407 23.98 445.261 23.98ZM453.507 18.38C453.147 18.38 452.833 18.2533 452.567 18C452.313 17.7333 452.187 17.42 452.187 17.06C452.187 16.7 452.313 16.3933 452.567 16.14C452.833 15.8733 453.147 15.74 453.507 15.74C453.867 15.74 454.173 15.8733 454.427 16.14C454.693 16.3933 454.827 16.7 454.827 17.06C454.827 17.42 454.693 17.7333 454.427 18C454.173 18.2533 453.867 18.38 453.507 18.38ZM453.507 25.18C453.147 25.18 452.833 25.0533 452.567 24.8C452.313 24.5333 452.187 24.22 452.187 23.86C452.187 23.5 452.313 23.1933 452.567 22.94C452.833 22.6733 453.147 22.54 453.507 22.54C453.867 22.54 454.173 22.6733 454.427 22.94C454.693 23.1933 454.827 23.5 454.827 23.86C454.827 24.22 454.693 24.5333 454.427 24.8C454.173 25.0533 453.867 25.18 453.507 25.18ZM460.445 25.8C459.698 25.8 458.965 25.72 458.245 25.56C457.525 25.4 456.918 25.18 456.425 24.9V22.76C456.985 23.1067 457.618 23.38 458.325 23.58C459.032 23.7667 459.705 23.86 460.345 23.86C462.652 23.86 463.805 22.9467 463.805 21.12C463.805 20.24 463.518 19.5667 462.945 19.1C462.385 18.6333 461.592 18.4 460.565 18.4C460.098 18.4 459.605 18.4467 459.085 18.54C458.565 18.6333 458.105 18.76 457.705 18.92L456.645 18.32L457.185 11.52H465.385V13.62H459.485L459.225 16.82C459.958 16.66 460.772 16.58 461.665 16.58C463.145 16.58 464.298 16.9867 465.125 17.8C465.952 18.6133 466.365 19.72 466.365 21.12C466.365 22.64 465.872 23.8 464.885 24.6C463.898 25.4 462.418 25.8 460.445 25.8ZM473.988 25.8C472.761 25.8 471.695 25.5067 470.788 24.92C469.881 24.3333 469.181 23.4933 468.688 22.4C468.208 21.3067 467.968 20.0133 467.968 18.52C467.968 17.0267 468.208 15.7333 468.688 14.64C469.168 13.5333 469.855 12.6867 470.748 12.1C471.655 11.5133 472.735 11.22 473.988 11.22C475.228 11.22 476.301 11.5133 477.208 12.1C478.115 12.6867 478.808 13.5333 479.288 14.64C479.768 15.7333 480.008 17.0267 480.008 18.52C480.008 20.0133 479.768 21.3067 479.288 22.4C478.808 23.4933 478.115 24.3333 477.208 24.92C476.301 25.5067 475.228 25.8 473.988 25.8ZM473.988 23.52C475.095 23.52 475.948 23.08 476.548 22.2C477.161 21.3067 477.468 20.0867 477.468 18.54C477.468 16.9933 477.168 15.7733 476.568 14.88C475.968 13.9867 475.115 13.54 474.008 13.54C472.901 13.54 472.041 13.9867 471.428 14.88C470.828 15.7733 470.528 16.9933 470.528 18.54C470.528 20.0867 470.828 21.3067 471.428 22.2C472.041 23.08 472.895 23.52 473.988 23.52ZM493.028 17.56V18.8H502.948V17.56H493.028ZM492.648 20.98V22.26H503.368V20.98H492.648ZM499.308 17.96V26.74H500.668V17.96H499.308ZM495.208 18.02V21.66C495.208 22.76 494.788 24.88 492.768 26.12C493.108 26.32 493.568 26.74 493.768 27.02C496.028 25.5 496.508 22.88 496.508 21.66V18.02H495.208ZM490.548 12.34V13.42H496.168V12.34H490.548ZM499.768 12.34V13.42H505.428V12.34H499.768ZM504.848 9.56V25.16C504.848 25.46 504.748 25.58 504.428 25.58C504.108 25.6 503.028 25.6 501.928 25.56C502.148 25.98 502.348 26.68 502.408 27.08C503.928 27.08 504.928 27.06 505.528 26.8C506.128 26.54 506.328 26.06 506.328 25.16V9.56H504.848ZM490.668 9.56V10.72H495.668V15.16H490.668V16.3H497.088V9.56H490.668ZM505.568 9.56H498.848V16.32H505.568V15.18H500.288V10.72H505.568V9.56ZM489.768 9.56V27.12H491.248V9.56H489.768ZM508.868 11.94V13.36H517.768V11.94H508.868ZM512.108 16.02V17.4H515.948V16.02H512.108ZM512.528 8.74V12.62H514.008V8.74H512.528ZM515.428 16.02V16.32C515.308 22.74 515.148 24.96 514.808 25.44C514.648 25.66 514.468 25.72 514.188 25.7C513.868 25.7 513.128 25.7 512.288 25.64C512.508 26.02 512.648 26.6 512.688 27.02C513.528 27.06 514.388 27.06 514.868 27.02C515.408 26.94 515.728 26.8 516.048 26.36C516.588 25.66 516.708 23.38 516.848 16.7C516.868 16.5 516.868 16.02 516.868 16.02H515.428ZM519.648 12.44V13.84H527.248V12.44H519.648ZM520.108 8.7C519.528 12.14 518.488 15.5 516.888 17.62C517.248 17.84 517.908 18.34 518.168 18.6C519.808 16.28 520.968 12.7 521.648 8.92L520.108 8.7ZM524.368 13.2C523.448 19.6 521.328 23.62 516.388 25.84C516.688 26.16 517.128 26.82 517.268 27.16C522.468 24.58 524.748 20.32 525.848 13.36L524.368 13.2ZM520.228 13.72L518.928 13.96C520.028 20.04 522.108 24.86 526.328 27.06C526.548 26.66 527.028 26.08 527.388 25.78C523.328 23.88 521.208 19.26 520.228 13.72ZM511.248 12.64V17.52C511.248 20.34 510.948 23.52 508.488 26.12C508.868 26.38 509.348 26.78 509.608 27.08C512.268 24.26 512.668 20.84 512.668 17.52V12.64H511.248ZM532.908 16.6H528.928V18H531.468V23.68H532.908V16.6ZM532.908 23.08H531.608C530.668 23.94 529.588 24.84 528.708 25.48L529.488 26.94C530.488 26.06 531.408 25.2 532.288 24.34C533.528 25.92 535.348 26.62 537.988 26.72C540.228 26.82 544.508 26.78 546.768 26.68C546.828 26.24 547.068 25.54 547.248 25.2C544.828 25.36 540.208 25.42 537.988 25.32C535.608 25.24 533.848 24.56 532.908 23.08ZM529.108 10.04C530.328 11.02 531.708 12.42 532.268 13.42L533.508 12.48C532.888 11.5 531.488 10.12 530.248 9.22L529.108 10.04ZM541.828 8.9C541.508 10 540.888 11.56 540.348 12.58L541.588 12.94C542.148 12 542.868 10.54 543.448 9.26L541.828 8.9ZM537.068 11.84H536.728L535.608 12.98V22.66H537.068V13.14H546.468V11.84H537.068ZM536.388 15.24V16.5H545.968V15.24H536.388ZM536.388 18.6V19.88H545.928V18.6H536.388ZM535.608 22.06V23.36H546.808V22.06H535.608ZM540.568 12.44V22.56H542.008V12.44H540.568ZM537.368 8.76C536.348 11.3 534.628 13.68 532.688 15.22C533.028 15.48 533.588 16.06 533.828 16.36C535.808 14.66 537.688 12.02 538.848 9.18L537.368 8.76ZM554.608 16.92V18.24H567.208V16.92H554.608ZM556.868 19.64V20.86H565.588V19.64H556.868ZM557.848 17.42C556.928 19.4 555.268 21.14 553.428 22.24C553.728 22.46 554.248 22.92 554.448 23.18C556.308 21.94 558.128 19.98 559.148 17.76L557.848 17.42ZM565.308 19.64V19.86C565.028 23.78 564.708 25.28 564.328 25.66C564.168 25.86 564.008 25.88 563.708 25.88C563.428 25.88 562.768 25.86 562.008 25.8C562.208 26.12 562.348 26.66 562.348 27.04C563.148 27.08 563.908 27.06 564.348 27.04C564.828 27 565.188 26.88 565.508 26.54C566.048 25.96 566.368 24.38 566.668 20.24C566.708 20.02 566.728 19.64 566.728 19.64H565.308ZM557.948 13.08H564.388V14.68H557.948V13.08ZM557.948 10.42H564.388V12H557.948V10.42ZM556.588 9.3V15.8H565.788V9.3H556.588ZM549.048 13.04V14.48H554.988V13.04H549.048ZM551.388 8.86V21.16H552.808V8.86H551.388ZM548.668 21.96L549.248 23.46C550.948 22.64 553.128 21.56 555.168 20.52L554.848 19.2C552.568 20.26 550.208 21.32 548.668 21.96ZM562.748 19.86C562.028 22.34 560.348 25.06 558.468 26.32C558.848 26.54 559.308 26.88 559.568 27.18C561.388 25.8 563.048 22.96 563.808 20.42L562.748 19.86ZM559.628 19.92C558.648 22.02 556.548 24.32 554.568 25.4C554.928 25.62 555.348 26 555.588 26.32C557.528 25.08 559.628 22.7 560.648 20.52L559.628 19.92ZM568.408 28.98C570.434 26.38 571.448 23.42 571.448 20.1C571.448 16.78 570.434 13.82 568.408 11.22H571.008C573.008 13.6733 574.008 16.6333 574.008 20.1C574.008 23.5667 573.008 26.5267 571.008 28.98H568.408Z" fill="white"/>
<path d="M244.56 162.676C242.16 159.732 240.96 156.18 240.96 152.02C240.96 147.86 242.16 144.308 244.56 141.364H247.68C245.248 144.484 244.032 148.036 244.032 152.02C244.032 156.004 245.248 159.556 247.68 162.676H244.56ZM253.316 157.612V159.364H266.828V157.612H253.316ZM252.5 150.196V160.42H254.324V151.924H265.892V160.372H267.788V150.196H252.5ZM257.324 138.268C256.22 140.836 254.252 144.364 252.668 146.5L254.228 147.172C255.836 145.06 257.852 141.748 259.292 138.964L257.324 138.268ZM263.084 142.156C265.556 144.172 268.292 147.076 269.492 149.068L271.028 147.868C269.78 145.876 266.948 143.044 264.5 141.1L263.084 142.156ZM249.668 145.708L249.788 147.556C254.372 147.364 261.62 147.052 268.364 146.692L268.46 144.964C261.62 145.276 254.228 145.588 249.668 145.708ZM273.692 144.436V146.236H280.748V144.436H273.692ZM285.716 138.796V156.58C285.716 159.172 286.388 159.892 288.62 159.892C289.1 159.892 291.98 159.892 292.484 159.892C294.836 159.892 295.316 158.332 295.532 153.94C295.028 153.82 294.26 153.46 293.804 153.1C293.636 157.084 293.468 158.116 292.364 158.116C291.74 158.116 289.34 158.116 288.812 158.116C287.78 158.116 287.564 157.876 287.564 156.628V138.796H285.716ZM279.86 138.796V160.228H281.708V138.796H279.86ZM293.54 142.492C291.74 144.148 288.764 146.188 286.1 147.652C286.364 148.036 286.724 148.66 286.868 149.068C289.58 147.58 292.652 145.756 294.86 144.052L293.54 142.492ZM272.948 155.572L273.788 157.372C275.852 156.508 278.564 155.38 281.084 154.276L280.748 152.644C277.892 153.772 274.892 154.924 272.948 155.572ZM307.124 138.244V142.732H309.02V138.244H307.124ZM307.148 143.308V160.492H308.996V143.308H307.148ZM297.356 141.676V143.428H318.98V141.676H297.356ZM299.828 146.716V157.444H301.628V148.468H315.596V146.716H299.828ZM314.9 146.716V155.164C314.9 155.5 314.78 155.596 314.348 155.62C313.94 155.644 312.476 155.644 310.844 155.596C311.108 156.1 311.396 156.82 311.468 157.372C313.532 157.372 314.876 157.348 315.716 157.06C316.508 156.748 316.748 156.196 316.748 155.164V146.716H314.9ZM322.46 142.636V154.06H324.26V144.412H339.932V153.94H341.804V142.636H322.46ZM323.42 150.796V152.548H341.012V150.796H323.42ZM331.148 138.34V160.396H333.02V138.34H331.148ZM346.292 140.116V141.868H366.164V140.116H346.292ZM356.684 148.276V150.052H365.204V148.276H356.684ZM345.38 157.612V159.364H366.956V157.612H345.38ZM355.82 140.764V158.476H357.692V140.764H355.82ZM348.668 146.284V158.548H350.516V146.284H348.668ZM378.524 143.932H384.044V146.692H378.524V143.932ZM376.844 142.636V147.988H385.82V142.636H376.844ZM375.74 150.94H378.932V154.492H375.74V150.94ZM374.204 149.62V155.812H380.516V149.62H374.204ZM383.684 150.94H387.044V154.492H383.684V150.94ZM382.148 149.62V155.812H388.628V149.62H382.148ZM370.388 139.396V160.444H372.14V141.004H390.452V139.396H370.388ZM371.54 157.612V159.268H391.076V157.612H371.54ZM394.46 142.636V154.06H396.26V144.412H411.932V153.94H413.804V142.636H394.46ZM395.42 150.796V152.548H413.012V150.796H395.42ZM403.148 138.34V160.396H405.02V138.34H403.148ZM427.1 138.844V157.42H428.996V138.844H427.1ZM418.676 144.076V160.132H420.5V144.076H418.676ZM435.86 144.052V160.036H437.708V144.052H435.86ZM419.564 156.34V158.188H436.676V156.34H419.564ZM441.596 140.764V142.468H462.74V140.764H441.596ZM446.54 150.388V151.852H457.892V150.388H446.54ZM446.036 154.3V155.812H458.324V154.3H446.036ZM451.196 151.084V159.964H452.924V151.084H451.196ZM442.892 144.988V160.396H444.692V146.668H460.244V144.988H442.892ZM459.62 144.988V158.332C459.62 158.716 459.524 158.836 459.092 158.86C458.66 158.884 457.172 158.884 455.66 158.812C455.924 159.268 456.212 159.964 456.308 160.444C458.276 160.444 459.644 160.42 460.412 160.156C461.204 159.892 461.468 159.388 461.468 158.332V144.988H459.62ZM447.74 147.46C448.34 148.348 448.964 149.572 449.204 150.388L450.716 149.836C450.452 149.044 449.828 147.868 449.18 147.004L447.74 147.46ZM455.084 146.98C454.676 148.012 453.932 149.524 453.332 150.508L454.628 150.94C455.252 150.028 455.996 148.684 456.62 147.436L455.084 146.98ZM451.148 138.364V146.116H453.14V138.364H451.148ZM476.876 157.924V159.508H484.796V157.924H476.876ZM478.052 140.812V142.372H484.388V140.812H478.052ZM476.18 151.732V160.372H477.836V153.292H483.884V160.3H485.612V151.732H476.18ZM483.74 140.812V141.124C482.18 146.14 477.932 150.004 473.684 151.636C474.044 151.972 474.524 152.596 474.74 153.004C479.3 151.06 483.692 147.124 485.54 141.22L484.388 140.74L484.052 140.812H483.74ZM478.46 138.34C477.548 141.292 475.892 144.1 473.924 145.9C474.356 146.164 475.052 146.74 475.34 147.052C477.332 145.06 479.108 142.012 480.188 138.748L478.46 138.34ZM477.98 141.796L476.804 142.78C478.268 146.236 481.436 150.58 486.38 152.716C486.62 152.26 487.124 151.564 487.508 151.228C482.588 149.356 479.372 145.228 477.98 141.796ZM466.292 148.996V157.708H467.804V148.996H466.292ZM467.9 140.932H472.412V145.156H467.9V140.932ZM466.292 139.348V146.74H474.092V139.348H466.292ZM469.676 145.948V156.916H471.308V145.948H469.676ZM465.044 157.516L465.38 159.268C467.9 158.644 471.356 157.804 474.644 156.988L474.476 155.38C471.02 156.196 467.42 157.036 465.044 157.516ZM470.252 150.22V151.828H474.308V150.22H470.252ZM492.668 144.94L489.116 147.508V144.676L493.148 141.724H495.692V158.5H492.668V144.94ZM501.645 144.94L498.093 147.508V144.676L502.125 141.724H504.669V158.5H501.645V144.94ZM509.805 140.764H513.381V144.412H509.805V140.764ZM508.173 139.252V145.948H515.085V139.252H508.173ZM507.069 147.628V149.212H516.117V147.628H507.069ZM509.325 148.348C508.965 150.172 508.413 152.572 507.933 154.108L509.565 154.42C509.997 152.836 510.573 150.34 510.981 148.348H509.325ZM509.517 151.348L509.109 152.884H513.981V151.348H509.517ZM513.309 151.348V151.636C513.021 156.364 512.661 158.212 512.181 158.692C511.989 158.908 511.749 158.956 511.389 158.932C511.005 158.932 510.069 158.932 509.037 158.836C509.325 159.268 509.517 159.964 509.541 160.42C510.549 160.468 511.533 160.468 512.061 160.444C512.709 160.372 513.117 160.228 513.525 159.796C514.197 159.076 514.557 157.108 514.941 152.092C514.965 151.828 514.989 151.348 514.989 151.348H513.309ZM522.357 139.996V141.484H528.093V139.996H522.357ZM517.533 143.116V144.58H528.117V143.116H517.533ZM521.493 138.34V143.884H523.221V138.34H521.493ZM516.765 143.116V149.26C516.765 152.356 516.549 156.532 514.461 159.58C514.869 159.748 515.541 160.252 515.829 160.564C518.061 157.372 518.397 152.62 518.397 149.26V143.116H516.765ZM518.973 147.076L519.141 148.396L526.245 147.628L526.077 146.38L518.973 147.076ZM521.589 144.748V149.044C521.589 150.58 522.021 150.964 523.749 150.964C524.109 150.964 526.029 150.964 526.389 150.964C527.685 150.964 528.141 150.484 528.285 148.636C527.853 148.54 527.229 148.324 526.893 148.108C526.821 149.452 526.725 149.62 526.197 149.62C525.789 149.62 524.253 149.62 523.965 149.62C523.293 149.62 523.197 149.548 523.197 149.044V144.748H521.589ZM527.613 143.116V143.356C527.469 144.628 527.181 146.26 526.941 147.268L528.333 147.604C528.621 146.524 529.005 144.796 529.293 143.332L528.165 143.044L527.877 143.116H527.613ZM520.341 152.02C520.197 155.548 519.669 157.876 517.053 159.22C517.413 159.508 517.893 160.108 518.109 160.516C521.037 158.908 521.733 156.1 521.901 152.02H520.341ZM523.869 151.996V157.876C523.869 158.98 523.965 159.34 524.349 159.676C524.709 159.964 525.261 160.06 525.789 160.06C526.053 160.06 526.845 160.06 527.157 160.06C527.613 160.06 528.141 159.964 528.429 159.82C528.789 159.604 529.053 159.34 529.197 158.884C529.317 158.476 529.437 157.276 529.461 156.148C529.005 156.004 528.405 155.692 528.093 155.404C528.093 156.484 528.069 157.42 527.997 157.804C527.949 158.068 527.829 158.236 527.685 158.308C527.565 158.38 527.253 158.428 527.037 158.428C526.749 158.428 526.365 158.428 526.173 158.428C525.933 158.428 525.741 158.38 525.597 158.308C525.477 158.26 525.429 158.092 525.429 157.924V151.996H523.869ZM537.453 158.86C535.501 158.86 533.949 158.428 532.797 157.564C531.645 156.684 531.069 155.444 531.069 153.844C531.069 152.804 531.325 151.932 531.837 151.228C532.365 150.524 533.061 150.036 533.925 149.764C533.205 149.412 532.645 148.916 532.245 148.276C531.845 147.62 531.645 146.876 531.645 146.044C531.645 144.588 532.173 143.444 533.229 142.612C534.285 141.78 535.693 141.364 537.453 141.364C539.229 141.364 540.637 141.78 541.677 142.612C542.733 143.444 543.261 144.588 543.261 146.044C543.261 146.876 543.061 147.62 542.661 148.276C542.261 148.916 541.701 149.412 540.981 149.764C541.845 150.036 542.533 150.524 543.045 151.228C543.573 151.932 543.837 152.804 543.837 153.844C543.837 155.444 543.261 156.684 542.109 157.564C540.973 158.428 539.421 158.86 537.453 158.86ZM537.453 148.9C538.349 148.9 539.069 148.668 539.613 148.204C540.157 147.724 540.429 147.084 540.429 146.284C540.429 145.484 540.149 144.836 539.589 144.34C539.045 143.844 538.333 143.596 537.453 143.596C536.573 143.596 535.861 143.844 535.317 144.34C534.773 144.836 534.501 145.484 534.501 146.284C534.501 147.084 534.773 147.724 535.317 148.204C535.861 148.668 536.573 148.9 537.453 148.9ZM537.453 156.676C538.493 156.676 539.317 156.412 539.925 155.884C540.533 155.34 540.837 154.596 540.837 153.652C540.837 152.74 540.525 152.02 539.901 151.492C539.277 150.964 538.461 150.7 537.453 150.7C536.445 150.7 535.629 150.964 535.005 151.492C534.381 152.02 534.069 152.74 534.069 153.652C534.069 154.596 534.373 155.34 534.981 155.884C535.605 156.412 536.429 156.676 537.453 156.676ZM553.325 152.908V154.372H567.941V152.908H553.325ZM559.829 138.34V151.012H561.509V138.34H559.829ZM556.733 141.244H564.725V145.108H556.733V141.244ZM555.149 140.02V146.308H566.357V140.02H555.149ZM556.253 148.756H565.133V150.268H556.253V148.756ZM554.645 147.532V151.468H566.813V147.532H554.645ZM558.605 150.988C557.573 152.908 556.061 155.404 554.981 156.964L556.517 157.468C557.597 155.86 559.109 153.364 560.189 151.372L558.605 150.988ZM563.477 153.652C562.733 157.012 560.549 158.5 553.085 159.124C553.373 159.484 553.709 160.108 553.805 160.492C561.725 159.7 564.245 157.804 565.157 153.652H563.477ZM556.085 156.916C559.661 157.78 564.245 159.316 566.573 160.492L567.605 159.22C565.133 158.02 560.549 156.556 557.069 155.812L556.085 156.916ZM553.517 142.42V143.86H556.037V143.74H565.493V143.86H567.989V142.42H565.493V142.54H556.037V142.42H553.517ZM546.029 143.548V145.252H553.541V143.548H546.029ZM549.245 138.34V160.396H550.901V138.34H549.245ZM549.221 144.556C548.597 147.988 547.061 152.14 545.525 154.324C545.813 154.732 546.245 155.404 546.461 155.884C548.117 153.484 549.629 148.732 550.325 144.94L549.221 144.556ZM550.757 146.908L550.013 147.628C550.589 148.564 552.221 151.396 552.725 152.572L553.685 151.252C553.253 150.58 551.285 147.556 550.757 146.908ZM569.285 162.676C571.717 159.556 572.933 156.004 572.933 152.02C572.933 148.036 571.717 144.484 569.285 141.364H572.405C574.805 144.308 576.005 147.86 576.005 152.02C576.005 156.18 574.805 159.732 572.405 162.676H569.285Z" fill="white"/>
</svg>
