<svg width="584" height="165" viewBox="0 0 584 165" fill="none" xmlns="http://www.w3.org/2000/svg">
<g filter="url(#filter0_d_664_592)">
<path d="M64.4711 46H31.2401L6 63.8325V122H549.884L578 102.916V46H282" stroke="white" stroke-width="7.62667"/>
<line x1="285.813" y1="46" x2="285.813" y2="122" stroke="white" stroke-width="7.62667"/>
<path d="M97.1814 30.4473V19.9533H115.463V68.1333H103.715V30.4473H97.1814ZM121.996 30.4473V19.9533H140.278V68.1333H128.53V30.4473H121.996ZM174.266 5.4333L156.578 80.4753H145.688L163.376 5.4333H174.266ZM177.509 59.0913C179.005 57.9033 179.687 57.3533 179.555 57.4413C183.867 53.8773 187.255 50.9513 189.719 48.6633C192.227 46.3753 194.339 43.9773 196.055 41.4693C197.771 38.9613 198.629 36.5193 198.629 34.1433C198.629 32.3393 198.211 30.9313 197.375 29.9193C196.539 28.9073 195.285 28.4013 193.613 28.4013C191.941 28.4013 190.621 29.0393 189.653 30.3153C188.729 31.5473 188.267 33.3073 188.267 35.5953H177.377C177.465 31.8553 178.257 28.7313 179.753 26.2233C181.293 23.7153 183.295 21.8673 185.759 20.6793C188.267 19.4913 191.039 18.8973 194.075 18.8973C199.311 18.8973 203.249 20.2393 205.889 22.9233C208.573 25.6073 209.915 29.1053 209.915 33.4173C209.915 38.1253 208.309 42.5033 205.097 46.5513C201.885 50.5553 197.793 54.4713 192.821 58.2993H210.641V67.4733H177.509V59.0913ZM216.006 33.5493C216.182 28.8413 217.722 25.2113 220.626 22.6593C223.53 20.1073 227.468 18.8313 232.44 18.8313C235.74 18.8313 238.556 19.4033 240.888 20.5473C243.264 21.6913 245.046 23.2533 246.234 25.2333C247.466 27.2133 248.082 29.4353 248.082 31.8993C248.082 34.8033 247.356 37.1793 245.904 39.0273C244.452 40.8313 242.758 42.0633 240.822 42.7233V42.9873C243.33 43.8233 245.31 45.2093 246.762 47.1453C248.214 49.0813 248.94 51.5673 248.94 54.6033C248.94 57.3313 248.302 59.7513 247.026 61.8633C245.794 63.9313 243.968 65.5593 241.548 66.7473C239.172 67.9353 236.334 68.5293 233.034 68.5293C227.754 68.5293 223.53 67.2313 220.362 64.6353C217.238 62.0393 215.588 58.1233 215.412 52.8873H226.368C226.412 54.8233 226.962 56.3633 228.018 57.5073C229.074 58.6073 230.614 59.1573 232.638 59.1573C234.354 59.1573 235.674 58.6733 236.598 57.7053C237.566 56.6933 238.05 55.3733 238.05 53.7453C238.05 51.6333 237.368 50.1153 236.004 49.1913C234.684 48.2233 232.55 47.7393 229.602 47.7393H227.49V38.5653H229.602C231.846 38.5653 233.65 38.1913 235.014 37.4433C236.422 36.6513 237.126 35.2653 237.126 33.2853C237.126 31.7013 236.686 30.4693 235.806 29.5893C234.926 28.7093 233.716 28.2693 232.176 28.2693C230.504 28.2693 229.25 28.7753 228.414 29.7873C227.622 30.7993 227.16 32.0533 227.028 33.5493H216.006Z" fill="#FFE500"/>
<path d="M219.4 83.15L213.22 104H209.35L204.97 88.22L200.32 104L196.48 104.03L190.57 83.15H194.2L198.52 100.13L203.2 83.15H207.04L211.39 100.04L215.74 83.15H219.4ZM237.371 95.33C237.371 95.95 237.331 96.51 237.251 97.01H224.621C224.721 98.33 225.211 99.39 226.091 100.19C226.971 100.99 228.051 101.39 229.331 101.39C231.171 101.39 232.471 100.62 233.231 99.08H236.921C236.421 100.6 235.511 101.85 234.191 102.83C232.891 103.79 231.271 104.27 229.331 104.27C227.751 104.27 226.331 103.92 225.071 103.22C223.831 102.5 222.851 101.5 222.131 100.22C221.431 98.92 221.081 97.42 221.081 95.72C221.081 94.02 221.421 92.53 222.101 91.25C222.801 89.95 223.771 88.95 225.011 88.25C226.271 87.55 227.711 87.2 229.331 87.2C230.891 87.2 232.281 87.54 233.501 88.22C234.721 88.9 235.671 89.86 236.351 91.1C237.031 92.32 237.371 93.73 237.371 95.33ZM233.801 94.25C233.781 92.99 233.331 91.98 232.451 91.22C231.571 90.46 230.481 90.08 229.181 90.08C228.001 90.08 226.991 90.46 226.151 91.22C225.311 91.96 224.811 92.97 224.651 94.25H233.801ZM239.596 95.66C239.596 94 239.936 92.53 240.616 91.25C241.316 89.97 242.256 88.98 243.436 88.28C244.636 87.56 245.966 87.2 247.426 87.2C248.506 87.2 249.566 87.44 250.606 87.92C251.666 88.38 252.506 89 253.126 89.78V81.8H256.576V104H253.126V101.51C252.566 102.31 251.786 102.97 250.786 103.49C249.806 104.01 248.676 104.27 247.396 104.27C245.956 104.27 244.636 103.91 243.436 103.19C242.256 102.45 241.316 101.43 240.616 100.13C239.936 98.81 239.596 97.32 239.596 95.66ZM253.126 95.72C253.126 94.58 252.886 93.59 252.406 92.75C251.946 91.91 251.336 91.27 250.576 90.83C249.816 90.39 248.996 90.17 248.116 90.17C247.236 90.17 246.416 90.39 245.656 90.83C244.896 91.25 244.276 91.88 243.796 92.72C243.336 93.54 243.106 94.52 243.106 95.66C243.106 96.8 243.336 97.8 243.796 98.66C244.276 99.52 244.896 100.18 245.656 100.64C246.436 101.08 247.256 101.3 248.116 101.3C248.996 101.3 249.816 101.08 250.576 100.64C251.336 100.2 251.946 99.56 252.406 98.72C252.886 97.86 253.126 96.86 253.126 95.72ZM262.448 104.21C261.828 104.21 261.308 104 260.888 103.58C260.468 103.16 260.258 102.64 260.258 102.02C260.258 101.4 260.468 100.88 260.888 100.46C261.308 100.04 261.828 99.83 262.448 99.83C263.048 99.83 263.558 100.04 263.978 100.46C264.398 100.88 264.608 101.4 264.608 102.02C264.608 102.64 264.398 103.16 263.978 103.58C263.558 104 263.048 104.21 262.448 104.21Z" fill="white"/>
<path d="M320.44 61.304V63.032H332.224V61.304H320.44ZM327.448 68.456V79.592C327.448 80 327.304 80.096 326.824 80.12C326.392 80.144 324.784 80.144 323.08 80.096C323.344 80.624 323.584 81.368 323.656 81.872C326.008 81.872 327.376 81.848 328.192 81.584C329.008 81.296 329.272 80.744 329.272 79.616V68.456H327.448ZM319.384 67.928V69.632H332.92V67.928H319.384ZM314.584 69.776V81.992H316.384V68.312L316.168 68.216L314.584 69.776ZM317.368 64.976C315.712 67.736 313.072 70.52 310.576 72.296C310.96 72.632 311.584 73.424 311.848 73.784C314.368 71.768 317.2 68.672 319.072 65.624L317.368 64.976ZM316.384 59.84C315.16 61.568 312.832 63.728 310.84 65.072C311.152 65.432 311.632 66.128 311.896 66.512C314.032 64.976 316.504 62.648 318.112 60.536L316.384 59.84ZM335.2 61.544V63.272H346.24V61.544H335.2ZM341.128 68.552V70.28H345.352V68.552H341.128ZM340.312 62.48V77.648H342.064V62.48H340.312ZM336.232 66.92V78.32H337.864V66.92H336.232ZM334.792 77.912L335.128 79.712C338.128 79.04 342.376 78.056 346.384 77.096L346.216 75.44C342.04 76.376 337.6 77.384 334.792 77.912ZM347.872 64.328V66.008H357.016V64.328H347.872ZM348.688 59.84C347.944 63.944 346.624 67.904 344.632 70.4C345.064 70.664 345.784 71.264 346.096 71.6C348.112 68.84 349.6 64.64 350.488 60.152L348.688 59.84ZM353.68 65.192C352.648 72.8 350.296 77.672 344.632 80.408C344.968 80.792 345.52 81.56 345.688 81.992C351.688 78.824 354.256 73.664 355.48 65.384L353.68 65.192ZM348.64 65.864L347.056 66.152C348.376 73.496 350.896 79.256 355.984 81.944C356.272 81.464 356.824 80.768 357.232 80.408C352.36 78.128 349.816 72.56 348.64 65.864ZM372.688 59.912V63.488H374.44V59.912H372.688ZM366.928 62.624V67.016H368.536V64.208H379V66.992H380.68V62.624H366.928ZM368.824 66.872V68.456H378.736V66.872H368.824ZM367.192 71.192V72.824H380.752V71.192H367.192ZM370.408 71.912C370.216 76.4 369.544 79.112 365.272 80.552C365.632 80.888 366.112 81.536 366.28 81.944C371.008 80.24 371.872 77.048 372.16 71.912H370.408ZM374.848 71.768V79.304C374.848 81.08 375.256 81.608 376.888 81.608C377.224 81.608 378.616 81.608 378.976 81.608C380.392 81.608 380.824 80.792 380.992 77.672C380.512 77.576 379.792 77.288 379.456 76.976C379.408 79.592 379.312 79.976 378.784 79.976C378.496 79.976 377.368 79.976 377.152 79.976C376.648 79.976 376.552 79.88 376.552 79.28V71.768H374.848ZM359.92 60.896V81.944H361.552V62.528H365.584V60.896H359.92ZM365.032 60.896V61.376C364.528 63.032 363.64 65.888 362.776 68.072C364.504 69.944 364.936 71.576 364.936 72.872C364.936 73.592 364.816 74.24 364.432 74.504C364.24 74.648 363.976 74.72 363.688 74.72C363.304 74.768 362.848 74.744 362.296 74.696C362.56 75.152 362.704 75.848 362.728 76.28C363.28 76.304 363.88 76.304 364.36 76.256C364.84 76.184 365.272 76.04 365.608 75.824C366.28 75.344 366.544 74.336 366.544 73.04C366.544 71.552 366.16 69.872 364.384 67.88C365.2 65.96 366.088 63.488 366.784 61.52L365.632 60.824L365.344 60.896H365.032ZM383.44 62.264V63.968H404.584V62.264H383.44ZM388.384 71.888V73.352H399.736V71.888H388.384ZM387.88 75.8V77.312H400.168V75.8H387.88ZM393.04 72.584V81.464H394.768V72.584H393.04ZM384.736 66.488V81.896H386.536V68.168H402.088V66.488H384.736ZM401.464 66.488V79.832C401.464 80.216 401.368 80.336 400.936 80.36C400.504 80.384 399.016 80.384 397.504 80.312C397.768 80.768 398.056 81.464 398.152 81.944C400.12 81.944 401.488 81.92 402.256 81.656C403.048 81.392 403.312 80.888 403.312 79.832V66.488H401.464ZM389.584 68.96C390.184 69.848 390.808 71.072 391.048 71.888L392.56 71.336C392.296 70.544 391.672 69.368 391.024 68.504L389.584 68.96ZM396.928 68.48C396.52 69.512 395.776 71.024 395.176 72.008L396.472 72.44C397.096 71.528 397.84 70.184 398.464 68.936L396.928 68.48ZM392.992 59.864V67.616H394.984V59.864H392.992ZM420.4 61.28V81.944H422.152V62.984H427.6V61.28H420.4ZM407.608 62.504V64.112H419.08V62.504H407.608ZM406.984 69.152V70.808H419.392V69.152H406.984ZM412.432 59.936V63.488H414.184V59.936H412.432ZM409.096 64.952C409.6 66.176 410.008 67.808 410.128 68.864L411.736 68.48C411.592 67.424 411.136 65.816 410.608 64.616L409.096 64.952ZM415.984 64.448C415.696 65.672 415.12 67.448 414.64 68.552L416.08 68.936C416.608 67.88 417.184 66.272 417.712 64.856L415.984 64.448ZM409.24 78.944V80.552H417.136V78.944H409.24ZM408.592 72.896V81.944H410.272V74.504H416.32V81.824H418.048V72.896H408.592ZM427.12 61.28V61.856C426.4 63.752 425.104 67.064 423.88 69.536C426.304 71.648 427 73.448 427.024 74.96C427.024 75.848 426.856 76.544 426.328 76.856C426.04 77.024 425.704 77.12 425.296 77.144C424.816 77.168 424.12 77.144 423.424 77.096C423.736 77.6 423.904 78.368 423.928 78.872C424.624 78.896 425.416 78.92 426.016 78.848C426.64 78.752 427.168 78.584 427.6 78.32C428.44 77.744 428.776 76.616 428.776 75.152C428.752 73.424 428.176 71.528 425.752 69.296C426.856 67.088 428.104 64.304 429.088 62.048L427.768 61.208L427.48 61.28H427.12ZM433.312 60.728V62.408H438.88V60.728H433.312ZM433.312 66.344V68.024H438.928V66.344H433.312ZM442.672 68.96V70.64H451.384V68.96H442.672ZM433.264 72.104V73.808H438.88V72.104H433.264ZM432.568 60.728V69.368C432.568 72.896 432.448 77.72 430.792 81.104C431.224 81.272 431.944 81.68 432.28 81.968C433.984 78.416 434.224 73.112 434.224 69.368V60.728H432.568ZM437.872 60.728V79.76C437.872 80.096 437.752 80.192 437.416 80.216C437.128 80.24 436.12 80.24 434.992 80.216C435.232 80.672 435.448 81.488 435.52 81.92C437.152 81.944 438.112 81.896 438.736 81.608C439.336 81.296 439.552 80.744 439.552 79.784V60.728H437.872ZM450.136 60.8V65.432C450.136 65.72 450.04 65.816 449.656 65.816C449.272 65.84 448 65.84 446.56 65.816C446.776 66.248 447.04 66.848 447.136 67.352C448.96 67.352 450.16 67.352 450.904 67.088C451.672 66.824 451.864 66.344 451.864 65.456V60.8H450.136ZM450.904 68.96V69.296C449.872 74.552 446.896 78.656 443.488 80.456C443.848 80.768 444.328 81.392 444.544 81.8C448.288 79.568 451.36 75.416 452.56 69.272L451.504 68.912L451.216 68.96H450.904ZM445.36 69.992L443.92 70.376C445.432 75.488 448.216 79.832 452.104 81.944C452.368 81.536 452.872 80.912 453.28 80.576C449.512 78.752 446.728 74.648 445.36 69.992ZM441.664 60.8V81.92H443.368V62.48H450.616V60.8H441.664ZM455.368 61.04V62.6H463.552V61.04H455.368ZM464.632 73.304V74.864H475.048V73.304H464.632ZM455.104 68.288V69.896H464.128V68.288H455.104ZM459.304 68.936V79.832C459.304 80.096 459.208 80.168 458.944 80.192C458.656 80.192 457.696 80.192 456.664 80.168C456.904 80.648 457.144 81.392 457.192 81.848C458.68 81.848 459.616 81.824 460.216 81.56C460.864 81.248 461.032 80.768 461.032 79.832V68.936H459.304ZM474.424 73.304V73.592C474.064 77.792 473.632 79.472 473.128 79.952C472.912 80.168 472.696 80.192 472.312 80.192C471.928 80.192 470.968 80.168 469.936 80.072C470.2 80.552 470.368 81.272 470.416 81.752C471.496 81.824 472.552 81.824 473.104 81.776C473.752 81.728 474.184 81.584 474.616 81.152C475.312 80.432 475.744 78.608 476.2 74.096C476.248 73.832 476.272 73.304 476.272 73.304H474.424ZM469.12 70.928C468.712 75.08 467.776 78.704 462.784 80.552C463.168 80.864 463.648 81.512 463.864 81.944C469.288 79.832 470.464 75.776 470.92 70.928H469.12ZM456.208 65.048C458.248 65.96 460.696 67.472 461.896 68.576L463.096 67.256C461.848 66.152 459.352 64.736 457.336 63.896L456.208 65.048ZM463.648 68.288V68.6C463.264 70.328 462.664 72.464 462.04 73.784L463.312 74.408C464.056 72.92 464.776 70.616 465.28 68.6L464.176 68.216L463.912 68.288H463.648ZM473.272 63.104C471.976 66.824 468.616 68.96 464.248 70.064C464.608 70.448 465.16 71.192 465.376 71.576C469.912 70.16 473.512 67.76 475.12 63.416L473.272 63.104ZM468.136 59.84C467.176 62.144 465.424 64.328 463.528 65.744C463.984 65.984 464.704 66.488 465.016 66.8C466.864 65.264 468.712 62.864 469.84 60.296L468.136 59.84ZM467.704 63.608L466.216 64.112C468.136 67.808 471.736 70.496 476.128 71.672C476.368 71.192 476.896 70.496 477.28 70.136C473.008 69.2 469.432 66.8 467.704 63.608ZM459.088 68.816C458.296 71.576 456.592 74.72 454.864 76.352C455.176 76.784 455.608 77.528 455.8 78.032C457.672 76.16 459.4 72.44 460.312 69.272L459.088 68.816ZM467.608 62.384L466.864 63.92H476.776V62.384H467.608ZM463.12 61.04V61.376C462.328 62.672 460.648 64.424 459.112 65.432C459.472 65.648 460.024 66.032 460.336 66.32C461.992 65.216 463.864 63.392 464.968 61.712L463.792 60.968L463.504 61.04H463.12ZM480.304 64.136V75.56H482.104V65.912H497.776V75.44H499.648V64.136H480.304ZM481.264 72.296V74.048H498.856V72.296H481.264ZM488.992 59.84V81.896H490.864V59.84H488.992ZM509.296 66.56V78.608C509.296 80.96 510.04 81.608 512.584 81.608C513.136 81.608 516.712 81.608 517.288 81.608C519.904 81.608 520.456 80.264 520.72 75.728C520.192 75.608 519.448 75.272 519.016 74.912C518.824 79.064 518.608 79.952 517.192 79.952C516.376 79.952 513.352 79.952 512.752 79.952C511.432 79.952 511.144 79.736 511.144 78.608V66.56H509.296ZM509.488 61.328C512.392 62.36 515.896 64.16 517.744 65.552L518.896 63.968C517 62.672 513.52 60.944 510.616 59.96L509.488 61.328ZM505.288 68.48C504.952 71.6 504.16 75.104 502.552 77.216L504.184 78.2C505.912 75.896 506.656 72.056 507.016 68.84L505.288 68.48ZM519.28 68.504C521.32 71.216 523.12 74.96 523.648 77.48L525.448 76.616C524.848 74.072 523.048 70.448 520.888 67.712L519.28 68.504ZM314.512 94.44L310.96 97.008V94.176L314.992 91.224H317.536V108H314.512V94.44ZM327.161 108.36C325.689 108.36 324.409 108.008 323.321 107.304C322.233 106.6 321.393 105.592 320.801 104.28C320.225 102.968 319.937 101.416 319.937 99.624C319.937 97.832 320.225 96.28 320.801 94.968C321.377 93.64 322.201 92.624 323.273 91.92C324.361 91.216 325.657 90.864 327.161 90.864C328.649 90.864 329.937 91.216 331.025 91.92C332.113 92.624 332.945 93.64 333.521 94.968C334.097 96.28 334.385 97.832 334.385 99.624C334.385 101.416 334.097 102.968 333.521 104.28C332.945 105.592 332.113 106.6 331.025 107.304C329.937 108.008 328.649 108.36 327.161 108.36ZM327.161 105.624C328.489 105.624 329.513 105.096 330.233 104.04C330.969 102.968 331.337 101.504 331.337 99.648C331.337 97.792 330.977 96.328 330.257 95.256C329.537 94.184 328.513 93.648 327.185 93.648C325.857 93.648 324.825 94.184 324.089 95.256C323.369 96.328 323.009 97.792 323.009 99.648C323.009 101.504 323.369 102.968 324.089 104.04C324.825 105.096 325.849 105.624 327.161 105.624ZM343.856 102.408V103.872H358.472V102.408H343.856ZM350.36 87.84V100.512H352.04V87.84H350.36ZM347.264 90.744H355.256V94.608H347.264V90.744ZM345.68 89.52V95.808H356.888V89.52H345.68ZM346.784 98.256H355.664V99.768H346.784V98.256ZM345.176 97.032V100.968H357.344V97.032H345.176ZM349.136 100.488C348.104 102.408 346.592 104.904 345.512 106.464L347.048 106.968C348.128 105.36 349.64 102.864 350.72 100.872L349.136 100.488ZM354.008 103.152C353.264 106.512 351.08 108 343.616 108.624C343.904 108.984 344.24 109.608 344.336 109.992C352.256 109.2 354.776 107.304 355.688 103.152H354.008ZM346.616 106.416C350.192 107.28 354.776 108.816 357.104 109.992L358.136 108.72C355.664 107.52 351.08 106.056 347.6 105.312L346.616 106.416ZM344.048 91.92V93.36H346.568V93.24H356.024V93.36H358.52V91.92H356.024V92.04H346.568V91.92H344.048ZM336.56 93.048V94.752H344.072V93.048H336.56ZM339.776 87.84V109.896H341.432V87.84H339.776ZM339.752 94.056C339.128 97.488 337.592 101.64 336.056 103.824C336.344 104.232 336.776 104.904 336.992 105.384C338.648 102.984 340.16 98.232 340.856 94.44L339.752 94.056ZM341.288 96.408L340.544 97.128C341.12 98.064 342.752 100.896 343.256 102.072L344.216 100.752C343.784 100.08 341.816 97.056 341.288 96.408ZM364.784 96.048H377.96V99.672H364.784V96.048ZM363.248 94.824V100.896H379.592V94.824H363.248ZM367.184 92.232V93.504H375.56V92.232H367.184ZM370.472 95.208V100.224H372.008V95.208H370.472ZM371.216 89.304C373.664 91.656 377.984 94.032 381.512 95.256C381.776 94.8 382.184 94.152 382.568 93.768C378.848 92.664 374.672 90.456 371.96 87.84H370.256C368.264 90.168 364.208 92.616 360.128 94.008C360.464 94.392 360.872 95.016 361.088 95.424C365.072 93.936 369.08 91.488 371.216 89.304ZM366.248 96.768C366.848 97.632 367.4 98.808 367.592 99.576L368.984 99.072C368.744 98.304 368.168 97.176 367.544 96.336L366.248 96.768ZM374.888 96.24C374.6 97.056 373.976 98.328 373.52 99.144L374.792 99.576C375.272 98.856 375.872 97.752 376.424 96.72L374.888 96.24ZM364.664 102.048V109.92H366.44V103.32H376.4V109.896H378.224V102.048H364.664ZM365.72 104.928V106.248H377.192V104.928H365.72ZM365.72 107.88V109.176H377.192V107.88H365.72ZM398.24 90.6V96.6H399.992V90.6H398.24ZM395.36 99V108.24C395.36 108.504 395.288 108.576 395 108.6C394.712 108.6 393.776 108.6 392.768 108.576C392.96 108.984 393.2 109.56 393.272 109.944C394.664 109.944 395.6 109.92 396.2 109.704C396.776 109.488 396.944 109.08 396.944 108.264V99H395.36ZM402.344 87.816C402.056 88.488 401.456 89.544 401 90.216L402.248 90.672C402.752 90.048 403.376 89.208 403.928 88.296L402.344 87.816ZM394.592 88.344C395.192 89.088 395.792 90.072 396.056 90.744L397.424 90.168C397.16 89.496 396.488 88.512 395.888 87.84L394.592 88.344ZM402.296 98.784C403.256 99.432 404.384 100.416 404.888 101.16L405.992 100.248C405.464 99.552 404.336 98.592 403.352 97.968L402.296 98.784ZM391.88 105.096L392.096 106.56C394.208 106.248 396.92 105.84 399.584 105.432L399.536 104.088C396.704 104.496 393.848 104.856 391.88 105.096ZM398.288 97.824C396.92 98.328 394.424 98.736 392.312 98.976C392.48 99.312 392.672 99.816 392.744 100.128C394.928 99.912 397.568 99.504 399.368 98.928L398.288 97.824ZM392.84 90.216V91.536H405.656V90.216H392.84ZM393.632 93.096V94.344H405.008V93.096H393.632ZM391.976 96.024V97.392H406.16V96.024H391.976ZM391.952 101.448V102.84H406.208V101.448H391.952ZM399.824 97.968C400.064 105.528 401.528 110.112 404.48 110.112C405.68 110.112 406.256 109.416 406.52 107.232C406.16 107.088 405.68 106.872 405.368 106.56C405.248 108.12 405.032 108.648 404.624 108.648C402.944 108.672 401.48 105.048 401.384 97.968H399.824ZM403.832 103.368C402.608 105.696 400.16 107.616 397.664 108.696C397.976 108.96 398.384 109.392 398.576 109.68C401.168 108.504 403.76 106.44 405.152 103.992L403.832 103.368ZM385.232 95.112V96.552H391.4V95.112H385.232ZM385.376 88.704V90.144H391.328V88.704H385.376ZM385.232 98.328V99.768H391.4V98.328H385.232ZM384.248 91.848V93.336H392V91.848H384.248ZM386.072 101.568V103.056H389.864V107.064H386.072V108.552H391.376V101.568H386.072ZM385.184 101.568V109.68H386.672V101.568H385.184ZM418.352 100.104V108.24H420.2V100.104H418.352ZM411.464 93.744V95.328H427.352V93.744H411.464ZM408.728 107.64V109.248H430.016V107.64H408.728ZM410.936 103.032V104.616H427.904V103.032H410.936ZM416.264 94.584C415.592 96.048 414.368 98.184 413.408 99.504L414.848 100.008C415.856 98.76 417.128 96.792 418.112 95.112L416.264 94.584ZM410.504 98.88L410.6 100.536C414.632 100.44 420.776 100.248 426.584 100.008L426.68 98.472C420.752 98.64 414.464 98.832 410.504 98.88ZM422.096 96.768C424.112 98.112 426.512 100.128 427.616 101.52L429.008 100.488C427.856 99.096 425.408 97.152 423.392 95.856L422.096 96.768ZM418.352 87.864V90.792H420.2V87.864H418.352ZM409.016 89.664V94.104H410.768V91.32H427.88V94.104H429.704V89.664H409.016Z" fill="white"/>
<path d="M23.512 91.44L19.96 94.008V91.176L23.992 88.224H26.536V105H23.512V91.44ZM34.1926 105.36C33.2006 105.36 32.2406 105.28 31.3126 105.12C30.4006 104.96 29.6086 104.72 28.9366 104.4V102.072C30.4566 102.76 32.0726 103.104 33.7846 103.104C35.1446 103.104 36.1606 102.864 36.8326 102.384C37.5206 101.888 37.8646 101.184 37.8646 100.272C37.8646 99.328 37.5286 98.664 36.8566 98.28C36.2006 97.88 35.1766 97.68 33.7846 97.68H31.6966V95.328H33.7126C34.8326 95.328 35.7206 95.12 36.3766 94.704C37.0326 94.272 37.3606 93.624 37.3606 92.76C37.3606 91.896 37.0646 91.24 36.4726 90.792C35.8966 90.344 35.0806 90.12 34.0246 90.12C33.1126 90.12 32.2886 90.232 31.5526 90.456C30.8326 90.664 30.0966 91 29.3446 91.464V89.112C30.7846 88.28 32.4806 87.864 34.4326 87.864C36.4166 87.864 37.9126 88.288 38.9206 89.136C39.9286 89.968 40.4326 91.136 40.4326 92.64C40.4326 93.472 40.2086 94.224 39.7606 94.896C39.3286 95.568 38.6806 96.096 37.8166 96.48C38.8406 96.784 39.6166 97.272 40.1446 97.944C40.6726 98.6 40.9366 99.424 40.9366 100.416C40.9366 101.968 40.4006 103.184 39.3286 104.064C38.2566 104.928 36.5446 105.36 34.1926 105.36ZM44.4424 96.456C44.0104 96.456 43.6344 96.304 43.3144 96C43.0104 95.68 42.8584 95.304 42.8584 94.872C42.8584 94.44 43.0104 94.072 43.3144 93.768C43.6344 93.448 44.0104 93.288 44.4424 93.288C44.8744 93.288 45.2424 93.448 45.5464 93.768C45.8664 94.072 46.0264 94.44 46.0264 94.872C46.0264 95.304 45.8664 95.68 45.5464 96C45.2424 96.304 44.8744 96.456 44.4424 96.456ZM44.4424 104.616C44.0104 104.616 43.6344 104.464 43.3144 104.16C43.0104 103.84 42.8584 103.464 42.8584 103.032C42.8584 102.6 43.0104 102.232 43.3144 101.928C43.6344 101.608 44.0104 101.448 44.4424 101.448C44.8744 101.448 45.2424 101.608 45.5464 101.928C45.8664 102.232 46.0264 102.6 46.0264 103.032C46.0264 103.464 45.8664 103.84 45.5464 104.16C45.2424 104.464 44.8744 104.616 44.4424 104.616ZM53.2004 105.36C52.2084 105.36 51.2484 105.28 50.3204 105.12C49.4084 104.96 48.6164 104.72 47.9444 104.4V102.072C49.4644 102.76 51.0804 103.104 52.7924 103.104C54.1524 103.104 55.1684 102.864 55.8404 102.384C56.5284 101.888 56.8724 101.184 56.8724 100.272C56.8724 99.328 56.5364 98.664 55.8644 98.28C55.2084 97.88 54.1844 97.68 52.7924 97.68H50.7044V95.328H52.7204C53.8404 95.328 54.7284 95.12 55.3844 94.704C56.0404 94.272 56.3684 93.624 56.3684 92.76C56.3684 91.896 56.0724 91.24 55.4804 90.792C54.9044 90.344 54.0884 90.12 53.0324 90.12C52.1204 90.12 51.2964 90.232 50.5604 90.456C49.8404 90.664 49.1044 91 48.3524 91.464V89.112C49.7924 88.28 51.4884 87.864 53.4404 87.864C55.4244 87.864 56.9204 88.288 57.9284 89.136C58.9364 89.968 59.4404 91.136 59.4404 92.64C59.4404 93.472 59.2164 94.224 58.7684 94.896C58.3364 95.568 57.6884 96.096 56.8244 96.48C57.8484 96.784 58.6244 97.272 59.1524 97.944C59.6804 98.6 59.9444 99.424 59.9444 100.416C59.9444 101.968 59.4084 103.184 58.3364 104.064C57.2644 104.928 55.5524 105.36 53.2004 105.36ZM69.0903 105.36C67.6183 105.36 66.3383 105.008 65.2503 104.304C64.1623 103.6 63.3223 102.592 62.7303 101.28C62.1543 99.968 61.8663 98.416 61.8663 96.624C61.8663 94.832 62.1543 93.28 62.7303 91.968C63.3063 90.64 64.1303 89.624 65.2023 88.92C66.2903 88.216 67.5863 87.864 69.0903 87.864C70.5783 87.864 71.8663 88.216 72.9543 88.92C74.0423 89.624 74.8743 90.64 75.4503 91.968C76.0263 93.28 76.3143 94.832 76.3143 96.624C76.3143 98.416 76.0263 99.968 75.4503 101.28C74.8743 102.592 74.0423 103.6 72.9543 104.304C71.8663 105.008 70.5783 105.36 69.0903 105.36ZM69.0903 102.624C70.4183 102.624 71.4423 102.096 72.1623 101.04C72.8983 99.968 73.2663 98.504 73.2663 96.648C73.2663 94.792 72.9063 93.328 72.1863 92.256C71.4663 91.184 70.4423 90.648 69.1143 90.648C67.7863 90.648 66.7543 91.184 66.0183 92.256C65.2983 93.328 64.9383 94.792 64.9383 96.648C64.9383 98.504 65.2983 99.968 66.0183 101.04C66.7543 102.096 67.7783 102.624 69.0903 102.624ZM86.5776 98.688C86.1296 98.688 85.6816 98.624 85.2336 98.496C84.8016 98.368 84.2896 98.184 83.6976 97.944C83.0416 97.704 82.5216 97.528 82.1376 97.416C81.7536 97.304 81.3536 97.248 80.9376 97.248C79.8176 97.248 78.9136 97.72 78.2256 98.664V95.952C78.4816 95.568 78.8416 95.272 79.3056 95.064C79.7856 94.856 80.3296 94.752 80.9376 94.752C81.3856 94.752 81.8176 94.816 82.2336 94.944C82.6656 95.056 83.2176 95.24 83.8896 95.496C84.4656 95.72 84.9536 95.896 85.3536 96.024C85.7696 96.136 86.1776 96.192 86.5776 96.192C87.6976 96.192 88.6016 95.72 89.2896 94.776V97.488C89.0336 97.872 88.6656 98.168 88.1856 98.376C87.7216 98.584 87.1856 98.688 86.5776 98.688ZM94.762 91.44L91.21 94.008V91.176L95.242 88.224H97.786V105H94.762V91.44ZM108.467 90.744H99.9466V88.224H111.587V90.336L104.963 105H102.011L108.467 90.744ZM114.849 96.456C114.417 96.456 114.041 96.304 113.721 96C113.417 95.68 113.265 95.304 113.265 94.872C113.265 94.44 113.417 94.072 113.721 93.768C114.041 93.448 114.417 93.288 114.849 93.288C115.281 93.288 115.649 93.448 115.953 93.768C116.273 94.072 116.433 94.44 116.433 94.872C116.433 95.304 116.273 95.68 115.953 96C115.649 96.304 115.281 96.456 114.849 96.456ZM114.849 104.616C114.417 104.616 114.041 104.464 113.721 104.16C113.417 103.84 113.265 103.464 113.265 103.032C113.265 102.6 113.417 102.232 113.721 101.928C114.041 101.608 114.417 101.448 114.849 101.448C115.281 101.448 115.649 101.608 115.953 101.928C116.273 102.232 116.433 102.6 116.433 103.032C116.433 103.464 116.273 103.84 115.953 104.16C115.649 104.464 115.281 104.616 114.849 104.616ZM123.607 105.36C122.615 105.36 121.655 105.28 120.727 105.12C119.815 104.96 119.023 104.72 118.351 104.4V102.072C119.871 102.76 121.487 103.104 123.199 103.104C124.559 103.104 125.575 102.864 126.247 102.384C126.935 101.888 127.279 101.184 127.279 100.272C127.279 99.328 126.943 98.664 126.271 98.28C125.615 97.88 124.591 97.68 123.199 97.68H121.111V95.328H123.127C124.247 95.328 125.135 95.12 125.791 94.704C126.447 94.272 126.775 93.624 126.775 92.76C126.775 91.896 126.479 91.24 125.887 90.792C125.311 90.344 124.495 90.12 123.439 90.12C122.527 90.12 121.703 90.232 120.967 90.456C120.247 90.664 119.511 91 118.759 91.464V89.112C120.199 88.28 121.895 87.864 123.847 87.864C125.831 87.864 127.327 88.288 128.335 89.136C129.343 89.968 129.847 91.136 129.847 92.64C129.847 93.472 129.623 94.224 129.175 94.896C128.743 95.568 128.095 96.096 127.231 96.48C128.255 96.784 129.031 97.272 129.559 97.944C130.087 98.6 130.351 99.424 130.351 100.416C130.351 101.968 129.815 103.184 128.743 104.064C127.671 104.928 125.959 105.36 123.607 105.36ZM139.497 105.36C138.025 105.36 136.745 105.008 135.657 104.304C134.569 103.6 133.729 102.592 133.137 101.28C132.561 99.968 132.273 98.416 132.273 96.624C132.273 94.832 132.561 93.28 133.137 91.968C133.713 90.64 134.537 89.624 135.609 88.92C136.697 88.216 137.993 87.864 139.497 87.864C140.985 87.864 142.273 88.216 143.361 88.92C144.449 89.624 145.281 90.64 145.857 91.968C146.433 93.28 146.721 94.832 146.721 96.624C146.721 98.416 146.433 99.968 145.857 101.28C145.281 102.592 144.449 103.6 143.361 104.304C142.273 105.008 140.985 105.36 139.497 105.36ZM139.497 102.624C140.825 102.624 141.849 102.096 142.569 101.04C143.305 99.968 143.673 98.504 143.673 96.648C143.673 94.792 143.313 93.328 142.593 92.256C141.873 91.184 140.849 90.648 139.521 90.648C138.193 90.648 137.161 91.184 136.425 92.256C135.705 93.328 135.345 94.792 135.345 96.648C135.345 98.504 135.705 99.968 136.425 101.04C137.161 102.096 138.185 102.624 139.497 102.624Z" fill="white"/>
<path d="M258.68 148.88C258.68 153.584 260.576 157.376 263.456 160.304L264.896 159.56C262.112 156.704 260.408 153.176 260.408 148.88C260.408 144.608 262.112 141.08 264.896 138.224L263.456 137.48C260.576 140.408 258.68 144.2 258.68 148.88ZM267.56 140.144V141.704H288.416V140.144H267.56ZM276.944 137.84V140.888H278.792V137.84H276.944ZM268.616 149.528V159.944H270.368V151.064H286.448V149.528H268.616ZM285.704 149.528V157.736C285.704 158.072 285.608 158.192 285.2 158.192C284.792 158.24 283.448 158.24 281.864 158.192C282.128 158.672 282.392 159.392 282.464 159.896C284.456 159.896 285.752 159.872 286.52 159.608C287.288 159.296 287.504 158.768 287.504 157.784V149.528H285.704ZM273.416 152.624V158.912H275.024V152.624H273.416ZM274.28 152.624V153.92H280.952V156.392H274.28V157.688H282.584V152.624H274.28ZM273.272 144.368H282.656V146.696H273.272V144.368ZM271.544 143.048V148.016H284.48V143.048H271.544ZM291.248 141.704V143.408H301.856V141.704H291.248ZM293.672 157.064L294.224 158.672C296.168 158.168 298.688 157.52 301.088 156.848L300.92 155.408C298.208 156.056 295.496 156.704 293.672 157.064ZM298.952 151.952C299.672 154.088 300.392 156.848 300.608 158.648L302.024 158.12C301.808 156.296 301.064 153.56 300.272 151.448L298.952 151.952ZM297.512 145.76C297.056 149.24 296.072 154.304 295.184 157.232L296.48 157.568C297.416 154.688 298.496 149.768 299.168 146.096L297.512 145.76ZM303.248 147.416V148.976H312.464V147.416H303.248ZM303.248 152.24V153.824H312.464V152.24H303.248ZM303.248 157.184V158.84H313.016V157.184H303.248ZM304.352 137.84C303.344 141.344 301.664 144.752 299.648 146.96C300.032 147.272 300.68 147.968 300.944 148.304C303.032 145.856 304.88 142.088 306.032 138.272L304.352 137.84ZM308.984 138.056C308.552 139.616 307.712 141.872 307.04 143.24L308.456 143.696C309.152 142.4 310.016 140.312 310.712 138.56L308.984 138.056ZM304.28 142.496H304.04L302.6 144.032V159.944H304.28V144.128H312.752V142.496H304.28ZM307.472 143.216V158.144H309.152V143.216H307.472ZM294.464 137.84V139.496C294.464 144.752 294.248 152.072 290.504 158.312C290.984 158.48 291.704 158.84 292.064 159.128C295.88 152.624 296.096 144.968 296.096 139.496V137.84H294.464ZM324.968 137.744V142.232H326.864V137.744H324.968ZM324.992 142.808V159.992H326.84V142.808H324.992ZM315.2 141.176V142.928H336.824V141.176H315.2ZM317.672 146.216V156.944H319.472V147.968H333.44V146.216H317.672ZM332.744 146.216V154.664C332.744 155 332.624 155.096 332.192 155.12C331.784 155.144 330.32 155.144 328.688 155.096C328.952 155.6 329.24 156.32 329.312 156.872C331.376 156.872 332.72 156.848 333.56 156.56C334.352 156.248 334.592 155.696 334.592 154.664V146.216H332.744ZM345.032 147.824V149.408H355.184V147.824H345.032ZM340.76 151.496V153.128H357.272V151.496H340.76ZM347.48 152.144V159.968H349.28V152.144H347.48ZM349.952 144.224C352.4 146.696 356.744 149.048 360.344 150.248C360.608 149.744 361.04 149.048 361.424 148.64C357.68 147.584 353.48 145.4 350.768 142.712H348.944C346.904 145.112 342.872 147.536 338.744 148.88C339.104 149.312 339.536 149.984 339.728 150.416C343.76 148.952 347.792 146.504 349.952 144.224ZM356.504 151.496V156.632C356.504 156.944 356.384 157.016 355.976 157.04C355.592 157.064 354.296 157.064 352.712 157.016C352.976 157.496 353.264 158.144 353.36 158.648C355.28 158.648 356.504 158.648 357.296 158.384C358.04 158.096 358.256 157.592 358.256 156.656V151.496H356.504ZM339.464 139.712V141.344H360.584V139.712H339.464ZM344.768 137.864V143.816H346.544V137.864H344.768ZM353.216 137.864V143.816H354.992V137.864H353.216ZM375.008 147.296V148.856H384.296V147.296H375.008ZM363.416 139.208V140.888H373.04V139.208H363.416ZM363.104 146.672V148.376H373.232V146.672H363.104ZM375.008 152.12V153.704H384.296V152.12H375.008ZM375.008 157.016V158.696H384.944V157.016H375.008ZM376.088 137.864C375.2 141.056 373.712 144.248 371.984 146.336C372.392 146.6 373.088 147.248 373.4 147.536C375.152 145.256 376.784 141.776 377.816 138.296L376.088 137.864ZM380.648 138.104C380.264 139.568 379.472 141.776 378.848 143.072L380.336 143.48C381.008 142.232 381.8 140.24 382.448 138.536L380.648 138.104ZM375.92 142.424H375.848L374.24 144.128V159.968H375.92V144.056H384.656V142.424H375.92ZM369.608 139.928V157.736C369.608 158.12 369.512 158.216 369.152 158.24C368.72 158.24 367.448 158.264 366.104 158.216C366.344 158.696 366.608 159.464 366.68 159.944C368.408 159.944 369.632 159.896 370.328 159.608C371.048 159.32 371.312 158.816 371.312 157.736V139.928H369.608ZM379.28 143.168V157.88H380.96V143.168H379.28ZM364.88 139.976V147.584H366.512V139.976H364.88ZM368.888 147.152C367.64 150.608 365.096 154.304 362.6 156.104C362.984 156.488 363.44 157.184 363.656 157.664C366.272 155.48 368.888 151.592 370.232 147.968L368.888 147.152ZM396.368 143.432H401.888V146.192H396.368V143.432ZM394.688 142.136V147.488H403.664V142.136H394.688ZM393.584 150.44H396.776V153.992H393.584V150.44ZM392.048 149.12V155.312H398.36V149.12H392.048ZM401.528 150.44H404.888V153.992H401.528V150.44ZM399.992 149.12V155.312H406.472V149.12H399.992ZM388.232 138.896V159.944H389.984V140.504H408.296V138.896H388.232ZM389.384 157.112V158.768H408.92V157.112H389.384ZM411.2 139.544V141.272H422.24V139.544H411.2ZM417.128 146.552V148.28H421.352V146.552H417.128ZM416.312 140.48V155.648H418.064V140.48H416.312ZM412.232 144.92V156.32H413.864V144.92H412.232ZM410.792 155.912L411.128 157.712C414.128 157.04 418.376 156.056 422.384 155.096L422.216 153.44C418.04 154.376 413.6 155.384 410.792 155.912ZM423.872 142.328V144.008H433.016V142.328H423.872ZM424.688 137.84C423.944 141.944 422.624 145.904 420.632 148.4C421.064 148.664 421.784 149.264 422.096 149.6C424.112 146.84 425.6 142.64 426.488 138.152L424.688 137.84ZM429.68 143.192C428.648 150.8 426.296 155.672 420.632 158.408C420.968 158.792 421.52 159.56 421.688 159.992C427.688 156.824 430.256 151.664 431.48 143.384L429.68 143.192ZM424.64 143.864L423.056 144.152C424.376 151.496 426.896 157.256 431.984 159.944C432.272 159.464 432.824 158.768 433.232 158.408C428.36 156.128 425.816 150.56 424.64 143.864ZM435.44 140.264V141.968H456.584V140.264H435.44ZM440.384 149.888V151.352H451.736V149.888H440.384ZM439.88 153.8V155.312H452.168V153.8H439.88ZM445.04 150.584V159.464H446.768V150.584H445.04ZM436.736 144.488V159.896H438.536V146.168H454.088V144.488H436.736ZM453.464 144.488V157.832C453.464 158.216 453.368 158.336 452.936 158.36C452.504 158.384 451.016 158.384 449.504 158.312C449.768 158.768 450.056 159.464 450.152 159.944C452.12 159.944 453.488 159.92 454.256 159.656C455.048 159.392 455.312 158.888 455.312 157.832V144.488H453.464ZM441.584 146.96C442.184 147.848 442.808 149.072 443.048 149.888L444.56 149.336C444.296 148.544 443.672 147.368 443.024 146.504L441.584 146.96ZM448.928 146.48C448.52 147.512 447.776 149.024 447.176 150.008L448.472 150.44C449.096 149.528 449.84 148.184 450.464 146.936L448.928 146.48ZM444.992 137.864V145.616H446.984V137.864H444.992ZM465.44 140.888V142.424H473.552V140.888H465.44ZM474.632 139.256V140.888H480.704V139.256H474.632ZM474.416 145.712V147.344H481.016V145.712H474.416ZM464.936 145.664V147.248H474.008V145.664H464.936ZM468.632 137.84V146.576H470.336V137.84H468.632ZM465.08 150.728V152.312H473.84V150.728H465.08ZM468.608 147.752V156.896L470.312 156.56V147.752H468.608ZM464.432 156.512L464.624 158.192C467.264 157.856 470.936 157.4 474.464 156.92L474.44 155.336C470.744 155.816 466.952 156.272 464.432 156.512ZM477.008 146.36V157.712C477.008 158.048 476.912 158.12 476.552 158.144C476.168 158.168 475.04 158.168 473.72 158.12C473.96 158.648 474.176 159.44 474.272 159.92C476 159.92 477.152 159.896 477.872 159.608C478.568 159.32 478.76 158.768 478.76 157.736V146.36H477.008ZM463.016 137.864C462.128 139.496 460.376 141.464 458.72 142.688C459.032 143.024 459.488 143.648 459.728 144.032C461.528 142.616 463.496 140.432 464.672 138.464L463.016 137.864ZM461.576 147.416V159.944H463.256V146.048L463.04 145.976L461.576 147.416ZM463.712 142.688C462.488 145.328 460.448 147.896 458.384 149.576C458.72 149.96 459.248 150.8 459.44 151.16C461.648 149.216 463.928 146.216 465.344 143.24L463.712 142.688ZM489.512 158.36C488.264 158.36 487.144 158.072 486.152 157.496C485.16 156.92 484.376 156.08 483.8 154.976C483.24 153.872 482.96 152.552 482.96 151.016C482.96 148.856 483.28 147.016 483.92 145.496C484.576 143.976 485.512 142.824 486.728 142.04C487.96 141.256 489.416 140.864 491.096 140.864C492.072 140.864 492.936 140.976 493.688 141.2V143.648C493.064 143.36 492.28 143.216 491.336 143.216C489.768 143.216 488.528 143.688 487.616 144.632C486.704 145.56 486.16 146.912 485.984 148.688C486.512 148.128 487.16 147.72 487.928 147.464C488.696 147.192 489.536 147.056 490.448 147.056C491.536 147.056 492.488 147.28 493.304 147.728C494.136 148.176 494.776 148.816 495.224 149.648C495.672 150.464 495.896 151.44 495.896 152.576C495.896 153.68 495.648 154.672 495.152 155.552C494.656 156.432 493.92 157.12 492.944 157.616C491.984 158.112 490.84 158.36 489.512 158.36ZM489.512 156.128C490.536 156.128 491.352 155.816 491.96 155.192C492.584 154.568 492.896 153.744 492.896 152.72C492.896 151.68 492.584 150.848 491.96 150.224C491.352 149.6 490.536 149.288 489.512 149.288C488.552 149.288 487.752 149.616 487.112 150.272C486.472 150.912 486.152 151.728 486.152 152.72C486.152 153.328 486.288 153.896 486.56 154.424C486.848 154.936 487.24 155.352 487.736 155.672C488.248 155.976 488.84 156.128 489.512 156.128ZM500.555 140.264H504.131V143.912H500.555V140.264ZM498.923 138.752V145.448H505.835V138.752H498.923ZM497.819 147.128V148.712H506.867V147.128H497.819ZM500.075 147.848C499.715 149.672 499.163 152.072 498.683 153.608L500.315 153.92C500.747 152.336 501.323 149.84 501.731 147.848H500.075ZM500.267 150.848L499.859 152.384H504.731V150.848H500.267ZM504.059 150.848V151.136C503.771 155.864 503.411 157.712 502.931 158.192C502.739 158.408 502.499 158.456 502.139 158.432C501.755 158.432 500.819 158.432 499.787 158.336C500.075 158.768 500.267 159.464 500.291 159.92C501.299 159.968 502.283 159.968 502.811 159.944C503.459 159.872 503.867 159.728 504.275 159.296C504.947 158.576 505.307 156.608 505.691 151.592C505.715 151.328 505.739 150.848 505.739 150.848H504.059ZM513.107 139.496V140.984H518.843V139.496H513.107ZM508.283 142.616V144.08H518.867V142.616H508.283ZM512.243 137.84V143.384H513.971V137.84H512.243ZM507.515 142.616V148.76C507.515 151.856 507.299 156.032 505.211 159.08C505.619 159.248 506.291 159.752 506.579 160.064C508.811 156.872 509.147 152.12 509.147 148.76V142.616H507.515ZM509.723 146.576L509.891 147.896L516.995 147.128L516.827 145.88L509.723 146.576ZM512.339 144.248V148.544C512.339 150.08 512.771 150.464 514.499 150.464C514.859 150.464 516.779 150.464 517.139 150.464C518.435 150.464 518.891 149.984 519.035 148.136C518.603 148.04 517.979 147.824 517.643 147.608C517.571 148.952 517.475 149.12 516.947 149.12C516.539 149.12 515.003 149.12 514.715 149.12C514.043 149.12 513.947 149.048 513.947 148.544V144.248H512.339ZM518.363 142.616V142.856C518.219 144.128 517.931 145.76 517.691 146.768L519.083 147.104C519.371 146.024 519.755 144.296 520.043 142.832L518.915 142.544L518.627 142.616H518.363ZM511.091 151.52C510.947 155.048 510.419 157.376 507.803 158.72C508.163 159.008 508.643 159.608 508.859 160.016C511.787 158.408 512.483 155.6 512.651 151.52H511.091ZM514.619 151.496V157.376C514.619 158.48 514.715 158.84 515.099 159.176C515.459 159.464 516.011 159.56 516.539 159.56C516.803 159.56 517.595 159.56 517.907 159.56C518.363 159.56 518.891 159.464 519.179 159.32C519.539 159.104 519.803 158.84 519.947 158.384C520.067 157.976 520.187 156.776 520.211 155.648C519.755 155.504 519.155 155.192 518.843 154.904C518.843 155.984 518.819 156.92 518.747 157.304C518.699 157.568 518.579 157.736 518.435 157.808C518.315 157.88 518.003 157.928 517.787 157.928C517.499 157.928 517.115 157.928 516.923 157.928C516.683 157.928 516.491 157.88 516.347 157.808C516.227 157.76 516.179 157.592 516.179 157.424V151.496H514.619ZM525.371 144.44L521.819 147.008V144.176L525.851 141.224H528.395V158H525.371V144.44ZM538.02 158.36C536.548 158.36 535.268 158.008 534.18 157.304C533.092 156.6 532.252 155.592 531.66 154.28C531.084 152.968 530.796 151.416 530.796 149.624C530.796 147.832 531.084 146.28 531.66 144.968C532.236 143.64 533.06 142.624 534.132 141.92C535.22 141.216 536.516 140.864 538.02 140.864C539.508 140.864 540.796 141.216 541.884 141.92C542.972 142.624 543.804 143.64 544.38 144.968C544.956 146.28 545.244 147.832 545.244 149.624C545.244 151.416 544.956 152.968 544.38 154.28C543.804 155.592 542.972 156.6 541.884 157.304C540.796 158.008 539.508 158.36 538.02 158.36ZM538.02 155.624C539.348 155.624 540.372 155.096 541.092 154.04C541.828 152.968 542.196 151.504 542.196 149.648C542.196 147.792 541.836 146.328 541.116 145.256C540.396 144.184 539.372 143.648 538.044 143.648C536.716 143.648 535.684 144.184 534.948 145.256C534.228 146.328 533.868 147.792 533.868 149.648C533.868 151.504 534.228 152.968 534.948 154.04C535.684 155.096 536.708 155.624 538.02 155.624ZM554.715 152.408V153.872H569.331V152.408H554.715ZM561.219 137.84V150.512H562.899V137.84H561.219ZM558.123 140.744H566.115V144.608H558.123V140.744ZM556.539 139.52V145.808H567.747V139.52H556.539ZM557.643 148.256H566.523V149.768H557.643V148.256ZM556.035 147.032V150.968H568.203V147.032H556.035ZM559.995 150.488C558.963 152.408 557.451 154.904 556.371 156.464L557.907 156.968C558.987 155.36 560.499 152.864 561.579 150.872L559.995 150.488ZM564.867 153.152C564.123 156.512 561.939 158 554.475 158.624C554.763 158.984 555.099 159.608 555.195 159.992C563.115 159.2 565.635 157.304 566.547 153.152H564.867ZM557.475 156.416C561.051 157.28 565.635 158.816 567.963 159.992L568.995 158.72C566.523 157.52 561.939 156.056 558.459 155.312L557.475 156.416ZM554.907 141.92V143.36H557.427V143.24H566.883V143.36H569.379V141.92H566.883V142.04H557.427V141.92H554.907ZM547.419 143.048V144.752H554.931V143.048H547.419ZM550.635 137.84V159.896H552.291V137.84H550.635ZM550.611 144.056C549.987 147.488 548.451 151.64 546.915 153.824C547.203 154.232 547.635 154.904 547.851 155.384C549.507 152.984 551.019 148.232 551.715 144.44L550.611 144.056ZM552.147 146.408L551.403 147.128C551.979 148.064 553.611 150.896 554.115 152.072L555.075 150.752C554.643 150.08 552.675 147.056 552.147 146.408ZM577.491 148.88C577.491 144.2 575.595 140.408 572.715 137.48L571.275 138.224C574.059 141.08 575.763 144.608 575.763 148.88C575.763 153.176 574.059 156.704 571.275 159.56L572.715 160.304C575.595 157.376 577.491 153.584 577.491 148.88Z" fill="white"/>
</g>
<defs>
<filter id="filter0_d_664_592" x="0.186666" y="0" width="583.627" height="168" filterUnits="userSpaceOnUse" color-interpolation-filters="sRGB">
<feFlood flood-opacity="0" result="BackgroundImageFix"/>
<feColorMatrix in="SourceAlpha" type="matrix" values="0 0 0 0 0 0 0 0 0 0 0 0 0 0 0 0 0 0 127 0" result="hardAlpha"/>
<feOffset dy="2"/>
<feGaussianBlur stdDeviation="1"/>
<feComposite in2="hardAlpha" operator="out"/>
<feColorMatrix type="matrix" values="0 0 0 0 0 0 0 0 0 0 0 0 0 0 0 0 0 0 0.8 0"/>
<feBlend mode="normal" in2="BackgroundImageFix" result="effect1_dropShadow_664_592"/>
<feBlend mode="normal" in="SourceGraphic" in2="effect1_dropShadow_664_592" result="shape"/>
</filter>
</defs>
</svg>
