<svg width="584" height="165" viewBox="0 0 584 165" fill="none" xmlns="http://www.w3.org/2000/svg">
<g filter="url(#filter0_d_664_592)">
<path fill-rule="evenodd" clip-rule="evenodd" d="M30.029 42.1868H64.4711V49.8134H32.4513L9.81333 65.8075V118.187H548.712L574.187 100.896V49.8134H282V42.1868H581.813V104.937L551.056 125.813H2.18667V61.8577L30.029 42.1868Z" fill="white"/>
<path fill-rule="evenodd" clip-rule="evenodd" d="M282 122L282 46L289.627 46L289.627 122L282 122Z" fill="white"/>
<path d="M97.1814 30.4473V19.9534H115.463V68.1334H103.715V30.4473H97.1814Z" fill="#FFE500"/>
<path d="M121.996 30.4473V19.9534H140.278V68.1334H128.53V30.4473H121.996Z" fill="#FFE500"/>
<path d="M174.266 5.43335L156.578 80.4754H145.688L163.376 5.43335H174.266Z" fill="#FFE500"/>
<path d="M177.509 59.0914C179.005 57.9034 179.687 57.3534 179.555 57.4414C183.867 53.8774 187.255 50.9514 189.719 48.6634C192.227 46.3754 194.339 43.9774 196.055 41.4694C197.771 38.9614 198.629 36.5194 198.629 34.1433C198.629 32.3393 198.211 30.9313 197.375 29.9193C196.539 28.9073 195.285 28.4013 193.613 28.4013C191.941 28.4013 190.621 29.0393 189.653 30.3154C188.729 31.5474 188.267 33.3074 188.267 35.5954H177.377C177.465 31.8554 178.257 28.7313 179.753 26.2233C181.293 23.7153 183.295 21.8673 185.759 20.6793C188.267 19.4913 191.039 18.8973 194.075 18.8973C199.311 18.8973 203.249 20.2393 205.889 22.9233C208.573 25.6073 209.915 29.1054 209.915 33.4174C209.915 38.1254 208.309 42.5034 205.097 46.5514C201.885 50.5554 197.793 54.4714 192.821 58.2994H210.641V67.4734H177.509V59.0914Z" fill="#FFE500"/>
<path d="M216.006 33.5493C216.182 28.8413 217.722 25.2113 220.626 22.6594C223.53 20.1074 227.468 18.8314 232.44 18.8314C235.74 18.8314 238.556 19.4034 240.888 20.5474C243.264 21.6914 245.046 23.2533 246.234 25.2334C247.466 27.2134 248.082 29.4354 248.082 31.8994C248.082 34.8034 247.356 37.1794 245.904 39.0274C244.452 40.8314 242.758 42.0634 240.822 42.7234V42.9874C243.33 43.8234 245.31 45.2094 246.762 47.1454C248.214 49.0814 248.94 51.5674 248.94 54.6034C248.94 57.3314 248.302 59.7514 247.026 61.8634C245.794 63.9314 243.968 65.5594 241.548 66.7474C239.172 67.9354 236.334 68.5294 233.034 68.5294C227.754 68.5294 223.53 67.2314 220.362 64.6354C217.238 62.0394 215.588 58.1234 215.412 52.8874H226.368C226.412 54.8234 226.962 56.3634 228.018 57.5074C229.074 58.6074 230.614 59.1574 232.638 59.1574C234.354 59.1574 235.674 58.6734 236.598 57.7054C237.566 56.6934 238.05 55.3734 238.05 53.7454C238.05 51.6334 237.368 50.1154 236.004 49.1914C234.684 48.2234 232.55 47.7394 229.602 47.7394H227.49V38.5654H229.602C231.846 38.5654 233.65 38.1914 235.014 37.4434C236.422 36.6514 237.126 35.2654 237.126 33.2854C237.126 31.7014 236.686 30.4694 235.806 29.5893C234.926 28.7094 233.716 28.2694 232.176 28.2694C230.504 28.2694 229.25 28.7753 228.414 29.7873C227.622 30.7994 227.16 32.0534 227.028 33.5493H216.006Z" fill="#FFE500"/>
<path d="M219.4 83.15L213.22 104H209.35L204.97 88.22L200.32 104L196.48 104.03L190.57 83.15H194.2L198.52 100.13L203.2 83.15H207.04L211.39 100.04L215.74 83.15H219.4Z" fill="white"/>
<path d="M237.371 95.33C237.371 95.95 237.331 96.51 237.251 97.01H224.621C224.721 98.33 225.211 99.3901 226.091 100.19C226.971 100.99 228.051 101.39 229.331 101.39C231.171 101.39 232.471 100.62 233.231 99.08H236.921C236.421 100.6 235.511 101.85 234.191 102.83C232.891 103.79 231.271 104.27 229.331 104.27C227.751 104.27 226.331 103.92 225.071 103.22C223.831 102.5 222.851 101.5 222.131 100.22C221.431 98.92 221.081 97.42 221.081 95.72C221.081 94.02 221.421 92.53 222.101 91.25C222.801 89.95 223.771 88.95 225.011 88.25C226.271 87.55 227.711 87.2 229.331 87.2C230.891 87.2 232.281 87.54 233.501 88.22C234.721 88.9 235.671 89.8601 236.351 91.1C237.031 92.32 237.371 93.73 237.371 95.33ZM233.801 94.25C233.781 92.99 233.331 91.98 232.451 91.22C231.571 90.46 230.481 90.08 229.181 90.08C228.001 90.08 226.991 90.46 226.151 91.22C225.311 91.96 224.811 92.97 224.651 94.25H233.801Z" fill="white"/>
<path d="M239.596 95.66C239.596 94 239.936 92.53 240.616 91.25C241.316 89.97 242.256 88.98 243.436 88.28C244.636 87.56 245.966 87.2 247.426 87.2C248.506 87.2 249.566 87.44 250.606 87.92C251.666 88.38 252.506 89 253.126 89.78V81.8H256.576V104H253.126V101.51C252.566 102.31 251.786 102.97 250.786 103.49C249.806 104.01 248.676 104.27 247.396 104.27C245.956 104.27 244.636 103.91 243.436 103.19C242.256 102.45 241.316 101.43 240.616 100.13C239.936 98.81 239.596 97.32 239.596 95.66ZM253.126 95.72C253.126 94.58 252.886 93.59 252.406 92.75C251.946 91.91 251.336 91.27 250.576 90.83C249.816 90.39 248.996 90.17 248.116 90.17C247.236 90.17 246.416 90.39 245.656 90.83C244.896 91.25 244.276 91.88 243.796 92.72C243.336 93.54 243.106 94.5201 243.106 95.66C243.106 96.8 243.336 97.8 243.796 98.66C244.276 99.5201 244.896 100.18 245.656 100.64C246.436 101.08 247.256 101.3 248.116 101.3C248.996 101.3 249.816 101.08 250.576 100.64C251.336 100.2 251.946 99.56 252.406 98.72C252.886 97.86 253.126 96.86 253.126 95.72Z" fill="white"/>
<path d="M262.448 104.21C261.828 104.21 261.308 104 260.888 103.58C260.468 103.16 260.258 102.64 260.258 102.02C260.258 101.4 260.468 100.88 260.888 100.46C261.308 100.04 261.828 99.83 262.448 99.83C263.048 99.83 263.558 100.04 263.978 100.46C264.398 100.88 264.608 101.4 264.608 102.02C264.608 102.64 264.398 103.16 263.978 103.58C263.558 104 263.048 104.21 262.448 104.21Z" fill="white"/>
<path d="M320.44 61.3041V63.0321H332.224V61.3041H320.44ZM327.448 68.4561V79.5921C327.448 80.0001 327.304 80.0961 326.824 80.1201C326.392 80.1441 324.784 80.1441 323.08 80.0961C323.344 80.6241 323.584 81.3681 323.656 81.8721C326.008 81.8721 327.376 81.8481 328.192 81.5841C329.008 81.2961 329.272 80.7441 329.272 79.6161V68.4561H327.448ZM319.384 67.9281V69.6321H332.92V67.9281H319.384ZM314.584 69.7761V81.9921H316.384V68.3121L316.168 68.2161L314.584 69.7761ZM317.368 64.9761C315.712 67.7361 313.072 70.5201 310.576 72.2961C310.96 72.6321 311.584 73.4241 311.848 73.7841C314.368 71.7681 317.2 68.6721 319.072 65.6241L317.368 64.9761ZM316.384 59.8401C315.16 61.5681 312.832 63.7281 310.84 65.0721C311.152 65.4321 311.632 66.1281 311.896 66.5121C314.032 64.9761 316.504 62.6481 318.112 60.5361L316.384 59.8401Z" fill="white"/>
<path d="M335.2 61.5441V63.2721H346.24V61.5441H335.2ZM341.128 68.5521V70.2801H345.352V68.5521H341.128ZM340.312 62.4801V77.6481H342.064V62.4801H340.312ZM336.232 66.9201V78.3201H337.864V66.9201H336.232ZM334.792 77.9121L335.128 79.7121C338.128 79.0401 342.376 78.0561 346.384 77.0961L346.216 75.4401C342.04 76.3761 337.6 77.3841 334.792 77.9121ZM347.872 64.3281V66.0081H357.016V64.3281H347.872ZM348.688 59.8401C347.944 63.9441 346.624 67.9041 344.632 70.4001C345.064 70.6641 345.784 71.2641 346.096 71.6001C348.112 68.8401 349.6 64.6401 350.488 60.1521L348.688 59.8401ZM353.68 65.1921C352.648 72.8001 350.296 77.6721 344.632 80.4081C344.968 80.7921 345.52 81.5601 345.688 81.9921C351.688 78.8241 354.256 73.6641 355.48 65.3841L353.68 65.1921ZM348.64 65.8641L347.056 66.1521C348.376 73.4961 350.896 79.2561 355.984 81.9441C356.272 81.4641 356.824 80.7681 357.232 80.4081C352.36 78.1281 349.816 72.5601 348.64 65.8641Z" fill="white"/>
<path d="M372.688 59.9121V63.4881H374.44V59.9121H372.688ZM366.928 62.6241V67.0161H368.536V64.2081H379V66.9921H380.68V62.6241H366.928ZM368.824 66.8721V68.4561H378.736V66.8721H368.824ZM367.192 71.1921V72.8241H380.752V71.1921H367.192ZM370.408 71.9121C370.216 76.4001 369.544 79.1121 365.272 80.5521C365.632 80.8881 366.112 81.5361 366.28 81.9441C371.008 80.2401 371.872 77.0481 372.16 71.9121H370.408ZM374.848 71.7681V79.3041C374.848 81.0801 375.256 81.6081 376.888 81.6081C377.224 81.6081 378.616 81.6081 378.976 81.6081C380.392 81.6081 380.824 80.7921 380.992 77.6721C380.512 77.5761 379.792 77.2881 379.456 76.9761C379.408 79.5921 379.312 79.9761 378.784 79.9761C378.496 79.9761 377.368 79.9761 377.152 79.9761C376.648 79.9761 376.552 79.8801 376.552 79.2801V71.7681H374.848ZM359.92 60.8961V81.9441H361.552V62.5281H365.584V60.8961H359.92ZM365.032 60.8961V61.3761C364.528 63.0321 363.64 65.8881 362.776 68.0721C364.504 69.9441 364.936 71.5761 364.936 72.8721C364.936 73.5921 364.816 74.2401 364.432 74.5041C364.24 74.6481 363.976 74.7201 363.688 74.7201C363.304 74.7681 362.848 74.7441 362.296 74.6961C362.56 75.1521 362.704 75.8481 362.728 76.2801C363.28 76.3041 363.88 76.3041 364.36 76.2561C364.84 76.1841 365.272 76.0401 365.608 75.8241C366.28 75.3441 366.544 74.3361 366.544 73.0401C366.544 71.5521 366.16 69.8721 364.384 67.8801C365.2 65.9601 366.088 63.4881 366.784 61.5201L365.632 60.8241L365.344 60.8961H365.032Z" fill="white"/>
<path d="M383.44 62.2641V63.9681H404.584V62.2641H383.44ZM388.384 71.8881V73.3521H399.736V71.8881H388.384ZM387.88 75.8001V77.3121H400.168V75.8001H387.88ZM393.04 72.5841V81.4641H394.768V72.5841H393.04ZM384.736 66.4881V81.8961H386.536V68.1681H402.088V66.4881H384.736ZM401.464 66.4881V79.8321C401.464 80.2161 401.368 80.3361 400.936 80.3601C400.504 80.3841 399.016 80.3841 397.504 80.3121C397.768 80.7681 398.056 81.4641 398.152 81.9441C400.12 81.9441 401.488 81.9201 402.256 81.6561C403.048 81.3921 403.312 80.8881 403.312 79.8321V66.4881H401.464ZM389.584 68.9601C390.184 69.8481 390.808 71.0721 391.048 71.8881L392.56 71.3361C392.296 70.5441 391.672 69.3681 391.024 68.5041L389.584 68.9601ZM396.928 68.4801C396.52 69.5121 395.776 71.0241 395.176 72.0081L396.472 72.4401C397.096 71.5281 397.84 70.1841 398.464 68.9361L396.928 68.4801ZM392.992 59.8641V67.6161H394.984V59.8641H392.992Z" fill="white"/>
<path d="M420.4 61.2801V81.9441H422.152V62.9841H427.6V61.2801H420.4ZM407.608 62.5041V64.1121H419.08V62.5041H407.608ZM406.984 69.1521V70.8081H419.392V69.1521H406.984ZM412.432 59.9361V63.4881H414.184V59.9361H412.432ZM409.096 64.9521C409.6 66.1761 410.008 67.8081 410.128 68.8641L411.736 68.4801C411.592 67.4241 411.136 65.8161 410.608 64.6161L409.096 64.9521ZM415.984 64.4481C415.696 65.6721 415.12 67.4481 414.64 68.5521L416.08 68.9361C416.608 67.8801 417.184 66.2721 417.712 64.8561L415.984 64.4481ZM409.24 78.9441V80.5521H417.136V78.9441H409.24ZM408.592 72.8961V81.9441H410.272V74.5041H416.32V81.8241H418.048V72.8961H408.592ZM427.12 61.2801V61.8561C426.4 63.7521 425.104 67.0641 423.88 69.5361C426.304 71.6481 427 73.4481 427.024 74.9601C427.024 75.8481 426.856 76.5441 426.328 76.8561C426.04 77.0241 425.704 77.1201 425.296 77.1441C424.816 77.1681 424.12 77.1441 423.424 77.0961C423.736 77.6001 423.904 78.3681 423.928 78.8721C424.624 78.8961 425.416 78.9201 426.016 78.8481C426.64 78.7521 427.168 78.5841 427.6 78.3201C428.44 77.7441 428.776 76.6161 428.776 75.1521C428.752 73.4241 428.176 71.5281 425.752 69.2961C426.856 67.0881 428.104 64.3041 429.088 62.0481L427.768 61.2081L427.48 61.2801H427.12Z" fill="white"/>
<path d="M433.312 60.7281V62.4081H438.88V60.7281H433.312ZM433.312 66.3441V68.0241H438.928V66.3441H433.312ZM442.672 68.9601V70.6401H451.384V68.9601H442.672ZM433.264 72.1041V73.8081H438.88V72.1041H433.264ZM432.568 60.7281V69.3681C432.568 72.8961 432.448 77.7201 430.792 81.1041C431.224 81.2721 431.944 81.6801 432.28 81.9681C433.984 78.4161 434.224 73.1121 434.224 69.3681V60.7281H432.568ZM437.872 60.7281V79.7601C437.872 80.0961 437.752 80.1921 437.416 80.2161C437.128 80.2401 436.12 80.2401 434.992 80.2161C435.232 80.6721 435.448 81.4881 435.52 81.9201C437.152 81.9441 438.112 81.8961 438.736 81.6081C439.336 81.2961 439.552 80.7441 439.552 79.7841V60.7281H437.872ZM450.136 60.8001V65.4321C450.136 65.7201 450.04 65.8161 449.656 65.8161C449.272 65.8401 448 65.8401 446.56 65.8161C446.776 66.2481 447.04 66.8481 447.136 67.3521C448.96 67.3521 450.16 67.3521 450.904 67.0881C451.672 66.8241 451.864 66.3441 451.864 65.4561V60.8001H450.136ZM450.904 68.9601V69.2961C449.872 74.5521 446.896 78.6561 443.488 80.4561C443.848 80.7681 444.328 81.3921 444.544 81.8001C448.288 79.5681 451.36 75.4161 452.56 69.2721L451.504 68.9121L451.216 68.9601H450.904ZM445.36 69.9921L443.92 70.3761C445.432 75.4881 448.216 79.8321 452.104 81.9441C452.368 81.5361 452.872 80.9121 453.28 80.5761C449.512 78.7521 446.728 74.6481 445.36 69.9921ZM441.664 60.8001V81.9201H443.368V62.4801H450.616V60.8001H441.664Z" fill="white"/>
<path d="M455.368 61.0401V62.6001H463.552V61.0401H455.368ZM464.632 73.3041V74.8641H475.048V73.3041H464.632ZM455.104 68.2881V69.8961H464.128V68.2881H455.104ZM459.304 68.9361V79.8321C459.304 80.0961 459.208 80.1681 458.944 80.1921C458.656 80.1921 457.696 80.1921 456.664 80.1681C456.904 80.6481 457.144 81.3921 457.192 81.8481C458.68 81.8481 459.616 81.8241 460.216 81.5601C460.864 81.2481 461.032 80.7681 461.032 79.8321V68.9361H459.304ZM474.424 73.3041V73.5921C474.064 77.7921 473.632 79.4721 473.128 79.9521C472.912 80.1681 472.696 80.1921 472.312 80.1921C471.928 80.1921 470.968 80.1681 469.936 80.0721C470.2 80.5521 470.368 81.2721 470.416 81.7521C471.496 81.8241 472.552 81.8241 473.104 81.7761C473.752 81.7281 474.184 81.5841 474.616 81.1521C475.312 80.4321 475.744 78.6081 476.2 74.0961C476.248 73.8321 476.272 73.3041 476.272 73.3041H474.424ZM469.12 70.9281C468.712 75.0801 467.776 78.7041 462.784 80.5521C463.168 80.8641 463.648 81.5121 463.864 81.9441C469.288 79.8321 470.464 75.7761 470.92 70.9281H469.12ZM456.208 65.0481C458.248 65.9601 460.696 67.4721 461.896 68.5761L463.096 67.2561C461.848 66.1521 459.352 64.7361 457.336 63.8961L456.208 65.0481ZM463.648 68.2881V68.6001C463.264 70.3281 462.664 72.4641 462.04 73.7841L463.312 74.4081C464.056 72.9201 464.776 70.6161 465.28 68.6001L464.176 68.2161L463.912 68.2881H463.648ZM473.272 63.1041C471.976 66.8241 468.616 68.9601 464.248 70.0641C464.608 70.4481 465.16 71.1921 465.376 71.5761C469.912 70.1601 473.512 67.7601 475.12 63.4161L473.272 63.1041ZM468.136 59.8401C467.176 62.1441 465.424 64.3281 463.528 65.7441C463.984 65.9841 464.704 66.4881 465.016 66.8001C466.864 65.2641 468.712 62.8641 469.84 60.2961L468.136 59.8401ZM467.704 63.6081L466.216 64.1121C468.136 67.8081 471.736 70.4961 476.128 71.6721C476.368 71.1921 476.896 70.4961 477.28 70.1361C473.008 69.2001 469.432 66.8001 467.704 63.6081ZM459.088 68.8161C458.296 71.5761 456.592 74.7201 454.864 76.3521C455.176 76.7841 455.608 77.5281 455.8 78.0321C457.672 76.1601 459.4 72.4401 460.312 69.2721L459.088 68.8161ZM467.608 62.3841L466.864 63.9201H476.776V62.3841H467.608ZM463.12 61.0401V61.3761C462.328 62.6721 460.648 64.4241 459.112 65.4321C459.472 65.6481 460.024 66.0321 460.336 66.3201C461.992 65.2161 463.864 63.3921 464.968 61.7121L463.792 60.9681L463.504 61.0401H463.12Z" fill="white"/>
<path d="M480.304 64.1361V75.5601H482.104V65.9121H497.776V75.4401H499.648V64.1361H480.304ZM481.264 72.2961V74.0481H498.856V72.2961H481.264ZM488.992 59.8401V81.8961H490.864V59.8401H488.992Z" fill="white"/>
<path d="M509.296 66.5601V78.6081C509.296 80.9601 510.04 81.6081 512.584 81.6081C513.136 81.6081 516.712 81.6081 517.288 81.6081C519.904 81.6081 520.456 80.2641 520.72 75.7281C520.192 75.6081 519.448 75.2721 519.016 74.9121C518.824 79.0641 518.608 79.9521 517.192 79.9521C516.376 79.9521 513.352 79.9521 512.752 79.9521C511.432 79.9521 511.144 79.7361 511.144 78.6081V66.5601H509.296ZM509.488 61.3281C512.392 62.3601 515.896 64.1601 517.744 65.5521L518.896 63.9681C517 62.6721 513.52 60.9441 510.616 59.9601L509.488 61.3281ZM505.288 68.4801C504.952 71.6001 504.16 75.1041 502.552 77.2161L504.184 78.2001C505.912 75.8961 506.656 72.0561 507.016 68.8401L505.288 68.4801ZM519.28 68.5041C521.32 71.2161 523.12 74.9601 523.648 77.4801L525.448 76.6161C524.848 74.0721 523.048 70.4481 520.888 67.7121L519.28 68.5041Z" fill="white"/>
<path d="M314.512 94.4401L310.96 97.0081V94.1761L314.992 91.2241H317.536V108H314.512V94.4401Z" fill="white"/>
<path d="M327.161 108.36C325.689 108.36 324.409 108.008 323.321 107.304C322.233 106.6 321.393 105.592 320.801 104.28C320.225 102.968 319.937 101.416 319.937 99.6241C319.937 97.8321 320.225 96.2801 320.801 94.9681C321.377 93.6401 322.201 92.6241 323.273 91.9201C324.361 91.2161 325.657 90.8641 327.161 90.8641C328.649 90.8641 329.937 91.2161 331.025 91.9201C332.113 92.6241 332.945 93.6401 333.521 94.9681C334.097 96.2801 334.385 97.8321 334.385 99.6241C334.385 101.416 334.097 102.968 333.521 104.28C332.945 105.592 332.113 106.6 331.025 107.304C329.937 108.008 328.649 108.36 327.161 108.36ZM327.161 105.624C328.489 105.624 329.513 105.096 330.233 104.04C330.969 102.968 331.337 101.504 331.337 99.6481C331.337 97.7921 330.977 96.3281 330.257 95.2561C329.537 94.1841 328.513 93.6481 327.185 93.6481C325.857 93.6481 324.825 94.1841 324.089 95.2561C323.369 96.3281 323.009 97.7921 323.009 99.6481C323.009 101.504 323.369 102.968 324.089 104.04C324.825 105.096 325.849 105.624 327.161 105.624Z" fill="white"/>
<path d="M343.856 102.408V103.872H358.472V102.408H343.856ZM350.36 87.8401V100.512H352.04V87.8401H350.36ZM347.264 90.7441H355.256V94.6081H347.264V90.7441ZM345.68 89.5201V95.8081H356.888V89.5201H345.68ZM346.784 98.2561H355.664V99.7681H346.784V98.2561ZM345.176 97.0321V100.968H357.344V97.0321H345.176ZM349.136 100.488C348.104 102.408 346.592 104.904 345.512 106.464L347.048 106.968C348.128 105.36 349.64 102.864 350.72 100.872L349.136 100.488ZM354.008 103.152C353.264 106.512 351.08 108 343.616 108.624C343.904 108.984 344.24 109.608 344.336 109.992C352.256 109.2 354.776 107.304 355.688 103.152H354.008ZM346.616 106.416C350.192 107.28 354.776 108.816 357.104 109.992L358.136 108.72C355.664 107.52 351.08 106.056 347.6 105.312L346.616 106.416ZM344.048 91.9201V93.3601H346.568V93.2401H356.024V93.3601H358.52V91.9201H356.024V92.0401H346.568V91.9201H344.048ZM336.56 93.0481V94.7521H344.072V93.0481H336.56ZM339.776 87.8401V109.896H341.432V87.8401H339.776ZM339.752 94.0561C339.128 97.4881 337.592 101.64 336.056 103.824C336.344 104.232 336.776 104.904 336.992 105.384C338.648 102.984 340.16 98.2321 340.856 94.4401L339.752 94.0561ZM341.288 96.4081L340.544 97.1281C341.12 98.0641 342.752 100.896 343.256 102.072L344.216 100.752C343.784 100.08 341.816 97.0561 341.288 96.4081Z" fill="white"/>
<path d="M364.784 96.0481H377.96V99.6721H364.784V96.0481ZM363.248 94.8241V100.896H379.592V94.8241H363.248ZM367.184 92.2321V93.5041H375.56V92.2321H367.184ZM370.472 95.2081V100.224H372.008V95.2081H370.472ZM371.216 89.3041C373.664 91.6561 377.984 94.0321 381.512 95.2561C381.776 94.8001 382.184 94.1521 382.568 93.7681C378.848 92.6641 374.672 90.4561 371.96 87.8401H370.256C368.264 90.1681 364.208 92.6161 360.128 94.0081C360.464 94.3921 360.872 95.0161 361.088 95.4241C365.072 93.9361 369.08 91.4881 371.216 89.3041ZM366.248 96.7681C366.848 97.6321 367.4 98.8081 367.592 99.5761L368.984 99.0721C368.744 98.3041 368.168 97.1761 367.544 96.3361L366.248 96.7681ZM374.888 96.2401C374.6 97.0561 373.976 98.3281 373.52 99.1441L374.792 99.5761C375.272 98.8561 375.872 97.7521 376.424 96.7201L374.888 96.2401ZM364.664 102.048V109.92H366.44V103.32H376.4V109.896H378.224V102.048H364.664ZM365.72 104.928V106.248H377.192V104.928H365.72ZM365.72 107.88V109.176H377.192V107.88H365.72Z" fill="white"/>
<path d="M398.24 90.6001V96.6001H399.992V90.6001H398.24ZM395.36 99.0001V108.24C395.36 108.504 395.288 108.576 395 108.6C394.712 108.6 393.776 108.6 392.768 108.576C392.96 108.984 393.2 109.56 393.272 109.944C394.664 109.944 395.6 109.92 396.2 109.704C396.776 109.488 396.944 109.08 396.944 108.264V99.0001H395.36ZM402.344 87.8161C402.056 88.4881 401.456 89.5441 401 90.2161L402.248 90.6721C402.752 90.0481 403.376 89.2081 403.928 88.2961L402.344 87.8161ZM394.592 88.3441C395.192 89.0881 395.792 90.0721 396.056 90.7441L397.424 90.1681C397.16 89.4961 396.488 88.5121 395.888 87.8401L394.592 88.3441ZM402.296 98.7841C403.256 99.4321 404.384 100.416 404.888 101.16L405.992 100.248C405.464 99.5521 404.336 98.5921 403.352 97.9681L402.296 98.7841ZM391.88 105.096L392.096 106.56C394.208 106.248 396.92 105.84 399.584 105.432L399.536 104.088C396.704 104.496 393.848 104.856 391.88 105.096ZM398.288 97.8241C396.92 98.3281 394.424 98.7361 392.312 98.9761C392.48 99.3121 392.672 99.8161 392.744 100.128C394.928 99.9121 397.568 99.5041 399.368 98.9281L398.288 97.8241ZM392.84 90.2161V91.5361H405.656V90.2161H392.84ZM393.632 93.0961V94.3441H405.008V93.0961H393.632ZM391.976 96.0241V97.3921H406.16V96.0241H391.976ZM391.952 101.448V102.84H406.208V101.448H391.952ZM399.824 97.9681C400.064 105.528 401.528 110.112 404.48 110.112C405.68 110.112 406.256 109.416 406.52 107.232C406.16 107.088 405.68 106.872 405.368 106.56C405.248 108.12 405.032 108.648 404.624 108.648C402.944 108.672 401.48 105.048 401.384 97.9681H399.824ZM403.832 103.368C402.608 105.696 400.16 107.616 397.664 108.696C397.976 108.96 398.384 109.392 398.576 109.68C401.168 108.504 403.76 106.44 405.152 103.992L403.832 103.368ZM385.232 95.1121V96.5521H391.4V95.1121H385.232ZM385.376 88.7041V90.1441H391.328V88.7041H385.376ZM385.232 98.3281V99.7681H391.4V98.3281H385.232ZM384.248 91.8481V93.3361H392V91.8481H384.248ZM386.072 101.568V103.056H389.864V107.064H386.072V108.552H391.376V101.568H386.072ZM385.184 101.568V109.68H386.672V101.568H385.184Z" fill="white"/>
<path d="M418.352 100.104V108.24H420.2V100.104H418.352ZM411.464 93.7441V95.3281H427.352V93.7441H411.464ZM408.728 107.64V109.248H430.016V107.64H408.728ZM410.936 103.032V104.616H427.904V103.032H410.936ZM416.264 94.5841C415.592 96.0481 414.368 98.1841 413.408 99.5041L414.848 100.008C415.856 98.7601 417.128 96.7921 418.112 95.1121L416.264 94.5841ZM410.504 98.8801L410.6 100.536C414.632 100.44 420.776 100.248 426.584 100.008L426.68 98.4721C420.752 98.6401 414.464 98.8321 410.504 98.8801ZM422.096 96.7681C424.112 98.1121 426.512 100.128 427.616 101.52L429.008 100.488C427.856 99.0961 425.408 97.1521 423.392 95.8561L422.096 96.7681ZM418.352 87.8641V90.7921H420.2V87.8641H418.352ZM409.016 89.6641V94.1041H410.768V91.3201H427.88V94.1041H429.704V89.6641H409.016Z" fill="white"/>
<path d="M23.512 91.44L19.96 94.008V91.176L23.992 88.224H26.536V105H23.512V91.44Z" fill="white"/>
<path d="M34.1926 105.36C33.2006 105.36 32.2406 105.28 31.3126 105.12C30.4006 104.96 29.6086 104.72 28.9366 104.4V102.072C30.4566 102.76 32.0726 103.104 33.7846 103.104C35.1446 103.104 36.1606 102.864 36.8326 102.384C37.5206 101.888 37.8646 101.184 37.8646 100.272C37.8646 99.328 37.5286 98.664 36.8566 98.28C36.2006 97.88 35.1766 97.68 33.7846 97.68H31.6966V95.328H33.7126C34.8326 95.328 35.7206 95.12 36.3766 94.704C37.0326 94.272 37.3606 93.624 37.3606 92.76C37.3606 91.896 37.0646 91.24 36.4726 90.792C35.8966 90.344 35.0806 90.12 34.0246 90.12C33.1126 90.12 32.2886 90.232 31.5526 90.456C30.8326 90.664 30.0966 91 29.3446 91.464V89.112C30.7846 88.28 32.4806 87.864 34.4326 87.864C36.4166 87.864 37.9126 88.288 38.9206 89.136C39.9286 89.968 40.4326 91.136 40.4326 92.64C40.4326 93.472 40.2086 94.224 39.7606 94.896C39.3286 95.568 38.6806 96.096 37.8166 96.48C38.8406 96.784 39.6166 97.272 40.1446 97.944C40.6726 98.6 40.9366 99.424 40.9366 100.416C40.9366 101.968 40.4006 103.184 39.3286 104.064C38.2566 104.928 36.5446 105.36 34.1926 105.36Z" fill="white"/>
<path d="M44.4424 96.456C44.0104 96.456 43.6344 96.304 43.3144 96C43.0104 95.68 42.8584 95.304 42.8584 94.872C42.8584 94.44 43.0104 94.072 43.3144 93.768C43.6344 93.448 44.0104 93.288 44.4424 93.288C44.8744 93.288 45.2424 93.448 45.5464 93.768C45.8664 94.072 46.0264 94.44 46.0264 94.872C46.0264 95.304 45.8664 95.68 45.5464 96C45.2424 96.304 44.8744 96.456 44.4424 96.456ZM44.4424 104.616C44.0104 104.616 43.6344 104.464 43.3144 104.16C43.0104 103.84 42.8584 103.464 42.8584 103.032C42.8584 102.6 43.0104 102.232 43.3144 101.928C43.6344 101.608 44.0104 101.448 44.4424 101.448C44.8744 101.448 45.2424 101.608 45.5464 101.928C45.8664 102.232 46.0264 102.6 46.0264 103.032C46.0264 103.464 45.8664 103.84 45.5464 104.16C45.2424 104.464 44.8744 104.616 44.4424 104.616Z" fill="white"/>
<path d="M53.2004 105.36C52.2084 105.36 51.2484 105.28 50.3204 105.12C49.4084 104.96 48.6164 104.72 47.9444 104.4V102.072C49.4644 102.76 51.0804 103.104 52.7924 103.104C54.1524 103.104 55.1684 102.864 55.8404 102.384C56.5284 101.888 56.8724 101.184 56.8724 100.272C56.8724 99.328 56.5364 98.664 55.8644 98.28C55.2084 97.88 54.1844 97.68 52.7924 97.68H50.7044V95.328H52.7204C53.8404 95.328 54.7284 95.12 55.3844 94.704C56.0404 94.272 56.3684 93.624 56.3684 92.76C56.3684 91.896 56.0724 91.24 55.4804 90.792C54.9044 90.344 54.0884 90.12 53.0324 90.12C52.1204 90.12 51.2964 90.232 50.5604 90.456C49.8404 90.664 49.1044 91 48.3524 91.464V89.112C49.7924 88.28 51.4884 87.864 53.4404 87.864C55.4244 87.864 56.9204 88.288 57.9284 89.136C58.9364 89.968 59.4404 91.136 59.4404 92.64C59.4404 93.472 59.2164 94.224 58.7684 94.896C58.3364 95.568 57.6884 96.096 56.8244 96.48C57.8484 96.784 58.6244 97.272 59.1524 97.944C59.6804 98.6 59.9444 99.424 59.9444 100.416C59.9444 101.968 59.4084 103.184 58.3364 104.064C57.2644 104.928 55.5524 105.36 53.2004 105.36Z" fill="white"/>
<path d="M69.0903 105.36C67.6183 105.36 66.3383 105.008 65.2503 104.304C64.1623 103.6 63.3223 102.592 62.7303 101.28C62.1543 99.968 61.8662 98.416 61.8662 96.624C61.8662 94.832 62.1543 93.28 62.7303 91.968C63.3063 90.64 64.1303 89.624 65.2023 88.92C66.2903 88.216 67.5863 87.864 69.0903 87.864C70.5783 87.864 71.8662 88.216 72.9543 88.92C74.0423 89.624 74.8742 90.64 75.4502 91.968C76.0262 93.28 76.3143 94.832 76.3143 96.624C76.3143 98.416 76.0262 99.968 75.4502 101.28C74.8742 102.592 74.0423 103.6 72.9543 104.304C71.8662 105.008 70.5783 105.36 69.0903 105.36ZM69.0903 102.624C70.4183 102.624 71.4422 102.096 72.1623 101.04C72.8983 99.968 73.2663 98.504 73.2663 96.648C73.2663 94.792 72.9062 93.328 72.1862 92.256C71.4662 91.184 70.4422 90.648 69.1143 90.648C67.7863 90.648 66.7542 91.184 66.0182 92.256C65.2982 93.328 64.9383 94.792 64.9383 96.648C64.9383 98.504 65.2982 99.968 66.0182 101.04C66.7542 102.096 67.7783 102.624 69.0903 102.624Z" fill="white"/>
<path d="M86.5776 98.688C86.1296 98.688 85.6816 98.624 85.2336 98.496C84.8016 98.368 84.2896 98.184 83.6976 97.944C83.0416 97.704 82.5216 97.528 82.1376 97.416C81.7536 97.304 81.3536 97.248 80.9376 97.248C79.8176 97.248 78.9136 97.72 78.2256 98.664V95.952C78.4816 95.568 78.8416 95.272 79.3056 95.064C79.7856 94.856 80.3296 94.752 80.9376 94.752C81.3856 94.752 81.8176 94.816 82.2336 94.944C82.6656 95.056 83.2176 95.24 83.8896 95.496C84.4656 95.72 84.9536 95.896 85.3536 96.024C85.7696 96.136 86.1776 96.192 86.5776 96.192C87.6976 96.192 88.6016 95.72 89.2896 94.776V97.488C89.0336 97.872 88.6656 98.168 88.1856 98.376C87.7216 98.584 87.1856 98.688 86.5776 98.688Z" fill="white"/>
<path d="M94.762 91.44L91.21 94.008V91.176L95.242 88.224H97.786V105H94.762V91.44Z" fill="white"/>
<path d="M108.467 90.744H99.9466V88.224H111.587V90.336L104.963 105H102.011L108.467 90.744Z" fill="white"/>
<path d="M114.849 96.456C114.417 96.456 114.041 96.304 113.721 96C113.417 95.68 113.265 95.304 113.265 94.872C113.265 94.44 113.417 94.072 113.721 93.768C114.041 93.448 114.417 93.288 114.849 93.288C115.281 93.288 115.649 93.448 115.953 93.768C116.273 94.072 116.433 94.44 116.433 94.872C116.433 95.304 116.273 95.68 115.953 96C115.649 96.304 115.281 96.456 114.849 96.456ZM114.849 104.616C114.417 104.616 114.041 104.464 113.721 104.16C113.417 103.84 113.265 103.464 113.265 103.032C113.265 102.6 113.417 102.232 113.721 101.928C114.041 101.608 114.417 101.448 114.849 101.448C115.281 101.448 115.649 101.608 115.953 101.928C116.273 102.232 116.433 102.6 116.433 103.032C116.433 103.464 116.273 103.84 115.953 104.16C115.649 104.464 115.281 104.616 114.849 104.616Z" fill="white"/>
<path d="M123.607 105.36C122.615 105.36 121.655 105.28 120.727 105.12C119.815 104.96 119.023 104.72 118.351 104.4V102.072C119.871 102.76 121.487 103.104 123.199 103.104C124.559 103.104 125.575 102.864 126.247 102.384C126.935 101.888 127.279 101.184 127.279 100.272C127.279 99.328 126.943 98.664 126.271 98.28C125.615 97.88 124.591 97.68 123.199 97.68H121.111V95.328H123.127C124.247 95.328 125.135 95.12 125.791 94.704C126.447 94.272 126.775 93.624 126.775 92.76C126.775 91.896 126.479 91.24 125.887 90.792C125.311 90.344 124.495 90.12 123.439 90.12C122.527 90.12 121.703 90.232 120.967 90.456C120.247 90.664 119.511 91 118.759 91.464V89.112C120.199 88.28 121.895 87.864 123.847 87.864C125.831 87.864 127.327 88.288 128.335 89.136C129.343 89.968 129.847 91.136 129.847 92.64C129.847 93.472 129.623 94.224 129.175 94.896C128.743 95.568 128.095 96.096 127.231 96.48C128.255 96.784 129.031 97.272 129.559 97.944C130.087 98.6 130.351 99.424 130.351 100.416C130.351 101.968 129.815 103.184 128.743 104.064C127.671 104.928 125.959 105.36 123.607 105.36Z" fill="white"/>
<path d="M139.496 105.36C138.024 105.36 136.744 105.008 135.657 104.304C134.569 103.6 133.729 102.592 133.136 101.28C132.561 99.968 132.272 98.416 132.272 96.624C132.272 94.832 132.561 93.28 133.136 91.968C133.712 90.64 134.536 89.624 135.608 88.92C136.696 88.216 137.993 87.864 139.496 87.864C140.984 87.864 142.273 88.216 143.361 88.92C144.449 89.624 145.281 90.64 145.856 91.968C146.433 93.28 146.72 94.832 146.72 96.624C146.72 98.416 146.433 99.968 145.856 101.28C145.281 102.592 144.449 103.6 143.361 104.304C142.273 105.008 140.984 105.36 139.496 105.36ZM139.496 102.624C140.825 102.624 141.848 102.096 142.568 101.04C143.304 99.968 143.673 98.504 143.673 96.648C143.673 94.792 143.312 93.328 142.592 92.256C141.872 91.184 140.849 90.648 139.521 90.648C138.192 90.648 137.16 91.184 136.424 92.256C135.704 93.328 135.344 94.792 135.344 96.648C135.344 98.504 135.704 99.968 136.424 101.04C137.16 102.096 138.185 102.624 139.496 102.624Z" fill="white"/>
<path d="M258.68 148.88C258.68 153.584 260.576 157.376 263.456 160.304L264.896 159.56C262.112 156.704 260.408 153.176 260.408 148.88C260.408 144.608 262.112 141.08 264.896 138.224L263.456 137.48C260.576 140.408 258.68 144.2 258.68 148.88Z" fill="white"/>
<path d="M267.56 140.144V141.704H288.416V140.144H267.56ZM276.944 137.84V140.888H278.792V137.84H276.944ZM268.616 149.528V159.944H270.368V151.064H286.448V149.528H268.616ZM285.704 149.528V157.736C285.704 158.072 285.608 158.192 285.2 158.192C284.792 158.24 283.448 158.24 281.864 158.192C282.128 158.672 282.392 159.392 282.464 159.896C284.456 159.896 285.752 159.872 286.52 159.608C287.288 159.296 287.504 158.768 287.504 157.784V149.528H285.704ZM273.416 152.624V158.912H275.024V152.624H273.416ZM274.28 152.624V153.92H280.952V156.392H274.28V157.688H282.584V152.624H274.28ZM273.272 144.368H282.656V146.696H273.272V144.368ZM271.544 143.048V148.016H284.48V143.048H271.544Z" fill="white"/>
<path d="M291.248 141.704V143.408H301.856V141.704H291.248ZM293.672 157.064L294.224 158.672C296.168 158.168 298.688 157.52 301.088 156.848L300.92 155.408C298.208 156.056 295.496 156.704 293.672 157.064ZM298.952 151.952C299.672 154.088 300.392 156.848 300.608 158.648L302.024 158.12C301.808 156.296 301.064 153.56 300.272 151.448L298.952 151.952ZM297.512 145.76C297.056 149.24 296.072 154.304 295.184 157.232L296.48 157.568C297.416 154.688 298.496 149.768 299.168 146.096L297.512 145.76ZM303.248 147.416V148.976H312.464V147.416H303.248ZM303.248 152.24V153.824H312.464V152.24H303.248ZM303.248 157.184V158.84H313.016V157.184H303.248ZM304.352 137.84C303.344 141.344 301.664 144.752 299.648 146.96C300.032 147.272 300.68 147.968 300.944 148.304C303.032 145.856 304.88 142.088 306.032 138.272L304.352 137.84ZM308.984 138.056C308.552 139.616 307.712 141.872 307.04 143.24L308.456 143.696C309.152 142.4 310.016 140.312 310.712 138.56L308.984 138.056ZM304.28 142.496H304.04L302.6 144.032V159.944H304.28V144.128H312.752V142.496H304.28ZM307.472 143.216V158.144H309.152V143.216H307.472ZM294.464 137.84V139.496C294.464 144.752 294.248 152.072 290.504 158.312C290.984 158.48 291.704 158.84 292.064 159.128C295.88 152.624 296.096 144.968 296.096 139.496V137.84H294.464Z" fill="white"/>
<path d="M324.968 137.744V142.232H326.864V137.744H324.968ZM324.992 142.808V159.992H326.84V142.808H324.992ZM315.2 141.176V142.928H336.824V141.176H315.2ZM317.672 146.216V156.944H319.472V147.968H333.44V146.216H317.672ZM332.744 146.216V154.664C332.744 155 332.624 155.096 332.192 155.12C331.784 155.144 330.32 155.144 328.688 155.096C328.952 155.6 329.24 156.32 329.312 156.872C331.376 156.872 332.72 156.848 333.56 156.56C334.352 156.248 334.592 155.696 334.592 154.664V146.216H332.744Z" fill="white"/>
<path d="M345.032 147.824V149.408H355.184V147.824H345.032ZM340.76 151.496V153.128H357.272V151.496H340.76ZM347.48 152.144V159.968H349.28V152.144H347.48ZM349.952 144.224C352.4 146.696 356.744 149.048 360.344 150.248C360.608 149.744 361.04 149.048 361.424 148.64C357.68 147.584 353.48 145.4 350.768 142.712H348.944C346.904 145.112 342.872 147.536 338.744 148.88C339.104 149.312 339.536 149.984 339.728 150.416C343.76 148.952 347.792 146.504 349.952 144.224ZM356.504 151.496V156.632C356.504 156.944 356.384 157.016 355.976 157.04C355.592 157.064 354.296 157.064 352.712 157.016C352.976 157.496 353.264 158.144 353.36 158.648C355.28 158.648 356.504 158.648 357.296 158.384C358.04 158.096 358.256 157.592 358.256 156.656V151.496H356.504ZM339.464 139.712V141.344H360.584V139.712H339.464ZM344.768 137.864V143.816H346.544V137.864H344.768ZM353.216 137.864V143.816H354.992V137.864H353.216Z" fill="white"/>
<path d="M375.008 147.296V148.856H384.296V147.296H375.008ZM363.416 139.208V140.888H373.04V139.208H363.416ZM363.104 146.672V148.376H373.232V146.672H363.104ZM375.008 152.12V153.704H384.296V152.12H375.008ZM375.008 157.016V158.696H384.944V157.016H375.008ZM376.088 137.864C375.2 141.056 373.712 144.248 371.984 146.336C372.392 146.6 373.088 147.248 373.4 147.536C375.152 145.256 376.784 141.776 377.816 138.296L376.088 137.864ZM380.648 138.104C380.264 139.568 379.472 141.776 378.848 143.072L380.336 143.48C381.008 142.232 381.8 140.24 382.448 138.536L380.648 138.104ZM375.92 142.424H375.848L374.24 144.128V159.968H375.92V144.056H384.656V142.424H375.92ZM369.608 139.928V157.736C369.608 158.12 369.512 158.216 369.152 158.24C368.72 158.24 367.448 158.264 366.104 158.216C366.344 158.696 366.608 159.464 366.68 159.944C368.408 159.944 369.632 159.896 370.328 159.608C371.048 159.32 371.312 158.816 371.312 157.736V139.928H369.608ZM379.28 143.168V157.88H380.96V143.168H379.28ZM364.88 139.976V147.584H366.512V139.976H364.88ZM368.888 147.152C367.64 150.608 365.096 154.304 362.6 156.104C362.984 156.488 363.44 157.184 363.656 157.664C366.272 155.48 368.888 151.592 370.232 147.968L368.888 147.152Z" fill="white"/>
<path d="M396.368 143.432H401.888V146.192H396.368V143.432ZM394.688 142.136V147.488H403.664V142.136H394.688ZM393.584 150.44H396.776V153.992H393.584V150.44ZM392.048 149.12V155.312H398.36V149.12H392.048ZM401.528 150.44H404.888V153.992H401.528V150.44ZM399.992 149.12V155.312H406.472V149.12H399.992ZM388.232 138.896V159.944H389.984V140.504H408.296V138.896H388.232ZM389.384 157.112V158.768H408.92V157.112H389.384Z" fill="white"/>
<path d="M411.2 139.544V141.272H422.24V139.544H411.2ZM417.128 146.552V148.28H421.352V146.552H417.128ZM416.312 140.48V155.648H418.064V140.48H416.312ZM412.232 144.92V156.32H413.864V144.92H412.232ZM410.792 155.912L411.128 157.712C414.128 157.04 418.376 156.056 422.384 155.096L422.216 153.44C418.04 154.376 413.6 155.384 410.792 155.912ZM423.872 142.328V144.008H433.016V142.328H423.872ZM424.688 137.84C423.944 141.944 422.624 145.904 420.632 148.4C421.064 148.664 421.784 149.264 422.096 149.6C424.112 146.84 425.6 142.64 426.488 138.152L424.688 137.84ZM429.68 143.192C428.648 150.8 426.296 155.672 420.632 158.408C420.968 158.792 421.52 159.56 421.688 159.992C427.688 156.824 430.256 151.664 431.48 143.384L429.68 143.192ZM424.64 143.864L423.056 144.152C424.376 151.496 426.896 157.256 431.984 159.944C432.272 159.464 432.824 158.768 433.232 158.408C428.36 156.128 425.816 150.56 424.64 143.864Z" fill="white"/>
<path d="M435.44 140.264V141.968H456.584V140.264H435.44ZM440.384 149.888V151.352H451.736V149.888H440.384ZM439.88 153.8V155.312H452.168V153.8H439.88ZM445.04 150.584V159.464H446.768V150.584H445.04ZM436.736 144.488V159.896H438.536V146.168H454.088V144.488H436.736ZM453.464 144.488V157.832C453.464 158.216 453.368 158.336 452.936 158.36C452.504 158.384 451.016 158.384 449.504 158.312C449.768 158.768 450.056 159.464 450.152 159.944C452.12 159.944 453.488 159.92 454.256 159.656C455.048 159.392 455.312 158.888 455.312 157.832V144.488H453.464ZM441.584 146.96C442.184 147.848 442.808 149.072 443.048 149.888L444.56 149.336C444.296 148.544 443.672 147.368 443.024 146.504L441.584 146.96ZM448.928 146.48C448.52 147.512 447.776 149.024 447.176 150.008L448.472 150.44C449.096 149.528 449.84 148.184 450.464 146.936L448.928 146.48ZM444.992 137.864V145.616H446.984V137.864H444.992Z" fill="white"/>
<path d="M465.44 140.888V142.424H473.552V140.888H465.44ZM474.632 139.256V140.888H480.704V139.256H474.632ZM474.416 145.712V147.344H481.016V145.712H474.416ZM464.936 145.664V147.248H474.008V145.664H464.936ZM468.632 137.84V146.576H470.336V137.84H468.632ZM465.08 150.728V152.312H473.84V150.728H465.08ZM468.608 147.752V156.896L470.312 156.56V147.752H468.608ZM464.432 156.512L464.624 158.192C467.264 157.856 470.936 157.4 474.464 156.92L474.44 155.336C470.744 155.816 466.952 156.272 464.432 156.512ZM477.008 146.36V157.712C477.008 158.048 476.912 158.12 476.552 158.144C476.168 158.168 475.04 158.168 473.72 158.12C473.96 158.648 474.176 159.44 474.272 159.92C476 159.92 477.152 159.896 477.872 159.608C478.568 159.32 478.76 158.768 478.76 157.736V146.36H477.008ZM463.016 137.864C462.128 139.496 460.376 141.464 458.72 142.688C459.032 143.024 459.488 143.648 459.728 144.032C461.528 142.616 463.496 140.432 464.672 138.464L463.016 137.864ZM461.576 147.416V159.944H463.256V146.048L463.04 145.976L461.576 147.416ZM463.712 142.688C462.488 145.328 460.448 147.896 458.384 149.576C458.72 149.96 459.248 150.8 459.44 151.16C461.648 149.216 463.928 146.216 465.344 143.24L463.712 142.688Z" fill="white"/>
<path d="M489.512 158.36C488.264 158.36 487.144 158.072 486.152 157.496C485.16 156.92 484.376 156.08 483.8 154.976C483.24 153.872 482.96 152.552 482.96 151.016C482.96 148.856 483.28 147.016 483.92 145.496C484.576 143.976 485.512 142.824 486.728 142.04C487.96 141.256 489.416 140.864 491.096 140.864C492.072 140.864 492.936 140.976 493.688 141.2V143.648C493.064 143.36 492.28 143.216 491.336 143.216C489.768 143.216 488.528 143.688 487.616 144.632C486.704 145.56 486.16 146.912 485.984 148.688C486.512 148.128 487.16 147.72 487.928 147.464C488.696 147.192 489.536 147.056 490.448 147.056C491.536 147.056 492.488 147.28 493.304 147.728C494.136 148.176 494.776 148.816 495.224 149.648C495.672 150.464 495.896 151.44 495.896 152.576C495.896 153.68 495.648 154.672 495.152 155.552C494.656 156.432 493.92 157.12 492.944 157.616C491.984 158.112 490.84 158.36 489.512 158.36ZM489.512 156.128C490.536 156.128 491.352 155.816 491.96 155.192C492.584 154.568 492.896 153.744 492.896 152.72C492.896 151.68 492.584 150.848 491.96 150.224C491.352 149.6 490.536 149.288 489.512 149.288C488.552 149.288 487.752 149.616 487.112 150.272C486.472 150.912 486.152 151.728 486.152 152.72C486.152 153.328 486.288 153.896 486.56 154.424C486.848 154.936 487.24 155.352 487.736 155.672C488.248 155.976 488.84 156.128 489.512 156.128Z" fill="white"/>
<path d="M500.555 140.264H504.131V143.912H500.555V140.264ZM498.923 138.752V145.448H505.835V138.752H498.923ZM497.819 147.128V148.712H506.867V147.128H497.819ZM500.075 147.848C499.715 149.672 499.163 152.072 498.683 153.608L500.315 153.92C500.747 152.336 501.323 149.84 501.731 147.848H500.075ZM500.267 150.848L499.859 152.384H504.731V150.848H500.267ZM504.059 150.848V151.136C503.771 155.864 503.411 157.712 502.931 158.192C502.739 158.408 502.499 158.456 502.139 158.432C501.755 158.432 500.819 158.432 499.787 158.336C500.075 158.768 500.267 159.464 500.291 159.92C501.299 159.968 502.283 159.968 502.811 159.944C503.459 159.872 503.867 159.728 504.275 159.296C504.947 158.576 505.307 156.608 505.691 151.592C505.715 151.328 505.739 150.848 505.739 150.848H504.059ZM513.107 139.496V140.984H518.843V139.496H513.107ZM508.283 142.616V144.08H518.867V142.616H508.283ZM512.243 137.84V143.384H513.971V137.84H512.243ZM507.515 142.616V148.76C507.515 151.856 507.299 156.032 505.211 159.08C505.619 159.248 506.291 159.752 506.579 160.064C508.811 156.872 509.147 152.12 509.147 148.76V142.616H507.515ZM509.723 146.576L509.891 147.896L516.995 147.128L516.827 145.88L509.723 146.576ZM512.339 144.248V148.544C512.339 150.08 512.771 150.464 514.499 150.464C514.859 150.464 516.779 150.464 517.139 150.464C518.435 150.464 518.891 149.984 519.035 148.136C518.603 148.04 517.979 147.824 517.643 147.608C517.571 148.952 517.475 149.12 516.947 149.12C516.539 149.12 515.003 149.12 514.715 149.12C514.043 149.12 513.947 149.048 513.947 148.544V144.248H512.339ZM518.363 142.616V142.856C518.219 144.128 517.931 145.76 517.691 146.768L519.083 147.104C519.371 146.024 519.755 144.296 520.043 142.832L518.915 142.544L518.627 142.616H518.363ZM511.091 151.52C510.947 155.048 510.419 157.376 507.803 158.72C508.163 159.008 508.643 159.608 508.859 160.016C511.787 158.408 512.483 155.6 512.651 151.52H511.091ZM514.619 151.496V157.376C514.619 158.48 514.715 158.84 515.099 159.176C515.459 159.464 516.011 159.56 516.539 159.56C516.803 159.56 517.595 159.56 517.907 159.56C518.363 159.56 518.891 159.464 519.179 159.32C519.539 159.104 519.803 158.84 519.947 158.384C520.067 157.976 520.187 156.776 520.211 155.648C519.755 155.504 519.155 155.192 518.843 154.904C518.843 155.984 518.819 156.92 518.747 157.304C518.699 157.568 518.579 157.736 518.435 157.808C518.315 157.88 518.003 157.928 517.787 157.928C517.499 157.928 517.115 157.928 516.923 157.928C516.683 157.928 516.491 157.88 516.347 157.808C516.227 157.76 516.179 157.592 516.179 157.424V151.496H514.619Z" fill="white"/>
<path d="M525.371 144.44L521.819 147.008V144.176L525.851 141.224H528.395V158H525.371V144.44Z" fill="white"/>
<path d="M538.02 158.36C536.548 158.36 535.268 158.008 534.18 157.304C533.092 156.6 532.252 155.592 531.66 154.28C531.084 152.968 530.796 151.416 530.796 149.624C530.796 147.832 531.084 146.28 531.66 144.968C532.236 143.64 533.06 142.624 534.132 141.92C535.22 141.216 536.516 140.864 538.02 140.864C539.508 140.864 540.796 141.216 541.884 141.92C542.972 142.624 543.804 143.64 544.38 144.968C544.956 146.28 545.244 147.832 545.244 149.624C545.244 151.416 544.956 152.968 544.38 154.28C543.804 155.592 542.972 156.6 541.884 157.304C540.796 158.008 539.508 158.36 538.02 158.36ZM538.02 155.624C539.348 155.624 540.372 155.096 541.092 154.04C541.828 152.968 542.196 151.504 542.196 149.648C542.196 147.792 541.836 146.328 541.116 145.256C540.396 144.184 539.372 143.648 538.044 143.648C536.716 143.648 535.684 144.184 534.948 145.256C534.228 146.328 533.868 147.792 533.868 149.648C533.868 151.504 534.228 152.968 534.948 154.04C535.684 155.096 536.708 155.624 538.02 155.624Z" fill="white"/>
<path d="M554.715 152.408V153.872H569.331V152.408H554.715ZM561.219 137.84V150.512H562.899V137.84H561.219ZM558.123 140.744H566.115V144.608H558.123V140.744ZM556.539 139.52V145.808H567.747V139.52H556.539ZM557.643 148.256H566.523V149.768H557.643V148.256ZM556.035 147.032V150.968H568.203V147.032H556.035ZM559.995 150.488C558.963 152.408 557.451 154.904 556.371 156.464L557.907 156.968C558.987 155.36 560.499 152.864 561.579 150.872L559.995 150.488ZM564.867 153.152C564.123 156.512 561.939 158 554.475 158.624C554.763 158.984 555.099 159.608 555.195 159.992C563.115 159.2 565.635 157.304 566.547 153.152H564.867ZM557.475 156.416C561.051 157.28 565.635 158.816 567.963 159.992L568.995 158.72C566.523 157.52 561.939 156.056 558.459 155.312L557.475 156.416ZM554.907 141.92V143.36H557.427V143.24H566.883V143.36H569.379V141.92H566.883V142.04H557.427V141.92H554.907ZM547.419 143.048V144.752H554.931V143.048H547.419ZM550.635 137.84V159.896H552.291V137.84H550.635ZM550.611 144.056C549.987 147.488 548.451 151.64 546.915 153.824C547.203 154.232 547.635 154.904 547.851 155.384C549.507 152.984 551.019 148.232 551.715 144.44L550.611 144.056ZM552.147 146.408L551.403 147.128C551.979 148.064 553.611 150.896 554.115 152.072L555.075 150.752C554.643 150.08 552.675 147.056 552.147 146.408Z" fill="white"/>
<path d="M577.491 148.88C577.491 144.2 575.595 140.408 572.715 137.48L571.275 138.224C574.059 141.08 575.763 144.608 575.763 148.88C575.763 153.176 574.059 156.704 571.275 159.56L572.715 160.304C575.595 157.376 577.491 153.584 577.491 148.88Z" fill="white"/>
</g>
<defs>
<filter id="filter0_d_664_592" x="0.186666" y="0" width="583.627" height="168" filterUnits="userSpaceOnUse" color-interpolation-filters="sRGB">
<feFlood flood-opacity="0" result="BackgroundImageFix"/>
<feColorMatrix in="SourceAlpha" type="matrix" values="0 0 0 0 0 0 0 0 0 0 0 0 0 0 0 0 0 0 127 0" result="hardAlpha"/>
<feOffset dy="2"/>
<feGaussianBlur stdDeviation="1"/>
<feComposite in2="hardAlpha" operator="out"/>
<feColorMatrix type="matrix" values="0 0 0 0 0 0 0 0 0 0 0 0 0 0 0 0 0 0 0.8 0"/>
<feBlend mode="normal" in2="BackgroundImageFix" result="effect1_dropShadow_664_592"/>
<feBlend mode="normal" in="SourceGraphic" in2="effect1_dropShadow_664_592" result="shape"/>
</filter>
</defs>
</svg>
