<svg width="839" height="429" viewBox="0 0 839 429" fill="none" xmlns="http://www.w3.org/2000/svg">
<g clip-path="url(#clip0_1311_196)">
<path d="M452.038 72.1028L485.858 45.0538C486.326 44.6803 485.985 43.9468 485.408 44.0835L405.123 63.1723C404.63 63.2921 404.431 63.9143 404.786 64.2721L411.517 71.0501L411.531 71.0662L417.566 77.1125L422.876 82.4393L435.325 94.9167C436.305 95.9011 436.143 97.5591 434.981 98.3959L429.624 102.25L427.992 103.467C427.895 103.537 427.791 103.597 427.682 103.646L423.929 106.346C423.845 106.406 423.776 106.485 423.728 106.577C423.679 106.669 423.652 106.772 423.648 106.88C423.644 107 423.677 107.121 423.744 107.226C423.81 107.331 423.907 107.415 424.019 107.466C427.163 108.877 429.996 110.978 432.297 113.605C435.152 116.892 437.122 120.836 437.997 125.013C438.352 126.667 440.163 127.526 441.723 126.822L482.607 108.426L483.717 107.92C483.813 107.882 483.898 107.822 483.963 107.743C484.029 107.664 484.074 107.569 484.095 107.466C484.116 107.363 484.112 107.255 484.083 107.15C484.055 107.045 484.002 106.947 483.931 106.863L451.855 74.6089C451.689 74.4386 451.56 74.2354 451.479 74.0146C451.398 73.7939 451.366 73.5612 451.385 73.3339C451.427 72.8406 451.662 72.3984 452.038 72.1028V72.1028Z" fill="#FFE500"/>
<path d="M415.053 105.363C416.815 105.432 418.578 105.696 420.311 106.151L420.619 87.5561C420.695 82.9779 417.041 79.3038 412.473 79.367C407.906 79.4302 404.128 83.2049 404.052 87.7806L403.759 105.49L413.674 105.357C414.133 105.34 414.597 105.346 415.053 105.363Z" fill="#FFE500"/>
<path d="M344.204 93.6121L343.596 130.23C343.529 134.284 346.766 137.538 350.813 137.483L352.703 137.458C356.75 137.403 360.096 134.059 360.163 130.013L360.77 93.3925C360.838 89.3359 357.601 86.0819 353.554 86.1362L351.664 86.1622C347.617 86.219 344.271 89.5629 344.204 93.6121Z" fill="#FFE500"/>
<path d="M371.779 131.235C376.346 131.162 380.124 127.397 380.2 122.819L380.775 88.1026C380.851 83.5245 377.197 79.8527 372.63 79.9135C368.062 79.9742 364.285 83.7515 364.209 88.3297L363.633 123.051C363.547 127.623 367.211 131.298 371.779 131.235Z" fill="#FFE500"/>
<path d="M400.404 105.527L400.697 87.8269C400.773 83.2488 397.119 79.5746 392.552 79.6378C387.984 79.701 384.206 83.4757 384.131 88.0539L383.779 109.232C385.948 107.002 388.924 105.726 392.13 105.654L400.404 105.527Z" fill="#FFE500"/>
<path d="M396.745 205.912C401.785 201.126 402.122 193.267 397.498 188.359C392.873 183.45 385.039 183.35 379.999 188.136C374.958 192.922 374.621 200.781 379.245 205.69C383.87 210.598 391.704 210.698 396.745 205.912Z" fill="#FFE500"/>
<path d="M318.576 74.5602C326.66 74.4506 333.131 80.9534 332.997 89.0592C332.987 89.2734 333.024 89.4906 333.105 89.6958C333.186 89.901 333.309 90.0891 333.466 90.2471C333.623 90.4051 333.81 90.5292 334.013 90.6106C334.217 90.692 334.433 90.7288 334.645 90.7184C335.101 90.7047 335.525 90.5247 335.839 90.2113C336.152 89.898 336.334 89.4723 336.352 89.0126C336.486 80.9092 343.173 74.2235 351.26 74.1215C351.716 74.1073 352.139 73.9275 352.452 73.6148C352.766 73.302 352.948 72.8773 352.967 72.4182C352.977 72.2038 352.94 71.9863 352.859 71.7809C352.777 71.5755 352.654 71.3872 352.496 71.2291C352.339 71.0711 352.152 70.9471 351.948 70.8658C351.744 70.7846 351.528 70.7479 351.316 70.7587C343.229 70.868 336.76 64.3656 336.895 56.2598C336.904 56.0456 336.867 55.8282 336.786 55.6231C336.705 55.418 336.581 55.2301 336.424 55.0723C336.266 54.9145 336.079 54.7906 335.876 54.7095C335.672 54.6284 335.456 54.5919 335.244 54.6026C334.788 54.6164 334.365 54.7963 334.052 55.1093C333.739 55.4222 333.557 55.8472 333.54 56.3063C333.405 64.4096 326.716 71.0927 318.631 71.1974C318.175 71.2105 317.751 71.3901 317.438 71.703C317.124 72.016 316.942 72.4412 316.925 72.9006C316.915 73.115 316.952 73.3326 317.033 73.538C317.114 73.7434 317.238 73.9316 317.395 74.0897C317.552 74.2478 317.739 74.3719 317.943 74.4531C318.147 74.5344 318.363 74.5709 318.576 74.5602Z" fill="#FFE500"/>
<path d="M329.034 134.016C329.044 133.802 329.007 133.584 328.926 133.379C328.845 133.174 328.721 132.985 328.564 132.827C328.407 132.669 328.22 132.545 328.016 132.464C327.812 132.383 327.596 132.346 327.383 132.357C319.284 132.467 312.828 125.964 312.962 117.86C312.972 117.646 312.935 117.428 312.854 117.223C312.773 117.018 312.649 116.829 312.492 116.671C312.335 116.513 312.148 116.389 311.944 116.308C311.74 116.227 311.524 116.19 311.312 116.201C310.856 116.215 310.432 116.395 310.119 116.709C309.806 117.022 309.624 117.447 309.607 117.907C309.473 126.01 302.786 132.693 294.699 132.798C294.243 132.812 293.82 132.993 293.507 133.306C293.194 133.619 293.012 134.045 292.995 134.504C292.985 134.718 293.022 134.935 293.104 135.14C293.185 135.345 293.308 135.533 293.465 135.69C293.622 135.848 293.809 135.972 294.012 136.053C294.216 136.134 294.431 136.171 294.643 136.161C302.73 136.051 309.199 142.556 309.064 150.66C309.054 150.874 309.091 151.091 309.172 151.296C309.253 151.501 309.377 151.69 309.534 151.848C309.691 152.006 309.877 152.13 310.081 152.211C310.285 152.293 310.5 152.329 310.713 152.319C311.169 152.306 311.593 152.126 311.906 151.813C312.22 151.5 312.402 151.075 312.419 150.616C312.554 142.51 319.241 135.827 327.327 135.725C327.784 135.711 328.209 135.531 328.522 135.217C328.836 134.903 329.018 134.477 329.034 134.016Z" fill="#FFE500"/>
<path d="M429.749 115.869C425.896 111.486 420.598 108.949 414.816 108.724C414.419 108.709 414.014 108.704 413.614 108.709L392.261 108.999C387.775 109.06 383.893 112.601 383.649 117.097C383.391 121.824 387.109 125.671 391.782 125.608L413.002 125.318C413.215 125.308 413.43 125.345 413.634 125.426C413.837 125.507 414.024 125.631 414.181 125.79C414.338 125.948 414.462 126.136 414.543 126.341C414.624 126.546 414.661 126.763 414.651 126.977L414.597 130.212C414.523 134.685 410.819 138.272 406.365 138.345C394.009 138.548 383.796 148.758 383.561 161.147C383.547 161.582 383.389 161.99 383.112 162.305C382.835 162.621 382.455 162.827 382.031 162.891C381.808 162.926 381.577 162.909 381.354 162.84C381.131 162.771 380.924 162.652 380.747 162.493C380.571 162.334 380.43 162.139 380.336 161.922C380.242 161.706 380.197 161.474 380.205 161.245C380.443 146.944 392.249 135.156 406.519 134.982C407.789 134.94 408.968 134.436 409.839 133.561C410.71 132.686 411.215 131.499 411.26 130.219C411.267 130.026 411.233 129.831 411.159 129.647C411.086 129.464 410.975 129.295 410.834 129.153C410.693 129.011 410.525 128.9 410.342 128.827C410.16 128.753 409.966 128.719 409.775 128.727L391.743 128.972C389.182 129.04 386.614 128.164 384.516 126.507C383.911 126.023 382.996 126.286 382.697 127.025C380.929 131.391 376.659 134.532 371.733 134.599C369.321 134.66 366.898 133.889 364.864 132.411C364.21 131.927 363.276 132.265 363.025 133.047C361.629 137.48 357.499 140.764 352.657 140.826L350.767 140.852C348.682 140.903 346.585 140.279 344.782 139.07C344.239 138.7 343.481 139.096 343.448 139.763C343.475 139.209 343.507 138.648 343.542 138.079C343.521 138.058 343.499 138.041 343.477 138.022L343.448 139.785C343.396 142.905 343.294 149.074 344.011 156.017C344.01 156.044 344.01 156.073 344.009 156.103C344.134 157.161 344.259 158.205 344.391 159.237C344.433 159.525 344.48 159.8 344.532 160.066C344.65 160.675 345.357 160.942 345.864 160.565L385.787 130.8C386.533 130.238 387.588 130.382 388.128 131.121C388.668 131.861 388.491 132.916 387.735 133.477L326.756 178.941C326.722 178.964 326.699 179 326.691 179.042C326.683 179.083 326.69 179.127 326.712 179.166C326.734 179.204 326.768 179.234 326.809 179.25C326.849 179.266 326.893 179.267 326.932 179.253L374.336 157.682C375.239 157.272 376.299 157.71 376.592 158.661C376.856 159.491 376.384 160.403 375.576 160.77L349.694 172.544C348.752 172.975 348.297 174.069 348.672 175.012C348.908 175.578 349.122 176.142 349.346 176.705C349.346 176.705 349.346 176.705 349.357 176.723C349.386 176.783 349.419 176.838 349.45 176.897C350.67 179.35 352.28 181.607 354.21 183.573C354.476 183.835 354.745 184.088 355.017 184.332C355.193 184.49 355.333 184.685 355.427 184.901C355.52 185.117 355.563 185.348 355.554 185.576L354.895 225.291C354.886 225.532 354.929 225.775 355.021 226.005C355.113 226.235 355.252 226.446 355.428 226.624C355.604 226.801 355.814 226.94 356.042 227.032C356.271 227.124 356.513 227.167 356.751 227.156L416.698 226.34C417.211 226.324 417.686 226.121 418.037 225.768C418.388 225.416 418.592 224.938 418.61 224.422L418.668 220.887L419.268 184.707C419.276 184.449 419.337 184.2 419.447 183.974C419.557 183.749 419.713 183.552 419.906 183.396C427.37 177.232 432.929 158.661 435.14 132.44C435.66 126.407 433.694 120.355 429.749 115.869Z" fill="#FFE500"/>
<path d="M49.8355 128.377L49.8047 130.237L58.7132 136.23L58.1339 171.162L49.2804 161.856L48.9236 183.369L15.4049 183.815L15.5987 172.127C11.8417 175.101 7.68924 177.806 3.02205 179.735L3.75318 135.644C10.258 134.763 13.7458 132.189 15.644 128.852L3.86311 129.014L4.42687 95.0165L16.8802 94.8476L16.9332 91.6495C13.2247 91.7005 9.11392 91.8896 4.47765 91.9538L4.95774 63.0016C44.1756 62.4685 54.5241 61.5297 62.5243 58.3671L62.0442 87.3193C59.1087 88.5524 56.9727 89.5117 50.4626 90.2637L50.3944 94.3793L61.9297 94.2246L61.3658 128.232L49.8355 128.377ZM122.586 166.687L122.324 182.491L89.4649 182.938L89.6432 172.18L60.6835 177.223L61.3001 140.037L74.4513 137.735L64.0452 134.16L64.6376 98.4352L87.9457 106.749L87.4679 135.558L90.2599 134.989L91.5194 59.0357L124.378 58.5885L123.202 129.504L127.454 128.648L126.837 165.831L122.586 166.687ZM64.6904 95.2495L65.2937 58.868L88.6018 67.1814L87.9984 103.568L64.6904 95.2495Z" fill="white"/>
<path d="M217.334 172.565C206.924 177.221 194.552 180.312 179.175 181.185L179.78 144.663C182.426 144.761 184.812 144.729 187.065 144.697C185.736 142.16 184.54 139.561 183.484 136.913L183.48 137.178C181.348 137.872 178.824 138.438 176.297 139.002L175.889 163.57C175.72 173.797 168.038 181.734 159.028 181.857L135.577 182.166L136.118 149.509L140.755 149.442C141.509 149.414 142.209 149.114 142.728 148.596C143.247 148.077 143.55 147.375 143.584 146.615L143.619 144.49C140.832 144.793 137.914 145.099 135.394 145.266L135.955 111.404C138.608 111.236 141.393 110.933 144.181 110.63L144.339 101.067L136.125 101.18L136.708 65.9865L144.923 65.8742L145.046 58.4374L177.64 57.9954L177.517 65.4321L184.671 65.3332L184.088 100.526L176.933 100.623L176.871 104.352C179.533 103.651 182.05 102.82 184.061 102.13L183.55 132.93L213.626 132.52C214.567 134.092 215.753 135.511 217.134 136.72C220.025 134.74 222.416 132.128 224.148 129.057L185.861 129.57L186.365 99.1663L203.59 98.9332L203.643 95.7351L186.418 95.9706L186.982 61.973L204.206 61.7399L204.277 57.4889L238.723 57.02L238.653 61.2685L260.911 60.9658L260.348 94.9634L238.089 95.2662L238.036 98.4643L257.916 98.1943L257.436 127.144C255.243 132.751 252.63 138.156 249.618 143.315L259.553 143.181L258.934 180.497C245.546 180.678 230.614 178.491 217.334 172.565Z" fill="white"/>
<path d="M141.955 261.753C137.911 274.154 132.279 285.776 124.745 296.461L147.008 304.334L146.191 353.579L88.5103 330.475C66.8469 343.578 38.8665 352.301 3.16897 354.071L3.91891 308.846C12.7053 308.754 21.4292 308.046 30.028 306.727L2.22051 295.403C8.46714 285.382 14.406 274.393 19.709 263.418L1.62775 263.671L2.35917 219.563L37.7188 219.082C39.339 214.439 40.5947 209.651 41.475 204.76L92.9939 204.066C91.9544 208.898 90.596 213.718 89.2378 218.386L151.796 217.534L151.065 261.635L141.955 261.753ZM72.357 262.703C70.2037 267.221 68.041 271.422 65.5891 275.299L81.0146 280.863C85.9033 275.342 89.848 269.038 92.9955 262.421L72.357 262.703Z" fill="#FFE500"/>
<path d="M245.971 329.055L211.809 329.52L212.414 293.023L242.205 292.619C248.694 292.531 250.348 288.526 250.456 282.024L250.949 252.297L223.011 252.687C217.645 296.943 196.111 318.334 163.351 330.19L164.07 286.783C176.737 281.294 183.736 274.3 186.466 253.175L164.623 253.474L165.228 216.977L188.002 216.667L188.169 206.581L224.712 206.083L224.544 216.169L287.832 215.307L286.694 283.918C286.23 311.92 276.422 328.64 245.971 329.055Z" fill="#FFE500"/>
<path d="M361.344 338.653L361.512 328.478C358.219 333.544 354.559 337.327 350.667 339.7L350.693 338.152L298.143 338.87L299.947 230.05L314.337 229.855L313.024 309.053L315.08 309.025L316.562 219.652L336.219 219.384L334.737 308.759L337.049 308.725L338.362 229.527L352.625 229.332L351.664 287.283C353.239 285.21 353.951 281.073 354.094 272.445L354.965 219.901L418.714 219.023L418.008 268.234L401.565 268.448L401.415 277.464L403.217 277.439L403.304 272.158L416.408 271.98L415.887 303.402L400.982 303.604L400.841 312.103L402.642 312.079L402.736 306.421L417.381 306.222L416.856 337.902L361.344 338.653ZM379.133 303.905L371.424 304.01C371.161 305.045 370.879 305.948 370.606 306.854L377.159 306.764L377.066 312.422L378.992 312.397L379.133 303.905ZM379.716 268.749L375.733 268.801L375.73 268.932C375.709 270.218 375.562 271.38 375.543 272.539L377.727 272.508L377.64 277.79L379.567 277.762L379.716 268.749ZM391.078 242.07L381.312 242.203L381.25 245.937L391.016 245.804L391.078 242.07Z" fill="#FFE500"/>
<path d="M535.548 283.435L512.403 283.75C500.969 283.906 491.992 276.986 492.212 263.731L492.308 257.931L483.767 258.048L483.721 260.81L489.783 260.727L489.396 284.063L483.334 284.146L483.298 286.36L555.075 285.382L554.489 320.733L461.911 321.98C452.405 322.109 446.094 320.677 441.202 316.601C437.149 320.109 432.292 322.382 426.223 322.879L427.093 270.417C429.595 269.001 429.918 266.099 430.002 260.989L451.22 260.699L451.257 258.485L427.423 258.811L427.931 228.158L442.26 227.965L442.301 225.478L429.487 225.653L429.961 197.07L442.775 196.894L442.825 193.856L479.056 193.364L479.006 196.402L490.993 196.237L490.519 224.825L478.532 224.988L478.49 227.473L492.819 227.279L492.876 223.835L520.706 223.458L520.747 220.951L492.915 221.35L493.382 193.168L554.826 192.332L553.89 248.809L526.612 249.18L526.59 250.56C526.571 251.665 527.112 252.348 528.076 252.335L536.618 252.219C545.986 252.094 548.892 251.915 555.819 248.506L555.303 279.576C548.79 282.289 546.433 283.287 535.548 283.435ZM451.078 269.122C450.418 273.868 449.189 278.474 447.415 282.841C448.343 283.949 449.507 284.833 450.808 285.417L451.078 269.122Z" fill="#FFE500"/>
<path d="M676.322 259.7L676.271 262.792L625.393 263.485L625.442 260.533C622.366 262.042 619.115 263.205 615.743 264.001L615.555 275.334L568.017 275.982L568.252 261.815L615.79 261.169L615.829 258.849L565.593 259.535L566.016 234.037L616.252 233.351L616.288 231.162L568.75 231.81L569.002 216.614L616.54 215.956L616.346 227.676C624.972 226.529 631.754 220.384 634.023 215.202L668.585 214.732C670.699 218.952 676.74 226.075 686.498 226.726L685.896 263.041C682.607 262.329 679.391 261.206 676.322 259.7V259.7ZM567.745 292.723L567.986 278.172L615.519 277.523L615.278 292.074L567.745 292.723ZM567.016 336.637L567.706 295.04L615.239 294.394L614.55 335.989L567.016 336.637ZM594.256 312.953L588.218 313.036L588.131 318.315L594.168 318.232L594.256 312.953ZM665.823 335.154L666.019 323.304L663.705 323.338L663.538 333.382L651.333 333.549L651.5 323.502L649.701 323.527L649.534 333.573L637.329 333.738L637.495 323.694L635.056 323.716L634.859 335.566L616.614 335.814L617.775 265.776L685.228 264.859L684.066 334.913L665.823 335.154ZM638.761 293.806L635.293 293.855L635.163 301.709L638.631 301.661L638.761 293.806ZM651.391 237.112C650.207 238.802 649.024 240.492 647.842 242.054L654.778 241.952C653.647 240.439 652.519 238.78 651.391 237.122L651.391 237.112ZM652.766 293.615L649.555 293.66L649.425 301.515L652.635 301.472L652.766 293.615ZM666.77 293.423L663.56 293.466L663.43 301.323L666.64 301.281L666.77 293.423Z" fill="white"/>
<path d="M732.972 333.605L733.098 326.006C722.753 330.138 712.187 332.215 694.199 332.459L694.737 300.011C696.151 299.993 697.566 299.845 698.98 299.824L699.503 268.27L695.262 268.326L695.801 235.873L700.042 235.817L700.39 214.825L734.309 214.362L733.961 235.354L736.015 235.326L736.314 217.296L756.879 217.025L756.926 214.191L795.726 213.664L795.679 216.495L816.237 216.216L815.923 235.146L736.908 236.223L736.385 267.768L733.44 267.808L733.038 292.02C734.088 291.448 735.084 290.788 736.015 290.046L735.742 306.528L814.757 305.451L814.309 332.495L732.972 333.605ZM738.479 272.762L739.051 238.248L813.442 237.234L812.87 271.748L738.479 272.762ZM737.955 304.312L738.444 274.819L812.835 273.807L812.346 303.296L737.955 304.312ZM788.756 246.316L763.317 246.662L763.033 263.791L788.472 263.443L788.756 246.316ZM765.126 261.574L765.335 248.954L786.661 248.662L786.451 261.284L765.126 261.574ZM780.702 282.735L770.293 282.875L770.242 285.967L780.651 285.825L780.702 282.735ZM780.551 291.877L770.142 292.019L770.088 295.239L780.497 295.097L780.551 291.877ZM778.109 253.68L773.613 253.74L773.562 256.833L778.058 256.77L778.109 253.68Z" fill="white"/>
</g>
<g clip-path="url(#clip1_1311_196)">
<path d="M481.756 161.744L482.168 161.724L481.948 161.137L481.673 161.15C481.428 161.162 481.309 161.016 481.314 160.708C481.321 160.278 481.589 159.728 482.12 159.059L482.127 158.599C482.136 158.079 482.733 157.146 483.92 155.802L484.607 155.865L484.531 154.904L484.819 154.246C484.968 153.897 485.096 153.539 485.203 153.172L485.754 153.052L485.856 152.495L485.863 152.037C485.875 151.332 486.203 150.931 486.849 150.836C486.76 150.6 486.702 150.355 486.676 150.109C486.721 149.846 486.854 149.613 487.054 149.448L487.341 148.828C487.557 148.413 487.834 148.036 488.162 147.708C488.513 147.348 488.792 146.922 488.987 146.451C489.153 146.025 489.376 145.628 489.65 145.269L489.747 144.847C490.196 144.07 490.732 143.351 491.344 142.702L492.887 141.018C493.102 140.947 493.338 140.575 493.594 139.905C493.849 139.234 494.177 138.881 494.576 138.868L494.759 138.859C494.879 138.976 494.97 139.032 495.032 139.029C495.045 139.03 495.058 139.028 495.07 139.024C495.082 139.019 495.093 139.012 495.101 139.004C495.11 138.995 495.117 138.984 495.121 138.972C495.126 138.96 495.127 138.947 495.126 138.934L495.046 138.203C495.668 137.558 495.982 137.13 495.986 136.915C495.994 136.425 496.772 135.635 498.32 134.545C498.504 134.476 498.668 134.269 498.811 133.925C498.954 133.58 499.469 133.068 500.338 132.381L500.711 131.995C501.24 131.542 501.642 131.219 501.922 131.017C502.37 129.893 503.3 129.159 504.713 128.813L504.992 128.57C505.04 128.282 505.179 128.024 505.389 127.833C505.598 127.641 505.867 127.526 506.157 127.503C507.091 126.384 508.124 125.797 509.256 125.742C509.198 125.563 509.17 125.379 509.173 125.196C509.179 124.798 509.397 124.589 509.826 124.566C510.059 124.609 510.289 124.675 510.512 124.763C510.891 124.04 511.288 123.574 511.702 123.365C512.019 123.229 512.311 123.045 512.569 122.82C512.739 122.647 512.943 122.512 513.17 122.423C513.356 122.318 513.563 122.253 513.78 122.229C514.133 122.149 514.558 121.852 515.056 121.338C515.178 121.332 515.501 121.163 516.025 120.831L516.302 120.817L516.483 120.901C517.137 120.287 517.677 119.97 518.104 119.949L519.399 119.422C519.592 119.415 519.788 119.453 519.97 119.533C520.094 119.593 520.225 119.633 520.359 119.65C520.687 119.558 520.998 119.419 521.281 119.237L521.466 119.228C521.858 119.454 522.429 119.564 523.177 119.558C523.925 119.552 524.417 120.049 524.653 121.048L525.186 122.174C525.342 122.457 525.431 122.768 525.446 123.081C525.436 123.665 525.513 124.074 525.678 124.309C525.807 124.465 525.891 124.652 525.92 124.848C525.888 125.125 525.798 125.388 525.657 125.62C525.471 125.997 525.378 126.418 525.383 126.851C525.38 127.034 525.252 127.362 525 127.834L524.619 128.678C523.745 131.54 522.942 132.988 522.209 133.023C520.434 133.11 519.556 132.586 519.575 131.452C519.595 130.289 520.504 128.897 522.304 127.277C522.489 127.145 522.772 126.725 523.151 126.019C523.53 125.313 523.719 124.865 523.722 124.68C523.732 124.1 523.462 123.821 522.91 123.847C522.429 123.869 521.974 124.027 521.596 124.304C521.189 124.592 520.716 124.779 520.212 124.853C519.83 124.893 519.465 125.006 519.134 125.185L518.394 125.588C517.43 126.145 516.502 126.758 515.614 127.424L503.058 137.916L502.862 138.66C502.633 138.889 502.375 139.087 502.095 139.249C501.625 139.58 501.287 140.065 501.132 140.63C500.471 141.794 499.799 142.653 499.118 143.208L497.474 145.447L497.096 146.294C496.663 146.499 495.54 147.841 493.726 150.317C493.072 151.119 492.544 151.619 492.141 151.819C492.128 151.819 492.116 151.821 492.104 151.825C492.092 151.83 492.081 151.837 492.073 151.846C492.064 151.855 492.058 151.866 492.054 151.878C492.05 151.89 492.048 151.903 492.05 151.916L492.22 152.643L492.217 152.826C492.211 153.164 491.175 154.823 489.108 157.802L489.012 157.989C488.81 159.164 488.512 160.069 488.12 160.707C487.807 161.168 487.559 161.674 487.383 162.211C487.273 162.611 487.096 162.985 486.86 163.318C486.574 163.755 486.343 164.229 486.172 164.73C486.022 165.184 485.823 165.617 485.578 166.021C485.401 166.277 485.286 166.573 485.242 166.889C485.207 167.18 485.001 167.641 484.625 168.273C484.73 168.586 484.817 168.904 484.883 169.225C484.881 169.348 484.619 170.417 484.097 172.433L484.093 172.618C484.105 173.012 484.225 173.404 484.442 173.748C484.679 174.166 484.89 174.369 485.075 174.36C485.32 174.348 486.121 173.91 487.48 173.047C488.838 172.184 489.815 171.341 490.409 170.517L491.519 169.91L492.217 169.233C492.624 169.186 493.025 169.104 493.414 168.99C493.985 167.645 494.471 166.872 494.872 166.669L495.744 166.624C495.905 166.462 496.03 166.267 496.113 166.05C496.195 165.833 496.233 165.599 496.224 165.361C496.227 165.178 496.666 164.604 497.559 163.642C498.452 162.679 499.114 161.928 499.565 161.384C499.82 161.046 500.113 160.739 500.439 160.471C500.628 160.002 501.08 159.42 501.795 158.726C502.51 158.032 502.987 157.397 503.225 156.82C503.464 156.242 503.813 155.942 504.272 155.919C504.702 155.898 504.918 155.795 504.921 155.61C504.975 155.344 505.072 155.091 505.208 154.861L505.306 154.489C505.869 153.667 506.352 153.107 506.754 152.811L507.129 152.333C507.382 151.8 507.617 151.469 507.834 151.334L508.393 150.756C508.474 150.329 508.689 149.949 509.007 149.669C509.466 149.182 509.852 148.63 510.156 148.028C510.54 147.315 511.004 146.652 511.54 146.053C512.282 145.56 512.885 144.682 513.349 143.419C513.813 142.157 514.432 141.23 515.206 140.639L516.368 138.7C516.932 137.968 517.596 137.583 518.359 137.545C519.001 137.514 519.809 138.14 520.782 139.424C521.754 140.708 522.23 141.963 522.21 143.189L521.765 145.048C521.495 146.592 521.126 147.69 520.657 148.342C520.189 148.994 519.911 149.551 519.825 150.012C519.686 150.591 519.419 151.122 519.044 151.567C518.606 152.141 518.224 153.033 517.9 154.242L516.527 156.834L516.142 157.91C515.785 159.092 515.59 159.792 515.556 160.01C515.517 160.15 515.461 160.284 515.388 160.408C515.315 160.544 515.229 160.672 515.131 160.789C515.012 160.946 514.916 161.121 514.848 161.308C514.808 161.434 514.752 161.552 514.681 161.661C514.666 161.66 514.658 161.646 514.658 161.616C514.279 162.339 514.089 162.762 514.088 162.884C514.083 163.192 514.171 163.34 514.355 163.339C514.6 163.327 514.889 163.13 515.223 162.747C515.489 162.416 515.812 162.136 516.178 161.92C516.455 161.786 516.669 161.556 516.786 161.269C516.881 161.005 517.185 160.707 517.697 160.375C518.209 160.043 518.526 159.874 518.647 159.868L519.014 159.85C519.973 159.19 520.516 158.737 520.643 158.492C520.738 158.365 521.232 158.063 522.128 157.592L523.517 156.88C524.164 156.633 524.955 156.028 525.889 155.065L526.439 155.128C526.741 154.947 527.068 154.807 527.411 154.713C527.594 154.704 527.681 155.023 527.67 155.666C527.664 156.034 527.453 156.336 527.037 156.57C526.622 156.805 526.387 156.984 526.318 157.109L526.405 157.427L526.402 157.61C526.395 158.07 526.156 158.657 525.685 159.369C525.214 160.081 524.705 160.504 524.162 160.639C523.911 160.689 523.677 160.794 523.478 160.946C523.278 161.099 523.116 161.296 523.004 161.524C522.782 161.977 522.61 162.239 522.487 162.305C522.286 162.19 522.07 162.108 521.848 162.061L521.663 162.07C521.418 162.082 521.133 162.265 520.807 162.618C520.277 163.135 519.694 163.594 519.068 163.99L518.325 164.669C518.255 164.781 518.161 164.874 518.048 164.943C517.936 165.012 517.809 165.055 517.675 165.068C515.819 166.415 514.891 167.12 514.89 167.181C513.291 167.896 512.254 168.697 511.781 169.584L510.885 171.052C510.698 171.436 510.477 171.799 510.224 172.139L509.445 174.98C509.188 175.519 508.856 176.015 508.458 176.452L508.456 176.545L508.624 177.547C508.416 177.913 508.173 178.255 507.897 178.57C507.474 179.095 507.036 180.151 506.585 181.736L505.712 184.581L505.241 185.338C504.65 186.07 504.364 186.501 504.361 186.623C504.347 187.483 503.921 188.285 503.084 189.028C503.019 189.214 502.734 189.887 502.227 191.045L501.644 192.958L500.753 194.058L500.556 194.803L499.755 195.875C499.368 196.415 499.069 197.018 498.867 197.663C498.605 198.427 498.169 199.108 497.592 199.654C496.985 200.25 496.678 200.702 496.673 201.008C496.671 201.162 496.144 201.938 495.092 203.338C494.041 204.737 493.453 205.688 493.329 206.191C493.196 206.687 492.81 206.981 492.162 207.075C492.038 207.329 491.956 207.605 491.919 207.892C491.894 208.098 491.813 208.289 491.685 208.445C491.557 208.601 491.387 208.716 491.192 208.777C490.987 208.845 490.8 208.955 490.643 209.101C490.486 209.247 490.363 209.426 490.28 209.626C490.183 209.842 490.028 210.022 489.831 210.149C489.635 210.276 489.404 210.344 489.163 210.346C488.549 210.376 488.163 210.533 488.005 210.817C487.952 210.938 487.869 211.042 487.764 211.119C487.658 211.197 487.533 211.245 487.4 211.259C485.496 211.354 484.345 210.538 483.946 208.812C483.89 208.506 483.745 208.217 483.531 207.983C483.307 207.739 483.174 207.427 483.155 207.106C483.078 206.606 482.915 206.116 482.675 205.66L482.677 205.522L482.869 204.961C482.931 204.966 482.962 204.896 482.964 204.773L482.705 203.821C483.024 202.948 483.188 202.373 483.193 202.098L483.119 200.999C483.037 200.328 483.597 198.785 484.8 196.37C485.584 195.227 486.301 193.539 486.95 191.304C487.184 190.945 487.45 190.609 487.745 190.3L488.691 188.599L489.065 188.168C489.002 188.023 488.974 187.866 488.983 187.713C488.989 187.345 489.291 186.955 489.897 186.541C490.502 186.127 490.863 185.799 490.986 185.547L491.597 184.78L492.162 183.788C492.299 182.924 492.675 182.478 493.287 182.448C493.396 182.455 493.503 182.481 493.606 182.525C493.775 182.297 493.875 182.021 493.895 181.729L493.898 181.546L493.814 181.09C493.815 180.997 494.096 180.646 494.657 180.037L496.385 178.257L496.858 177.454L499.745 174.877C500.051 174.532 500.333 174.166 500.589 173.78L504.978 169.247L505.348 169.044C505.625 168.908 505.766 168.811 505.767 168.749C505.8 168.031 506.016 167.348 506.394 166.765C506.757 166.182 507.06 165.561 507.298 164.909L507.307 164.357C507.47 164.135 507.612 163.898 507.733 163.648L508.198 163.26C508.239 162.969 508.372 162.705 508.577 162.507L508.501 161.548C509.22 160.593 509.581 160.039 509.584 159.886C509.593 159.365 509.912 158.569 510.542 157.497L510.548 157.129C510.558 156.485 510.873 155.903 511.493 155.383C511.585 155.379 511.742 155.066 511.967 154.44C512.192 153.815 512.303 153.491 512.303 153.459L512.222 152.913C511.344 154.15 510.443 155.006 509.52 155.48C507.902 157.152 506.921 158.287 506.576 158.886C506.325 159.293 506.137 159.504 506.014 159.51L505.418 159.539C505.295 159.545 505.078 159.702 504.766 160.007C504.455 160.312 504.299 160.529 504.297 160.651L504.558 161.556C504.353 161.78 504.165 162.02 503.995 162.273L503.903 162.37L503.401 162.303L503.211 162.587L503.293 163.227C503.21 163.331 503.137 163.442 503.073 163.558C502.963 163.746 502.504 164.107 501.702 164.636C501.291 165.421 500.917 165.86 500.579 165.952C500.241 166.046 500.071 166.231 500.066 166.506C500.053 167.275 499.507 167.96 498.427 168.563C498.258 168.675 498.115 168.823 498.008 168.997C497.775 169.313 497.525 169.617 497.26 169.905L496.977 170.424C496.877 170.442 496.784 170.478 496.7 170.53L496.147 170.65C495.993 170.719 495.787 171.127 495.53 171.875L495.345 172.073L494.794 172.192C494.7 172.26 494.572 172.557 494.412 173.083L491.24 176.318L489.165 177.107C488.492 177.365 487.78 177.525 487.049 177.58C486.1 177.627 485.37 177.387 484.86 176.86C484.798 176.854 484.738 176.821 484.68 176.731L483.531 176.925C483.316 176.936 482.833 176.608 482.08 175.941L481.216 175.524C481.216 175.494 480.834 175.036 480.07 174.156C479.306 173.276 478.925 172.666 478.931 172.329L478.865 170.724L478.971 169.892L478.91 168.013C478.96 167.544 479.091 167.094 479.299 166.683C479.481 166.311 479.626 165.92 479.732 165.514C479.797 165.254 479.927 165.018 480.111 164.83L480.214 164.182C480.205 163.851 480.326 163.54 480.55 163.315C480.742 163.135 480.914 162.934 481.064 162.716L481.251 162.518L481.984 162.585L481.721 161.863C481.711 161.842 481.709 161.817 481.715 161.795C481.721 161.773 481.736 161.755 481.756 161.744V161.744ZM486.629 201.742L486.344 202.362L486.6 203.462L486.385 205.447C486.373 206.151 486.521 206.496 486.827 206.481C487.709 205.956 488.469 205.256 489.064 204.419C489.436 203.859 489.844 203.325 490.285 202.821C490.537 202.564 490.832 202.037 491.169 201.239C491.504 200.443 491.732 200.042 491.857 200.034L492.316 200.011C492.563 200 492.693 199.551 492.707 198.66C492.709 198.57 492.862 198.011 493.164 196.979C493.467 195.947 493.778 195.388 494.085 195.28C494.18 195.043 494.246 194.793 494.282 194.536L494.939 193.677C495.144 193.366 495.318 193.034 495.46 192.687L495.756 191.525C496.399 189.656 497.166 188.562 498.056 188.243C498.121 188.198 498.173 188.137 498.206 188.065C498.24 187.993 498.254 187.912 498.247 187.83L498.682 186.431C498.948 185.193 499.48 184.417 500.281 184.103L500.282 184.011C500.278 183.812 500.25 183.613 500.2 183.417L500.204 183.142C500.226 182.902 500.308 182.676 500.445 182.486C500.637 182.143 500.782 181.774 500.875 181.386C501.085 180.77 501.422 180.215 501.865 179.754L501.874 179.203C501.862 178.906 501.929 178.617 502.066 178.365C502.203 178.113 502.406 177.907 502.655 177.767C503.163 177.482 503.421 177.125 503.43 176.697L503.218 175.65L503.032 175.751C503.022 176.335 502.624 176.845 501.837 177.281C501.051 177.717 500.543 178.131 500.315 178.524C500.118 178.9 499.776 179.173 499.363 179.283C498.949 179.395 498.709 179.929 498.626 180.882C498.502 181.071 498.047 181.307 497.261 181.59C496.897 181.704 496.579 181.922 496.343 182.217C496.108 182.513 495.963 182.875 495.927 183.264C495.82 184.097 495.598 184.582 495.259 184.721L494.155 184.959C493.875 185.134 493.669 185.402 493.57 185.722C493.42 186.096 492.847 186.982 491.848 188.379L491.132 190.068L490.662 190.596C490.127 191.45 489.709 192.619 489.409 194.103L488.603 195.475C488.167 195.923 487.945 196.349 487.938 196.747C487.932 197.145 487.63 197.879 487.03 199.032L487.017 199.77C486.704 200.305 486.546 200.634 486.544 200.756L486.629 201.742Z" fill="#FF9A93"/>
<path d="M520.391 160.398L521.136 159.717L521.411 159.704C521.625 159.693 521.951 159.448 522.388 158.966L522.851 158.761C523.478 157.814 524.023 157.252 524.485 157.074L525.228 156.496C525.382 156.348 525.562 156.23 525.762 156.149C525.994 156.046 526.366 155.729 526.88 155.199C527.394 154.669 527.804 154.395 528.11 154.379C528.353 154.358 528.6 154.377 528.843 154.436C529.118 153.969 529.502 153.58 529.964 153.3C530.496 152.947 530.954 152.497 531.318 151.971L531.919 151.666C532.41 151.399 532.856 151.06 533.242 150.659C533.636 150.256 534.174 150.025 534.755 150.012C535.643 149.969 536.562 150.376 537.51 151.233C538.458 152.089 538.926 152.931 538.912 153.758L538.073 157.382C537.509 160.044 536.905 161.451 536.261 161.605L536.061 162.579C535.626 162.907 535.408 163.165 535.405 163.346L535.661 164.435C535.658 164.59 535.487 164.829 535.145 165.151C535.083 165.145 535.051 165.247 535.048 165.43L535.017 167.316C535.011 167.655 534.792 167.941 534.359 168.175C534.44 168.247 534.532 168.304 534.631 168.345C534.819 168.147 535.232 168.04 535.874 168.009L536.607 168.063L537.633 167.003C537.951 166.877 538.253 166.715 538.533 166.522C539.163 166.149 539.818 165.818 540.495 165.53L546.582 160.638C547.42 159.772 548.053 159.328 548.481 159.305C548.938 159.282 549.163 159.564 549.154 160.144C549.159 160.747 549.014 161.33 548.731 161.839C548.434 162.36 548.186 162.91 547.992 163.484C547.843 163.995 547.577 164.456 547.214 164.832C546.933 165.073 546.69 165.355 546.49 165.67C546.301 165.971 545.796 166.417 544.977 167.008C544.228 167.538 543.528 168.133 542.884 168.787C542.449 169.256 541.974 169.686 541.464 170.073L539.468 171.596L539.185 172.069C538.918 172.243 538.632 172.388 538.331 172.501C537.839 172.716 537.38 172.993 536.964 173.325L536.132 173.826C535.861 173.986 535.554 174.08 535.233 174.101C534.808 174.16 534.426 174.365 534.15 174.682C533.839 175.02 533.591 175.193 533.408 175.202L532.721 175.139L531.799 175.459C531.279 175.484 530.649 175.202 529.911 174.611C529.173 174.021 528.809 173.372 528.819 172.665L528.824 172.39L528.927 171.743C528.878 171.426 528.79 171.114 528.665 170.814C528.556 170.541 528.469 170.26 528.405 169.976L528.507 169.339L528.42 169.068C528.433 168.241 528.504 167.717 528.63 167.496C528.775 167.214 528.873 166.906 528.92 166.586C528.986 166.2 529.054 165.883 529.118 165.635L529.367 164.473C529.448 164.176 529.611 163.914 529.838 163.715C529.903 163.469 530.034 163.048 530.226 162.459L530.424 161.615L530.892 160.95C531.146 160.676 531.302 160.323 531.338 159.94C531.416 159.46 531.588 159.006 531.843 158.605C532.025 158.347 532.168 158.062 532.269 157.757C532.275 157.389 532.096 157.216 531.728 157.234C531.607 157.24 531.22 157.504 530.568 158.025L529.746 157.79C529.686 157.785 529.514 157.954 529.234 158.275C529.232 158.398 529.093 158.497 528.817 158.571C528.541 158.645 528.275 158.889 528.024 159.299L527.655 159.41L527.063 159.161L526.881 159.17C526.574 159.185 526.383 159.534 526.312 160.21C525.993 160.697 525.522 161.058 524.965 161.241L523.952 161.565C523.772 161.648 523.613 161.766 523.485 161.915C523.356 162.063 523.26 162.238 523.202 162.429C523.004 162.917 522.682 163.336 522.265 163.646C521.8 164.021 521.491 164.213 521.338 164.22C520.479 164.262 520.058 163.808 520.073 162.859L520.478 160.68L520.391 160.398ZM540.596 136.44L540.35 134.659L540.355 134.384C540.379 132.951 540.881 132.13 541.863 131.921C542.524 131.728 543.172 131.5 543.805 131.238C544.352 131.334 544.917 131.789 545.498 132.602C546.08 133.415 546.366 134.143 546.357 134.787C546.329 134.934 546.28 135.074 546.212 135.205C546.084 135.597 546.015 136.011 546.008 136.433C545.968 137.032 545.661 137.568 545.089 138.039C544.587 138.482 543.949 138.746 543.264 138.795C542.834 138.816 542.298 138.545 541.649 137.979C541 137.414 540.648 136.897 540.596 136.44Z" fill="#FF9A93"/>
<path d="M557.666 152.182L558.359 151.964L558.643 151.344C560.157 150.383 561.244 149.488 561.906 148.658C562.009 148.493 562.153 148.359 562.324 148.266C562.595 148.083 562.831 147.855 563.024 147.589C564.173 146.403 565.529 145.77 567.09 145.691C568.926 145.601 569.887 146.671 569.971 148.902L570.237 149.573C570.472 149.988 570.803 150.846 571.224 152.14C571.644 153.434 571.854 154.24 571.849 154.545C571.806 155.457 571.523 156.322 571.029 157.054C570.596 157.29 569.552 158.49 567.897 160.654L567.433 160.997C567.157 161.598 566.825 162.168 566.441 162.7C565.825 162.945 565.516 163.19 565.513 163.435L565.499 164.261C565.455 164.404 565.38 164.533 565.279 164.639C565.053 164.983 564.856 165.346 564.688 165.724L564.312 166.295C564.136 166.523 564.007 166.786 563.932 167.07C563.807 167.454 563.623 167.811 563.387 168.131C563.2 168.34 563.077 168.6 563.031 168.885C563.023 169.343 563.616 169.541 564.81 169.479C565.051 169.399 565.283 169.295 565.502 169.17L566.143 169.321C566.317 169.245 566.474 169.136 566.605 169C566.939 168.745 567.324 168.562 567.738 168.458C568.218 168.323 568.669 168.116 569.078 167.842C569.511 167.554 569.975 167.316 570.465 167.13C571.038 166.898 571.562 166.57 572.017 166.159C572.449 165.762 572.94 165.436 573.476 165.19C573.978 164.968 574.433 164.658 574.821 164.276C575.263 163.856 575.736 163.472 576.239 163.126C576.764 162.764 577.603 161.988 578.755 160.797C579.498 160.18 580.007 159.834 580.285 159.757C580.345 159.754 580.619 159.335 581.108 158.499C581.596 157.666 582.143 157.231 582.757 157.202C583.371 157.172 583.716 157.462 583.706 158.075C583.677 158.461 583.508 158.812 583.231 159.063L583.226 159.338L583.306 160.069C583.374 160.197 583.403 160.339 583.39 160.477C583.388 160.6 583.271 160.79 583.037 161.046C582.795 161.318 582.625 161.65 582.54 162.013C582.442 162.4 582.146 162.668 581.656 162.814C581.46 163.496 581.209 163.891 580.924 163.998C580.64 164.106 580.222 164.432 579.694 164.977C578.992 165.674 578.247 166.325 577.461 166.926C576.757 167.449 576.097 168.027 575.485 168.655C575.126 169.053 574.885 169.255 574.762 169.263C574.632 169.237 574.507 169.18 574.398 169.098C574.29 169.014 574.165 168.957 574.034 168.931C573.852 168.94 573.726 169.161 573.659 169.594L573.466 170.061C573.254 170.224 573.02 170.36 572.771 170.465L572.498 170.386L572.315 170.395C571.948 170.413 571.761 170.559 571.757 170.834L572.026 171.29L572.024 171.382C572.017 171.812 571.767 172.037 571.28 172.061C570.943 172.078 569.955 172.693 568.315 173.906L566.972 174.284L565.861 174.936C565.65 174.802 565.418 174.708 565.179 174.658L564.441 174.924L563.108 175.082C563.076 175.079 562.522 174.799 561.447 174.244C560.372 173.689 559.733 173.108 559.528 172.502C559.314 171.876 559.048 171.267 558.733 170.68C558.405 170.076 558.244 169.647 558.25 169.395C558.274 167.924 558.414 166.868 558.669 166.227C558.864 165.767 559.026 165.291 559.152 164.802C559.254 164.422 559.44 164.076 559.696 163.788C559.992 163.423 560.24 162.837 560.435 162.03C561.351 160.21 561.981 159.092 562.325 158.675C562.684 158.231 562.957 157.72 563.131 157.166L563.741 156.309C563.871 156.085 563.967 155.841 564.028 155.584C564.157 155.165 564.314 154.919 564.499 154.85C564.749 154.407 564.878 154.126 564.88 154.004C564.895 153.115 564.504 152.69 563.709 152.729C563.554 152.736 563.384 152.914 563.196 153.235C563.008 153.556 562.58 153.902 561.918 154.24C561.477 154.437 561.064 154.688 560.689 154.989C560.39 155.242 560.054 155.451 559.692 155.61C559.165 155.882 558.713 156.273 558.367 156.755L557.582 157.16C557.327 157.756 557.107 158.088 556.922 158.157C556.736 158.226 556.167 158.408 555.216 158.701C555.038 158.872 554.88 159.065 554.747 159.276C554.628 159.444 554.47 159.58 554.286 159.675C554.103 159.77 553.897 159.821 553.685 159.824C553.281 160.246 552.906 160.694 552.56 161.166C552.217 161.26 551.891 161.4 551.59 161.581L550.668 161.856C550.357 162.123 550.082 162.43 549.85 162.769C549.557 163.182 549.011 163.407 548.211 163.446C547.751 163.468 547.53 163.112 547.542 162.376C547.54 161.665 547.685 160.972 547.968 160.342C548.25 159.711 548.664 159.156 549.184 158.713C550.255 157.773 551.036 157.26 551.526 157.175C552.016 157.088 552.324 156.891 552.452 156.577C552.579 156.264 552.89 155.999 553.36 155.775C553.829 155.551 554.396 155.082 555.035 154.361C555.59 153.701 556.296 153.187 557.1 152.858L557.666 152.182Z" fill="#FF9A93"/>
<path d="M587 162.125L587.006 161.802C587.003 161.458 587.039 161.117 587.115 160.787C586.949 160.363 586.863 159.916 586.86 159.472C586.861 159.409 587.022 158.974 587.341 158.161L587.778 156.717C587.887 156.41 588.014 156.112 588.16 155.824C588.05 155.56 587.962 155.288 587.897 155.012C587.894 154.349 588.114 153.723 588.523 153.234C588.985 152.648 589.338 151.978 589.564 151.253L590.527 148.404L592.101 144.653C592.23 144.389 592.377 144.136 592.543 143.896C592.809 143.49 593.03 143.129 593.204 142.831C593.379 142.532 593.622 142.098 593.938 141.53L594.397 141.418C594.506 141.322 594.573 141.188 594.587 141.039C594.547 140.795 594.489 140.553 594.415 140.314L596.065 137.569L597.062 135.543C597.295 135.098 597.651 134.737 598.091 134.499C598.721 133.336 599.268 132.62 599.731 132.351C599.981 131.652 600.331 131.001 600.772 130.416L601.645 130.281C601.762 129.931 601.922 129.6 602.12 129.295L602.228 128.37C602.225 128.555 602.301 128.497 602.46 128.198C602.62 127.898 602.856 127.344 603.174 126.54L604.436 125.056L604.814 124.393C604.972 124.173 605.224 123.746 605.569 123.116C606.058 122.886 606.461 122.516 606.734 122.049L607.711 121.219C607.655 120.887 608.034 120.116 608.85 118.914C609.367 118.677 609.85 118.376 610.287 118.016L610.934 117.8C610.952 116.726 611.346 115.973 612.117 115.54L612.675 115.145C612.937 114.984 613.215 114.847 613.505 114.737L613.829 114.629C614.239 114.48 614.675 114.396 615.12 114.381C615.662 114.347 616.214 114.429 616.741 114.621C617.267 114.813 617.755 115.111 618.175 115.496C619.079 116.296 619.521 117.232 619.504 118.301C619.497 118.731 619.26 119.186 618.793 119.668L618.604 120.045C618.147 121.752 617.826 122.61 617.643 122.619C617.445 122.665 617.268 122.769 617.134 122.919C617.057 123.933 616.986 124.503 616.924 124.622C616.37 124.741 616.083 125.444 616.063 126.732C615.883 127.089 615.653 127.418 615.382 127.707C614.948 128.257 614.633 128.896 614.456 129.588C614.228 130.382 613.992 130.782 613.749 130.794L613.243 130.819L613.369 131.502C613.362 131.932 613.14 132.362 612.73 132.798C612.351 133.16 612.082 133.625 611.95 134.144C611.852 134.609 611.474 135.177 610.821 135.854L610.35 136.612C610.131 136.972 609.88 137.309 609.599 137.62C609.228 138.089 608.955 138.633 608.794 139.221L607.564 141.477C606.712 143.019 606.073 143.77 605.648 143.731C605.496 144.445 605.301 145.147 605.062 145.831C604.904 146.073 604.678 146.259 604.409 146.367C604.057 146.55 603.78 146.845 603.616 147.21C603.468 147.541 603.262 147.839 603.006 148.091L602.151 149.832C601.642 150.088 601.259 150.532 601.075 151.079C600.583 151.226 600.271 151.655 600.137 152.365C599.939 152.622 599.78 152.908 599.664 153.215L598.032 154.903C597.196 155.527 596.742 156.215 596.668 156.968C596.594 157.72 596.19 158.114 595.456 158.149C594.936 158.174 594.175 157.981 593.172 157.57L593.082 157.575C592.942 158.1 592.716 158.592 592.414 159.032L592.578 160.264C592.576 160.419 592.315 161.396 591.796 163.197C592.033 163.649 592.15 163.959 592.147 164.144L592.038 165.16L592.247 166.389C592.383 167.392 592.742 167.882 593.323 167.851L594.422 167.982C594.828 167.762 595.215 167.51 595.58 167.227L597.291 166.226C597.351 166.231 597.383 166.252 597.382 166.312C597.617 166.408 597.865 166.458 598.113 166.461C598.418 166.446 598.574 166.193 598.582 165.703L598.592 165.105C598.735 164.83 598.974 164.623 599.267 164.521C599.544 164.437 599.791 164.283 599.984 164.072C600.202 163.846 600.372 163.731 600.494 163.725L600.953 163.702C601.41 163.68 601.648 163.132 601.667 162.06C601.84 161.953 601.997 161.823 602.133 161.672L602.682 161.645C602.927 161.633 603.198 161.322 603.5 160.71C603.67 160.315 603.884 159.942 604.136 159.599C604.54 159.558 604.929 159.448 605.287 159.274C606.295 157.45 607.059 156.525 607.579 156.499L607.854 156.483C608.381 155.97 608.672 155.518 608.734 155.134C608.743 154.971 608.79 154.815 608.871 154.679C608.953 154.544 609.067 154.432 609.204 154.353C609.464 154.218 609.705 154.052 609.922 153.859C610.038 153.731 610.181 153.629 610.341 153.561C610.798 153.538 611.025 153.697 611.02 154.035L610.861 155.328L611.158 156.69C611.156 156.813 611.023 157.059 610.757 157.422C610.501 157.76 610.358 158.175 610.347 158.614C610.333 159.503 610.172 159.986 609.866 160.063C609.527 160.165 609.251 160.401 609.098 160.72C608.846 161.132 608.504 161.477 608.097 161.733C607.622 162.059 607.251 162.514 607.022 163.049L606.237 163.272L605.776 163.57C605.392 164.54 604.992 165.142 604.577 165.375C604.161 165.608 603.638 166.278 603.007 167.384C602.917 167.389 602.869 167.421 602.868 167.484L602.138 167.427C601.853 167.931 601.573 168.237 601.297 168.341C601.011 168.453 600.77 168.648 600.601 168.904C600.339 169.227 599.996 169.474 599.603 169.619C599.125 169.825 598.823 170.056 598.699 170.305C598.649 170.42 598.573 170.52 598.476 170.596C598.379 170.673 598.264 170.725 598.14 170.747C597.875 170.798 597.635 170.926 597.448 171.114C597.306 171.282 597.112 171.396 596.893 171.44C596.831 171.435 596.619 171.415 596.251 171.381L596.066 171.39C595.54 171.785 595.108 171.989 594.769 172.005C594.457 172.002 594.155 172.08 593.894 172.233C593.629 172.095 593.341 172.015 593.051 171.998C592.604 171.936 592.166 171.803 591.751 171.603C591.437 171.704 591.113 171.781 590.784 171.833C590.265 171.859 589.616 171.378 588.839 170.39C588.061 169.403 587.68 168.418 587.695 167.438C587.543 167.193 587.371 166.961 587.181 166.744C586.844 166.34 586.664 165.831 586.677 165.324L586.685 164.864L586.784 164.306L586.798 163.433L586.895 163.154C587.356 163.069 587.586 163.002 587.587 162.935L587 162.125ZM596.515 149.484L597.488 148.887C597.617 148.39 598.026 147.779 598.709 147.06C599.392 146.341 599.875 145.97 600.149 145.956L600.517 145.936C600.523 145.709 600.573 145.488 600.665 145.287C600.771 145.01 600.822 144.711 600.816 144.407C600.819 144.225 601.241 143.698 602.082 142.828L602.463 141.984C602.751 141.172 603.45 140.479 604.559 139.905C605.003 138.996 605.331 138.535 605.545 138.524L605.914 138.416C606.057 137.928 606.315 137.489 606.669 137.137L606.858 136.853L606.87 136.117C606.871 136.057 607.081 135.794 607.501 135.329C607.864 134.947 608.172 134.515 608.417 134.043C608.592 133.669 608.857 133.35 609.189 133.111C609.552 132.818 609.794 132.401 609.874 131.929L610.61 131.8C610.596 131.531 610.631 131.264 610.715 131.015L610.813 130.55C610.973 130.176 611.525 129.184 612.469 127.575L613.231 125.838C613.234 125.653 613.367 125.42 613.631 125.151C613.908 124.845 614.054 124.437 614.04 124.006L614.432 122.472C614.444 121.767 614.327 121.42 614.083 121.432C613.821 121.634 613.534 121.802 613.227 121.933C612.964 122.038 612.703 122.602 612.442 123.627C611.519 123.885 610.984 124.347 610.836 125.013C610.662 125.717 610.258 126.327 609.685 126.746L609.354 127.315C609.286 127.655 608.991 128.02 608.465 128.413C607.939 128.807 607.439 129.461 606.965 130.371C605.399 132.559 604.538 133.734 604.384 133.897L603.916 134.472L603.23 134.409C603.303 134.679 603.359 134.953 603.399 135.228C603.379 135.443 603.278 135.637 603.115 135.77C602.928 135.947 602.784 136.165 602.693 136.41C602.55 136.732 602.36 137.028 602.127 137.288C601.774 137.766 601.509 138.307 601.343 138.888C601.102 139.619 600.895 140.053 600.704 140.181L600.062 140.122C599.658 140.387 599.457 140.642 599.453 140.887L599.579 141.523C599.547 141.702 599.455 141.86 599.319 141.973C599.086 142.269 598.917 142.613 598.822 142.985C598.504 143.79 598.107 144.555 597.636 145.271C597.014 146.29 596.513 147.385 596.143 148.535C595.772 149.672 595.416 150.402 595.075 150.724C595.113 150.756 595.158 150.78 595.205 150.793C595.252 150.807 595.301 150.81 595.348 150.803C595.743 150.772 596.134 150.339 596.515 149.493L596.515 149.484Z" fill="#FF9A93"/>
<path d="M656.076 140.469L656.451 139.993C656.663 139.679 656.996 139.473 657.378 139.419C657.786 139.349 658.175 139.214 658.53 139.016L665.309 136.801C666.091 136.588 666.89 136.426 667.7 136.316L669.176 135.784C669.707 135.553 670.285 135.431 670.879 135.426L672.4 135.029C672.522 135.023 672.628 135.132 672.716 135.358C672.805 135.583 672.878 135.696 672.938 135.692C674.392 134.677 675.318 134.157 675.716 134.132L675.808 134.128L676.905 134.349C677.153 134.3 677.368 134.159 677.508 133.952L677.694 133.754C678.049 133.918 678.415 134.054 678.787 134.16C679.329 134.12 679.856 134.001 680.353 133.806C680.879 133.607 681.438 133.487 682.01 133.451L683.43 133.473L686.599 133.133C686.815 133.137 687.028 133.225 687.192 133.38L688.114 133.15C688.989 133.106 689.875 133.188 690.746 133.392C691.784 133.617 692.832 133.749 693.88 133.787C695.101 133.851 695.982 134.219 696.521 134.892L697.298 135.129L697.848 135.102C698.644 135.063 699.111 135.362 699.255 135.998C699.431 136.356 699.794 136.706 700.338 137.047L700.919 137.984C700.855 138.16 700.821 138.349 700.817 138.541C700.814 138.723 701.147 138.921 701.815 139.134L701.999 139.216C702.021 139.674 702.304 140.189 702.844 140.76C703.384 141.331 703.642 142.427 703.615 144.051L703.597 145.156L703.74 147.539C703.713 149.164 703.199 151.15 702.197 153.494C701.196 155.839 700.152 157.497 699.065 158.47C698.806 159.308 698.509 159.736 698.172 159.754C697.083 160.789 696.39 161.313 696.085 161.326C695.99 161.321 695.896 161.295 695.809 161.249C695.316 162.09 694.621 162.785 693.783 163.277C693.201 163.671 692.59 164.024 691.955 164.332C691.677 164.439 690.97 164.733 689.832 165.214L688.735 164.993C688.269 165.445 687.945 165.691 687.76 165.73L685.311 166.86C683.254 167.513 681.904 167.855 681.261 167.885L680.119 167.565C679.936 167.574 679.656 167.818 679.281 168.296L678.419 168.524C678.238 168.348 677.643 168.239 676.636 168.197C676.332 168.442 675.968 168.602 675.575 168.664L673.55 169.038C673.305 169.05 673.156 168.829 673.102 168.372L672.687 168.53L672.494 169.182C672.353 169.255 672.196 169.294 672.033 169.297L669.606 169.14L668.455 169.465L666.58 169.19L665.66 169.321L664.887 168.991L664.151 169.12L663.42 168.973L662.545 169.198L662.364 169.115C662.249 169.352 662.09 169.562 661.895 169.735C661.603 170.036 661.351 170.375 661.145 170.743C660.47 171.298 659.994 172.058 659.779 172.924C659.582 173.759 659.039 174.245 658.15 174.381C658.086 174.507 657.993 174.664 657.867 174.855C657.995 175.097 658.084 175.357 658.129 175.622L658.126 175.807C658.114 176.542 657.506 177.322 656.301 178.146C656.098 179.259 655.863 180.067 655.595 180.571C655.375 180.965 655.191 181.381 655.047 181.813C654.903 182.192 654.621 182.493 654.255 182.658L654.067 182.942L654.045 184.275C653.977 184.485 653.88 184.683 653.759 184.863C653.571 185.195 653.301 185.682 652.956 186.297L652.674 186.771L652.28 188.304C651.987 188.507 651.749 188.778 651.585 189.096C651.42 189.415 651.334 189.773 651.331 190.143L651.38 192.76C651.372 193.218 651.066 193.709 650.461 194.228C649.856 194.748 649.262 195.023 648.68 195.051C647.177 195.124 646.166 194.27 645.646 192.489L645.378 192.135C644.744 191.646 644.435 190.88 644.453 189.838C644.473 188.642 645.129 186.819 646.422 184.368L649.544 178.749C649.576 178.684 649.977 178.389 650.75 177.862L651.253 178.021C651.316 177.983 651.367 177.928 651.4 177.862C651.433 177.796 651.448 177.72 651.442 177.644C651.308 177.2 651.146 176.763 650.959 176.335L650.962 176.152C650.957 176.044 650.986 175.939 651.045 175.854C651.104 175.768 651.191 175.706 651.292 175.677L651.666 175.246L651.589 174.33C652.154 173.474 652.453 172.924 652.487 172.678L652.964 171.598C653.281 170.878 653.534 170.498 653.717 170.459C653.737 169.233 654.119 168.311 654.863 167.693L655.243 166.892C655.307 166.79 655.394 166.705 655.499 166.644C655.603 166.583 655.722 166.549 655.845 166.543C656.153 166.498 656.306 166.443 656.307 166.37C656.299 166.217 656.254 166.065 656.177 165.927C656.101 165.789 656.056 165.638 656.047 165.485C656.052 165.179 656.235 164.772 656.595 164.264C656.955 163.756 657.212 163.498 657.365 163.491L658.045 163.87L658.05 163.594C657.75 163.334 657.601 163.112 657.604 162.927C657.608 162.684 657.751 162.346 658.033 161.919C658.237 161.633 658.411 161.324 658.552 160.998L658.927 160.52C658.987 160.525 659.149 160.081 659.407 159.211C659.666 158.341 660.025 157.909 660.484 157.917L660.492 157.459C660.497 157.152 660.861 156.396 661.583 155.19L664.089 150.751C664.154 150.44 664.408 149.893 664.85 149.098L664.776 147.999C664.784 147.511 665.079 146.731 665.662 145.659C666.245 144.587 666.72 144.044 667.088 144.029C667.218 144.009 667.355 144.034 667.477 144.101C667.536 144.155 667.613 144.184 667.69 144.183L668.426 144.055L669.872 145.316C670.264 145.639 670.484 146.226 670.531 147.076L670.709 147.342C671.453 148.716 671.819 149.693 671.808 150.273C671.817 150.852 671.735 151.421 671.566 151.961C671.416 152.349 670.942 152.824 670.144 153.385C669.362 154.319 668.874 155.116 668.682 155.777C668.474 156.473 668.145 157.118 667.711 157.685C667.165 158.481 666.756 159.37 666.498 160.317C666.204 161.377 665.579 162.292 664.711 162.931C664.627 163.654 664.493 164.367 664.311 165.064L664.309 165.156C664.306 165.339 664.425 165.425 664.67 165.405L666.188 165.146C666.411 165.143 666.635 165.178 666.851 165.252C667.099 165.33 667.355 165.364 667.607 165.351C667.95 165.298 668.268 165.156 668.53 164.939L668.805 164.925C668.927 164.919 669.307 165.055 669.945 165.329L670.132 165.228C670.319 164.914 670.506 164.75 670.689 164.741L672.476 164.838L673.349 164.703C673.783 164.407 674.451 164.221 675.353 164.144C676.256 164.07 676.884 163.949 677.239 163.777C677.535 163.627 677.853 163.518 678.184 163.454C678.566 163.37 678.93 163.229 679.263 163.034C679.605 162.831 679.989 162.702 680.393 162.656C681.096 162.621 682.08 162.252 683.346 161.547C683.587 161.614 683.832 161.663 684.077 161.696C684.368 161.68 684.647 161.599 684.895 161.46C685.143 161.32 685.353 161.125 685.511 160.888C685.888 160.382 686.305 160.085 686.765 160.002L689.577 158.621C689.823 158.518 690.367 157.985 691.208 157.025L692.043 156.434L692.606 155.624C692.607 155.564 692.901 155.366 693.489 155.031C693.37 154.98 693.272 154.886 693.216 154.769L694.246 153.571C694.207 153.39 694.179 153.208 694.163 153.025L694.166 152.84C694.419 152.43 694.743 152.073 695.123 151.782C695.449 151.554 695.61 151.396 695.611 151.345L695.163 150.817C695.6 150.366 695.819 150.079 695.821 149.958L695.658 148.633L695.882 146.284C695.902 145.089 695.838 144.318 695.691 143.973C695.544 143.63 695.442 143.272 695.386 142.909C694.843 141.824 694.016 140.894 693.003 140.226C692.954 140.19 692.915 140.14 692.891 140.084C692.868 140.029 692.86 139.968 692.869 139.91L692.786 139.455L692.789 139.272L691.315 139.526C691.255 139.521 691.157 139.382 691.025 139.082C690.977 138.947 690.885 138.831 690.764 138.753C690.644 138.675 690.503 138.64 690.367 138.655L689.718 138.962L689.626 138.966C689.411 138.977 688.881 138.712 688.035 138.174C687.652 138.113 687.266 138.102 686.887 138.139L686.248 137.893C686.112 137.796 685.953 137.74 685.792 137.733L685.517 137.746L684.458 137.983L682.121 137.913L680.702 137.707C680.174 138.089 679.834 138.301 679.684 138.309C679.388 138.272 679.095 138.194 678.815 138.076L678.722 138.081L677.343 138.331C676.913 138.414 676.56 138.494 676.284 138.567L676.009 138.581C675.007 138.632 674.229 138.579 673.674 138.42L673.397 138.433C673.072 138.445 672.774 138.582 672.564 138.818C672.421 139.015 672.208 139.149 671.964 139.193C671.84 139.199 671.69 139.007 671.515 138.618C671.238 138.853 670.943 139.067 670.633 139.258L669.812 138.968C669.683 139.221 668.749 139.528 667.008 139.888L664.798 140.456L664.432 140.382C663.864 140.616 663.279 140.814 662.681 140.974C662.254 141.077 661.844 141.227 661.457 141.424C661.104 141.61 660.724 141.745 660.326 141.824C659.728 141.967 659.143 142.149 658.573 142.37L657.842 142.223C657.022 142.711 656.173 143.151 655.298 143.542C654.189 144.054 653.496 144.453 653.214 144.746C653.02 144.989 652.742 145.148 652.428 145.197C652.245 145.187 652.061 145.166 651.878 145.134L651.786 145.138C651.511 145.152 651.055 145.488 650.418 146.147C649.92 146.684 649.366 147.165 648.766 147.583C648.252 147.935 647.829 148.403 647.527 148.953C647.165 149.569 646.355 150.045 645.096 150.382C645.02 150.466 644.956 150.562 644.907 150.666L644.894 151.449C644.4 151.748 643.948 152.306 643.536 153.122L643.254 153.596L643.147 154.474C643.132 155.394 643.001 155.89 642.756 155.963C642.474 156.056 642.216 156.201 641.991 156.39C641.782 156.579 641.516 156.697 641.229 156.727C640.709 156.752 640.227 156.317 639.783 155.42C639.339 154.518 639.118 153.983 639.121 153.798C639.151 151.991 639.77 150.629 640.978 149.71L644.416 147.063C645.56 146.179 646.531 145.717 647.328 145.678C647.664 145.447 647.936 145.135 648.122 144.767C648.405 144.293 649.039 143.926 650.021 143.664L650.751 143.904C650.811 143.909 650.905 143.774 651.032 143.522C651.166 143.263 651.367 143.047 651.615 142.895C651.878 142.73 652.106 142.517 652.29 142.266L653.497 141.425C653.571 141.417 653.637 141.382 653.683 141.326L654.367 141.475C654.466 141.459 654.56 141.423 654.643 141.369C654.845 141.286 655.065 141.245 655.289 141.247C655.409 141.241 655.506 141.082 655.571 140.773C655.695 140.614 655.874 140.506 656.076 140.469Z" fill="#FF9A93"/>
<path d="M712.28 186.536L710.085 188.527C710.038 188.474 709.981 188.432 709.918 188.404C709.856 188.375 709.788 188.36 709.721 188.36C709.414 188.374 709.036 188.669 708.582 189.243C708.129 189.818 707.811 190.107 707.626 190.116L707.17 190.046C706.394 190.667 705.836 191.031 705.499 191.14C705.071 191.29 704.661 191.479 704.273 191.706C703.879 191.944 703.44 192.105 702.978 192.181C702.617 192.221 702.287 192.374 702.031 192.62C701.783 192.859 701.184 193.005 700.235 193.051L699.5 192.984C699.259 193.128 698.995 193.235 698.717 193.299C698.574 193.296 698.432 193.263 698.298 193.202C698.165 193.141 698.043 193.054 697.942 192.946C697.697 192.711 697.38 192.571 697.054 192.554C696.732 192.54 696.414 192.34 696.077 191.958C695.822 191.639 695.506 191.372 695.15 191.177C694.867 191.044 694.623 190.832 694.448 190.568L693.813 190.049C693.297 189.707 692.803 189.058 692.331 188.101C691.859 187.145 691.627 186.39 691.635 185.838L691.638 185.653L691.743 184.776L691.669 183.77C691.862 183.526 692.02 183.255 692.14 182.964L692.164 181.493L693.326 177.762C693.391 177.606 693.272 177.414 692.969 177.182C692.657 177.657 692.345 177.95 692.037 178.055C691.883 178.108 691.746 178.196 691.636 178.313C691.526 178.43 691.446 178.573 691.401 178.731C691.288 179.074 691.109 179.249 690.862 179.261L690.31 179.104C690.135 179.409 689.99 179.732 689.877 180.068C689.653 180.646 689.277 180.948 688.753 180.973C688.23 180.998 687.926 180.8 687.933 180.37L688.039 179.538L687.781 178.403C687.785 178.157 688.038 177.664 688.54 176.917C689.041 176.171 689.501 175.739 689.917 175.611C690.379 175.445 690.758 175.117 690.99 174.685C691.284 174.195 691.929 173.589 692.925 172.868C693.479 172.718 693.961 172.296 694.37 171.603C694.875 171.207 695.445 170.899 696.06 170.692C696.673 170.498 697.215 170.148 697.639 169.674C697.999 169.242 699.053 168.549 700.799 167.596C702.545 166.642 703.816 166.143 704.612 166.1C704.963 166.06 705.304 165.974 705.626 165.842C706.058 165.684 706.459 165.542 706.828 165.416C707.235 165.272 707.623 165.084 707.985 164.855C708.27 164.65 708.602 164.516 708.957 164.462L710.282 164.855C711.258 165.088 711.852 165.259 712.065 165.366C712.364 165.519 712.679 165.635 713.001 165.71C713.596 165.895 714.177 166.136 714.735 166.429C715.326 166.738 715.614 167.351 715.599 168.268C715.067 169.062 714.798 169.487 714.797 169.55C714.795 169.673 715.145 169.839 715.846 170.049C716.174 170.645 716.533 171.225 716.92 171.786L717.398 173.372L717.428 177.136L717.329 177.508C716.987 177.832 716.816 178.04 716.815 178.13L716.937 179.044L716.549 180.348C716.499 180.673 716.331 180.96 716.076 181.153C715.883 181.258 715.736 181.427 715.656 181.634L715.373 182.015C715.312 182.11 715.176 182.384 714.969 182.839C714.803 183.234 714.572 183.595 714.287 183.907C714.047 184.15 713.883 184.46 713.813 184.803C713.764 185.115 713.595 185.387 713.341 185.561C713.13 185.692 712.948 185.865 712.805 186.069C712.672 186.267 712.492 186.426 712.28 186.536V186.536ZM697.999 188.43L698.164 189.479L698.255 189.567L698.989 189.531L699.215 189.61C699.67 189.695 700.129 189.737 700.586 189.736C701.433 189.727 702.233 189.437 702.865 188.912C703.437 188.411 703.89 188.145 704.227 188.135C704.564 188.125 704.849 187.873 705.084 187.401C705.32 186.93 705.471 186.694 705.525 186.69L706.169 186.659L706.353 186.56C706.352 186.225 706.441 185.903 706.61 185.627C706.78 185.352 707.024 185.134 707.316 184.996C707.888 184.716 708.356 184.27 708.666 183.712C708.886 183.253 709.196 182.849 709.578 182.52C709.914 182.247 710.159 181.877 710.282 181.452L710.656 180.881C710.802 180.685 710.871 180.437 710.852 180.182L711.753 178.484C711.918 177.899 712.02 177.293 712.058 176.677C712.068 176.034 711.748 175.545 711.097 175.208C710.447 174.871 710.131 174.167 710.15 173.096C710.162 172.391 710.53 171.722 711.256 171.089C711.983 170.456 712.345 170.078 712.347 169.955C712.35 169.773 712.259 169.685 712.075 169.694C711.709 169.802 711.355 169.942 711.017 170.113C710.795 170.554 709.701 171.171 707.736 171.966C707.398 171.8 707.049 171.664 706.692 171.557C706.507 171.566 706.322 171.76 706.133 172.135C705.995 172.439 705.805 172.713 705.571 172.945L704.976 172.974C704.914 172.968 704.713 173.187 704.369 173.601C704.216 173.799 704.022 173.959 703.799 174.073C703.575 174.186 703.328 174.251 703.071 174.261L702.513 174.839C702.535 175.328 702.221 175.848 701.573 176.4L701.059 177.023C700.748 177.405 700.344 177.854 699.848 178.37L698.987 180.479C698.639 181.291 698.462 181.897 698.455 182.295C698.297 182.547 698.082 182.754 697.825 182.901C697.684 182.977 697.565 183.088 697.479 183.224C697.394 183.36 697.343 183.517 697.332 183.682C697.331 183.745 697.435 183.892 697.646 184.127C697.857 184.362 697.959 184.541 697.957 184.662L697.764 185.269L697.552 186.972L697.999 188.43Z" fill="#FF9A93"/>
<path d="M728.808 170.107L729.588 169.886C729.837 169.596 730.102 169.287 730.383 168.927C730.719 168.532 731.136 168.215 731.608 167.995C732.197 167.667 732.648 167.145 732.892 166.508C734.227 165.125 735.34 164.32 736.231 164.093C737.51 164.581 738.257 165.152 738.472 165.806C738.687 166.461 738.784 167.536 738.764 169.032C738.713 169.574 738.548 170.091 738.279 170.549C738.03 171.012 737.807 171.49 737.612 171.982C737.363 172.547 737.062 173.084 736.715 173.588C736.714 173.648 736.635 173.76 736.48 173.92C736.245 174.212 736.054 174.539 735.912 174.891C735.692 175.372 735.399 175.812 735.043 176.196C734.691 176.572 734.412 177.013 734.22 177.498C733.848 178.324 733.42 179.12 732.94 179.881C732.237 181.752 731.883 182.826 731.879 183.103C731.873 183.441 731.962 183.604 732.145 183.595C732.382 183.538 732.603 183.434 732.794 183.288L733.208 183.13L733.758 183.103L734.409 182.612C734.49 182.401 734.555 182.183 734.605 181.96C735.001 181.723 735.417 181.518 735.848 181.346L735.942 181.251C735.882 181.088 735.853 180.917 735.858 180.748C735.863 180.443 736.164 180.229 736.761 180.108C737.278 180.027 737.751 179.797 738.123 179.444C738.13 179.047 738.209 178.806 738.362 178.743C738.516 178.679 738.695 178.45 738.901 178.073C739.001 177.887 739.141 177.729 739.313 177.61C739.485 177.49 739.684 177.413 739.895 177.382C740.353 177.297 740.586 177.103 740.591 176.8C740.608 175.797 741.186 174.972 742.325 174.328C742.434 174.305 742.53 174.246 742.598 174.159C742.666 174.073 742.701 173.964 742.699 173.849C742.709 173.267 742.762 172.935 742.853 172.853C742.945 172.771 743.224 172.584 743.686 172.284L744.623 171.043L745.051 170.057C745.166 169.821 745.324 169.61 745.518 169.437C745.808 169.123 746.046 168.763 746.222 168.369C746.409 167.967 746.646 167.593 746.927 167.255L747.445 166.441C747.887 165.621 748.428 165.196 749.066 165.169C749.402 165.152 750.136 165.599 751.266 166.508C752.396 167.418 752.945 168.821 752.912 170.719C752.9 171.456 752.702 171.91 752.317 172.082C751.93 172.262 751.64 172.789 751.432 173.685C751.24 174.566 750.926 175.407 750.496 176.183C750.254 176.582 750.041 176.999 749.858 177.432L750.031 177.974L750.028 178.158C750.039 178.798 749.836 179.407 749.451 179.887C749.51 179.914 749.598 180.169 749.712 180.654L749.241 181.412C749.343 182.601 749.547 183.188 749.855 183.172C750.108 183.143 750.351 183.069 750.573 182.953C750.844 182.824 751.134 182.733 751.435 182.684C751.711 182.638 752.176 182.401 752.827 181.971L755.853 179.939L756.415 179.269L756.834 178.973C757.293 178.742 757.655 178.361 757.864 177.888C757.933 177.688 758.05 177.511 758.204 177.371C758.359 177.232 758.547 177.134 758.753 177.086C758.928 176.301 759.323 175.598 759.891 175.057L761.268 172.463C761.455 172.049 761.677 171.653 761.932 171.281C761.949 170.24 761.575 168.789 760.811 166.926L760.816 166.651C760.844 165.983 761.06 165.351 761.44 164.828C761.849 164.22 762.236 163.917 762.605 163.899L763.568 163.943L764.813 163.607C765.058 163.595 765.716 164.014 766.787 164.865C767.299 165.253 767.713 165.76 767.988 166.338C768.264 166.916 768.392 167.544 768.36 168.163C768.361 168.953 768.192 169.722 767.864 170.415C767.572 170.985 767.361 171.599 767.238 172.238C767.186 172.524 767.076 172.791 766.914 173.024C766.752 173.257 766.542 173.451 766.297 173.593L766.111 173.832C766.073 174.51 765.888 175.161 765.57 175.74C765.251 176.319 764.807 176.811 764.266 177.184C763.905 177.739 763.573 178.315 763.272 178.908C762.925 179.585 762.612 179.992 762.334 180.127C762.272 180.121 762.03 180.487 761.604 181.195C761.178 181.903 760.858 182.335 760.641 182.483C760.233 182.731 759.807 182.952 759.367 183.143C758.733 183.434 758.413 183.779 758.408 184.177L758.305 184.814C757.219 185.633 756.52 186.234 756.207 186.618C755.894 186.677 755.586 186.753 755.283 186.847C754.006 188.166 752.248 188.879 750.01 188.988C748.936 189.033 747.795 188.561 746.586 187.573C745.377 186.585 744.782 185.534 744.802 184.422L744.412 182.971C744.453 180.519 744.573 178.814 744.772 177.854C744.858 177.75 744.908 177.619 744.917 177.48C744.923 177.112 744.819 176.935 744.604 176.945C744.403 177.178 744.237 177.441 744.113 177.727C743.983 178.036 743.764 178.294 743.483 178.47L742.786 179.1C742.619 179.843 742.454 180.264 742.285 180.365C741.984 180.583 741.711 180.836 741.47 181.117C741.091 181.524 740.672 181.891 740.218 182.213C740.245 182.395 739.605 183.345 738.296 185.062L738.292 185.338C738.291 185.37 738.135 185.47 737.828 185.637L737.083 186.409C736.618 186.889 735.437 187.75 733.542 188.993C731.647 190.236 730.546 190.865 730.24 190.878C729.864 190.91 729.48 190.857 729.115 190.724C728.749 190.591 728.411 190.381 728.124 190.109C727.579 189.632 727.222 188.975 727.125 188.275C727.056 187.661 726.928 187.052 726.741 186.456C726.595 186.058 726.51 185.644 726.487 185.229C726.529 184.913 726.595 184.603 726.687 184.301C726.806 183.855 726.891 183.398 726.939 182.933C726.976 182.519 727.025 182.28 727.088 182.215L727.103 181.342C727.104 181.279 727.284 181.027 727.643 180.579C727.971 180.209 728.163 179.732 728.191 179.221C728.194 179.036 728.337 178.739 728.62 178.326C728.856 177.998 729.054 177.642 729.21 177.264C729.385 176.877 729.632 176.53 729.937 176.241C730.051 175.785 730.197 175.34 730.373 174.909C730.523 174.576 730.636 174.226 730.71 173.863C730.709 173.83 730.701 173.797 730.686 173.766C730.671 173.735 730.649 173.708 730.623 173.685C730.194 173.706 729.56 174.135 728.721 174.973L727.889 175.474C727.155 175.961 726.46 176.502 725.807 177.092C725.341 177.696 724.924 178.008 724.558 178.026C723.127 178.097 722.422 177.473 722.444 176.154C722.455 175.509 722.636 175.058 722.992 174.795C723.275 174.622 723.494 174.363 723.62 174.052C723.685 173.82 724.062 173.617 724.75 173.445C725.438 173.273 726.189 172.524 727.005 171.199C727.707 171.164 728.119 171.036 728.245 170.818C728.404 170.558 728.593 170.32 728.808 170.107V170.107Z" fill="#FF9A93"/>
<path d="M778.976 169.343L779.953 168.513C780.685 168.417 781.089 168.014 781.164 167.306C781.238 166.598 781.753 165.96 782.708 165.393L783.27 164.584C783.737 164.101 785.001 163.442 787.061 162.606C787.466 162.376 787.827 162.08 788.131 161.729C788.176 161.672 788.241 161.635 788.315 161.627L789.046 161.774C789.582 161.72 790.101 161.587 790.586 161.377C791.161 161.145 791.774 161.007 792.404 160.967L794.337 160.78C794.597 160.814 794.853 160.895 795.091 161.02C795.541 161.195 796.018 161.265 796.483 161.225C796.823 161.212 797.166 161.281 797.486 161.425C797.806 161.569 798.094 161.784 798.325 162.054C798.887 162.641 799.164 163.195 799.156 163.715C799.14 164.666 798.635 165.654 797.641 166.682C796.648 167.709 795.86 168.299 795.278 168.452C794.923 168.853 794.518 169.204 794.07 169.498C793.752 169.684 793.463 169.914 793.212 170.184C792.917 170.491 792.679 170.647 792.496 170.656C792.447 170.664 792.397 170.658 792.349 170.64C792.301 170.622 792.258 170.593 792.223 170.554C792.188 170.516 792.145 170.487 792.097 170.47C792.049 170.452 791.999 170.446 791.95 170.453C791.461 170.477 790.916 171.101 790.317 172.324L789.494 172.274C789.046 172.548 788.691 172.947 788.467 173.426C788.393 173.623 788.262 173.788 788.089 173.903C787.917 174.017 787.711 174.075 787.497 174.07C786.348 175.256 785.575 175.861 785.178 175.883C784.962 175.853 784.747 175.802 784.537 175.732C784.306 176.002 784.171 176.347 784.154 176.715C784.148 177.084 783.901 177.31 783.412 177.394L782.808 177.985L782.35 177.917L781.417 178.928C780.895 178.973 780.404 179.155 779.99 179.456C779.922 179.826 779.824 180.302 779.692 180.871C779.561 181.441 779.493 181.762 779.492 181.822C779.477 182.712 780.281 183.117 781.902 183.036L784.11 182.606C784.703 182.575 785.267 182.389 785.747 182.067C786.229 181.746 786.793 181.56 787.386 181.527C787.674 181.491 787.952 181.416 788.214 181.303L788.67 181.464C788.954 180.927 789.371 180.481 789.884 180.165C790.47 179.768 790.935 179.561 791.272 179.545L791.734 179.247C791.821 178.927 792.021 178.657 792.298 178.484L792.67 178.144C792.842 177.929 793.087 177.787 793.363 177.742L794.007 177.711L794.191 177.61C794.571 176.796 795.091 176.304 795.752 176.133C796.413 175.964 796.831 175.72 797.003 175.406C797.098 175.244 797.227 175.107 797.384 175.004C797.54 174.901 797.718 174.835 797.908 174.811C798.343 174.721 798.725 174.483 798.991 174.135C799.312 173.745 799.678 173.396 800.081 173.094C800.516 172.767 800.818 172.515 800.988 172.361C801.1 172.232 801.251 172.144 801.421 172.11C801.604 172.101 801.694 172.234 801.689 172.509C801.684 172.784 801.742 172.919 801.865 172.913C801.891 172.915 801.918 172.911 801.942 172.902C801.966 172.892 801.988 172.878 802.005 172.859C802.023 172.841 802.036 172.818 802.044 172.793C802.053 172.768 802.055 172.742 802.052 172.715C802.048 172.561 802.02 172.407 801.968 172.259L801.973 171.937C801.981 171.478 802.23 171.159 802.722 170.982L804.81 169.548C804.883 168.909 805.065 168.518 805.357 168.394C805.604 168.301 805.831 168.166 806.028 167.995C806.162 167.859 806.341 167.778 806.536 167.764C806.933 167.744 807.129 167.963 807.122 168.423L806.872 169.63L807.081 170.859C807.078 171.044 806.928 171.304 806.639 171.639C806.296 172.074 806.06 172.588 805.949 173.144C805.784 173.812 805.58 174.187 805.335 174.253L805.058 174.266C804.496 174.875 804.053 175.241 803.731 175.365C803.415 175.484 803.148 175.697 802.964 175.978L801.373 177.847C801.061 178.168 800.797 178.458 800.578 178.713C800.359 178.969 800.19 179.108 800.067 179.097L799.706 178.747C799.708 178.685 799.646 178.658 799.526 178.664C799.219 178.679 799.022 178.872 798.941 179.244C798.858 179.615 798.687 179.954 798.442 180.234C797.516 180.709 796.913 181.136 796.632 181.517L796.355 181.621L795.527 181.663C795.13 181.683 794.85 181.995 794.685 182.6C794.521 183.205 794.079 183.571 793.361 183.697C792.644 183.825 792.128 184.034 791.813 184.324C791.69 184.421 791.548 184.49 791.395 184.529C790.933 184.748 790.497 185.015 790.095 185.327L786.208 186.895C786.024 187.014 785.82 187.101 785.605 187.154L784.314 187.402C784.205 187.396 784.098 187.361 784.002 187.301C783.907 187.242 783.827 187.159 783.77 187.061C783.59 186.825 783.469 186.708 783.409 186.711L782.576 187.027C782.019 187.23 781.431 187.352 780.828 187.39C780.481 187.394 780.133 187.299 779.823 187.116C779.542 186.96 779.252 186.821 778.956 186.701C778.071 186.744 777.454 186.085 777.108 184.724L776.557 184.843C776.432 184.849 776.037 183.781 775.37 181.639C775.146 181.378 774.838 181.204 774.507 181.153C774.111 181.068 773.917 180.779 773.925 180.288C773.948 178.907 774.262 177.965 774.867 177.462C775.471 176.959 775.806 176.583 775.87 176.333L776.554 173.911C776.678 173.814 776.837 173.506 777.028 172.97L778.114 170.987C778.245 170.769 778.533 170.221 778.976 169.343ZM788.728 166.108L788.171 166.41C787.793 166.676 787.43 166.963 787.084 167.269C786.537 167.734 785.946 168.146 785.32 168.502C784.751 168.822 784.158 169.61 783.539 170.865C782.921 172.121 782.61 172.84 782.609 173.024C782.606 173.207 782.697 173.295 782.881 173.286L784.451 172.519C785.047 172.207 785.599 171.824 786.098 171.378C786.801 170.779 787.537 170.221 788.305 169.707L788.679 169.311C788.741 169.186 789.027 168.95 789.538 168.603C789.966 168.329 790.35 167.993 790.678 167.606L791.139 167.398C791.674 166.545 792.208 166.014 792.748 165.803C793.288 165.592 793.557 165.397 793.56 165.213C793.566 164.845 793.277 164.676 792.698 164.703C792.453 164.714 792.083 164.886 791.589 165.217L790.533 165.268C790.41 165.274 790.07 165.474 789.514 165.868L788.728 166.108Z" fill="#FF9A93"/>
<path d="M811.875 164.145L812.565 163.926L812.852 163.306C814.365 162.344 815.453 161.449 816.114 160.621C816.218 160.455 816.362 160.32 816.535 160.229C816.803 160.044 817.039 159.816 817.232 159.552C818.383 158.365 819.739 157.732 821.299 157.651C823.133 157.561 824.094 158.632 824.182 160.865L824.445 161.535C824.683 161.953 825.013 162.81 825.434 164.105C825.856 165.4 826.065 166.201 826.06 166.508C826.017 167.424 825.734 168.294 825.237 169.03C824.804 169.266 823.76 170.462 822.106 172.619L821.641 172.964C821.366 173.565 821.034 174.135 820.65 174.667C820.034 174.912 819.726 175.155 819.722 175.4L819.708 176.228C819.663 176.37 819.588 176.499 819.487 176.606C819.261 176.949 819.063 177.312 818.896 177.691L818.52 178.26C818.343 178.488 818.214 178.752 818.14 179.037C818.014 179.42 817.83 179.777 817.595 180.098C817.408 180.306 817.285 180.566 817.237 180.849C817.23 181.309 817.823 181.507 819.016 181.443C819.259 181.363 819.491 181.259 819.71 181.132L820.351 181.286C820.526 181.209 820.683 181.101 820.815 180.965C821.149 180.709 821.533 180.525 821.946 180.422C822.426 180.288 822.878 180.08 823.287 179.805C823.719 179.517 824.184 179.279 824.673 179.094C825.246 178.862 825.771 178.533 826.225 178.121C826.658 177.726 827.15 177.4 827.687 177.155C828.189 176.931 828.643 176.621 829.032 176.238C829.472 175.817 829.946 175.433 830.45 175.089C830.975 174.728 831.813 173.952 832.964 172.761C833.708 172.142 834.218 171.795 834.493 171.722C834.553 171.719 834.828 171.299 835.316 170.464C835.805 169.629 836.355 169.196 836.966 169.166C837.607 169.135 837.923 169.425 837.915 170.037C837.886 170.423 837.717 170.775 837.439 171.025L837.435 171.301L837.515 172.032C837.583 172.16 837.613 172.303 837.6 172.442C837.598 172.565 837.479 172.754 837.245 173.011C837.004 173.283 836.834 173.615 836.749 173.977C836.65 174.364 836.356 174.633 835.865 174.777C835.671 175.461 835.418 175.856 835.135 175.961C834.852 176.067 834.431 176.394 833.903 176.94C833.203 177.639 832.457 178.289 831.669 178.888C830.967 179.413 830.307 179.99 829.693 180.615C829.335 181.013 829.093 181.219 828.973 181.225C828.842 181.2 828.717 181.144 828.609 181.06C828.5 180.977 828.376 180.92 828.245 180.893C828.06 180.902 827.934 181.123 827.867 181.554L827.677 182.024C827.463 182.185 827.23 182.319 826.982 182.425L826.709 182.346L826.524 182.355C826.157 182.373 825.972 182.52 825.968 182.797L826.235 183.252L826.233 183.343C826.226 183.773 825.978 184 825.488 184.024C825.15 184.04 824.162 184.655 822.523 185.868L821.188 186.209L820.076 186.861C819.865 186.727 819.634 186.632 819.395 186.582L818.657 186.849L817.324 187.004C817.294 187.001 816.739 186.735 815.665 186.169C814.591 185.603 813.948 185.027 813.746 184.424C813.531 183.799 813.264 183.19 812.95 182.602C812.624 181.998 812.463 181.57 812.468 181.318C812.492 179.847 812.63 178.791 812.887 178.151C813.083 177.692 813.243 177.215 813.367 176.726C813.472 176.348 813.657 176.002 813.912 175.713C814.204 175.346 814.451 174.76 814.653 173.954C815.569 172.133 816.198 171.015 816.543 170.6C816.901 170.155 817.173 169.644 817.347 169.091L817.957 168.234C818.087 168.009 818.183 167.765 818.244 167.508C818.373 167.089 818.529 166.843 818.715 166.772C818.889 166.517 819.018 166.231 819.096 165.926C819.11 165.037 818.72 164.613 817.924 164.653C817.772 164.661 817.602 164.828 817.412 165.16C817.222 165.491 816.796 165.827 816.134 166.164C815.694 166.363 815.282 166.614 814.907 166.913C814.607 167.167 814.272 167.377 813.91 167.537C813.382 167.808 812.93 168.199 812.585 168.681L811.797 169.087C811.543 169.681 811.323 170.013 811.137 170.084C810.952 170.154 810.383 170.336 809.431 170.627C809.252 170.798 809.095 170.991 808.963 171.202C808.843 171.37 808.685 171.507 808.501 171.602C808.317 171.697 808.111 171.747 807.899 171.751C807.496 172.172 807.121 172.619 806.776 173.09C806.433 173.185 806.107 173.325 805.806 173.507L804.883 173.782C804.571 174.047 804.297 174.354 804.066 174.694C803.773 175.109 803.226 175.335 802.424 175.372C801.966 175.395 801.743 175.038 801.756 174.303C801.754 173.591 801.899 172.899 802.182 172.268C802.464 171.638 802.878 171.083 803.397 170.639C804.468 169.699 805.249 169.187 805.74 169.101C806.23 169.015 806.54 168.817 806.667 168.504C806.795 168.19 807.095 167.925 807.575 167.702C808.055 167.479 808.61 167.007 809.248 166.288C809.803 165.627 810.509 165.113 811.313 164.784L811.875 164.145Z" fill="#FF9A93"/>
</g>
<defs>
<clipPath id="clip0_1311_196">
<rect width="816" height="353.841" fill="white" transform="matrix(0.995805 0.0915016 -0.0165799 0.999863 6 0)"/>
</clipPath>
<clipPath id="clip1_1311_196">
<rect width="360" height="123" fill="white" transform="matrix(0.995805 0.0915016 -0.0165799 0.999863 480.039 99.9204)"/>
</clipPath>
</defs>
</svg>
