<svg width="1919" height="872" viewBox="0 0 1919 872" fill="none" xmlns="http://www.w3.org/2000/svg">
<g style="mix-blend-mode:color-burn" clip-path="url(#clip0_1311_199)">
<path d="M1919.02 -336V913.423C1763.68 948.257 1580.75 921.954 1456.32 1021.72H-1V614.412C78.2158 508.361 172.43 388.247 208.941 352.478C383.29 181.677 697.734 312.95 870.084 132.78C1012.52 -16.1533 1026.4 -168.618 1109.97 -336H1919.02Z" fill="url(#paint0_linear_1311_199)"/>
<path d="M1919.02 -336V674.76C1740.88 785.246 1471.33 695.015 1314.74 848.399C1260.71 901.312 1213.28 961.385 1172.53 1021.72H13.1917C75.1193 882.766 191.556 651.811 335.054 511.232C509.403 340.399 823.831 471.705 996.165 291.518C1165.64 114.363 1153.16 -67.7758 1292.35 -274.121C1307.33 -296.274 1324.33 -316.989 1343.14 -336L1919.02 -336Z" fill="url(#paint1_linear_1311_199)"/>
<path d="M1919.02 -336V324.433C1891.78 379.539 1857.15 433.629 1805.84 487.316C1633.5 667.47 1319.08 536.197 1144.73 706.998C1047.58 802.147 971.716 920.455 917.675 1021.75H167.495C221.391 908.859 309.606 753.621 431.155 634.539C605.504 463.722 919.948 595.012 1092.36 414.857C1261.81 237.686 1249.33 55.5313 1388.52 -150.781C1447.37 -238.157 1534.98 -296.731 1626.73 -336H1919.02Z" fill="url(#paint2_linear_1311_199)"/>
</g>
<defs>
<linearGradient id="paint0_linear_1311_199" x1="961.109" y1="996.832" x2="961.109" y2="-307.272" gradientUnits="userSpaceOnUse">
<stop offset="0.01" stop-color="#DCDCF4"/>
<stop offset="0.25" stop-color="white"/>
<stop offset="1" stop-color="#DCDCF4"/>
</linearGradient>
<linearGradient id="paint1_linear_1311_199" x1="1871.57" y1="200.303" x2="-475.956" y2="745.541" gradientUnits="userSpaceOnUse">
<stop stop-color="#DCDCF4"/>
<stop offset="0.5" stop-color="#F2F2F9"/>
<stop offset="1" stop-color="#DCDCF4"/>
</linearGradient>
<linearGradient id="paint2_linear_1311_199" x1="787.949" y1="342.866" x2="1519.47" y2="342.866" gradientUnits="userSpaceOnUse">
<stop stop-color="#F2F2F9"/>
<stop offset="0.53" stop-color="#DCDCF4"/>
<stop offset="1" stop-color="#F2F2F9"/>
</linearGradient>
<clipPath id="clip0_1311_199">
<rect width="1920" height="1357.72" fill="white" transform="translate(-1 -336)"/>
</clipPath>
</defs>
</svg>
