<?xml version="1.0" encoding="utf-8"?>
<!-- Generator: Adobe Illustrator 26.5.0, SVG Export Plug-In . SVG Version: 6.00 Build 0)  -->
<svg version="1.1" id="圖層_1" focusable="false" xmlns="http://www.w3.org/2000/svg" xmlns:xlink="http://www.w3.org/1999/xlink"
	 x="0px" y="0px" width="448px" height="512px" viewBox="0 0 448 512" style="enable-background:new 0 0 448 512;"
	 xml:space="preserve">
<path d="M224,32c-88.4,0-160,71.6-160,160v16c0,8.8-7.2,16-16,16s-16-7.2-16-16v-16C32,86,118,0,224,0s192,86,192,192v16
	c0,61.9-50.1,112-112,112h-64h-16h-16c-17.7,0-32-14.3-32-32s14.3-32,32-32h32c17.7,0,32,14.3,32,32h32c44.2,0,80-35.8,80-80v-16
	C384,103.6,312.4,32,224,32z M96,192c0-70.7,57.3-128,128-128s128,57.3,128,128c0,13.9-2.2,27.3-6.3,39.8
	c-8.3,14.5-23.9,24.2-41.7,24.2h-8.6c-11.1-19.1-31.7-32-55.4-32h-32c-35.3,0-64,28.7-64,64c0,1.4,0,2.7,0.1,4
	C114.8,268.6,96,232.5,96,192z M224,352h16h64h9.6c74.2,0,134.4,60.2,134.4,134.4c0,14.1-11.5,25.6-25.6,25.6H25.6
	C11.5,512,0,500.5,0,486.4C0,412.2,60.2,352,134.4,352H208H224z"/>
</svg>
