<svg width="580" height="164" viewBox="0 0 580 164" fill="none" xmlns="http://www.w3.org/2000/svg">
<path d="M62.4711 46H29.2401L4 63.8325V122H547.884L576 102.916V46H280" stroke="white" stroke-width="7.62667"/>
<line x1="283.813" y1="46" x2="283.813" y2="122" stroke="white" stroke-width="7.62667"/>
<path d="M84.1892 30.4473V19.9533H102.471V68.1333H90.7232V30.4473H84.1892ZM110.796 59.0913C112.292 57.9033 112.974 57.3533 112.842 57.4413C117.154 53.8773 120.542 50.9513 123.006 48.6633C125.514 46.3753 127.626 43.9773 129.342 41.4693C131.058 38.9613 131.916 36.5193 131.916 34.1433C131.916 32.3393 131.498 30.9313 130.662 29.9193C129.826 28.9073 128.572 28.4013 126.9 28.4013C125.228 28.4013 123.908 29.0393 122.94 30.3153C122.016 31.5473 121.554 33.3073 121.554 35.5953H110.664C110.752 31.8553 111.544 28.7313 113.04 26.2233C114.58 23.7153 116.582 21.8673 119.046 20.6793C121.554 19.4913 124.326 18.8973 127.362 18.8973C132.598 18.8973 136.536 20.2393 139.176 22.9233C141.86 25.6073 143.202 29.1053 143.202 33.4173C143.202 38.1253 141.596 42.5033 138.384 46.5513C135.172 50.5553 131.08 54.4713 126.108 58.2993H143.928V67.4733H110.796V59.0913ZM176.165 5.4333L158.477 80.4753H147.587L165.275 5.4333H176.165ZM180.407 59.0913C181.903 57.9033 182.585 57.3533 182.453 57.4413C186.765 53.8773 190.153 50.9513 192.617 48.6633C195.125 46.3753 197.237 43.9773 198.953 41.4693C200.669 38.9613 201.527 36.5193 201.527 34.1433C201.527 32.3393 201.109 30.9313 200.273 29.9193C199.437 28.9073 198.183 28.4013 196.511 28.4013C194.839 28.4013 193.519 29.0393 192.551 30.3153C191.627 31.5473 191.165 33.3073 191.165 35.5953H180.275C180.363 31.8553 181.155 28.7313 182.651 26.2233C184.191 23.7153 186.193 21.8673 188.657 20.6793C191.165 19.4913 193.937 18.8973 196.973 18.8973C202.209 18.8973 206.147 20.2393 208.787 22.9233C211.471 25.6073 212.813 29.1053 212.813 33.4173C212.813 38.1253 211.207 42.5033 207.995 46.5513C204.783 50.5553 200.691 54.4713 195.719 58.2993H213.539V67.4733H180.407V59.0913ZM219.508 43.3833C219.508 35.8153 220.96 29.8533 223.864 25.4973C226.812 21.1413 231.542 18.9633 238.054 18.9633C244.566 18.9633 249.274 21.1413 252.178 25.4973C255.126 29.8533 256.6 35.8153 256.6 43.3833C256.6 51.0393 255.126 57.0453 252.178 61.4013C249.274 65.7573 244.566 67.9353 238.054 67.9353C231.542 67.9353 226.812 65.7573 223.864 61.4013C220.96 57.0453 219.508 51.0393 219.508 43.3833ZM245.512 43.3833C245.512 38.9393 245.028 35.5293 244.06 33.1533C243.092 30.7333 241.09 29.5233 238.054 29.5233C235.018 29.5233 233.016 30.7333 232.048 33.1533C231.08 35.5293 230.596 38.9393 230.596 43.3833C230.596 46.3753 230.772 48.8613 231.124 50.8413C231.476 52.7773 232.18 54.3613 233.236 55.5933C234.336 56.7813 235.942 57.3753 238.054 57.3753C240.166 57.3753 241.75 56.7813 242.806 55.5933C243.906 54.3613 244.632 52.7773 244.984 50.8413C245.336 48.8613 245.512 46.3753 245.512 43.3833Z" fill="#FFE500"/>
<path d="M210.72 83.15V85.94H205.17V104H201.75V85.94H196.17V83.15H210.72ZM229.154 87.47V104H225.734V102.05C225.194 102.73 224.484 103.27 223.604 103.67C222.744 104.05 221.824 104.24 220.844 104.24C219.544 104.24 218.374 103.97 217.334 103.43C216.314 102.89 215.504 102.09 214.904 101.03C214.324 99.97 214.034 98.69 214.034 97.19V87.47H217.424V96.68C217.424 98.16 217.794 99.3 218.534 100.1C219.274 100.88 220.284 101.27 221.564 101.27C222.844 101.27 223.854 100.88 224.594 100.1C225.354 99.3 225.734 98.16 225.734 96.68V87.47H229.154ZM248.816 95.33C248.816 95.95 248.776 96.51 248.696 97.01H236.066C236.166 98.33 236.656 99.39 237.536 100.19C238.416 100.99 239.496 101.39 240.776 101.39C242.616 101.39 243.916 100.62 244.676 99.08H248.366C247.866 100.6 246.956 101.85 245.636 102.83C244.336 103.79 242.716 104.27 240.776 104.27C239.196 104.27 237.776 103.92 236.516 103.22C235.276 102.5 234.296 101.5 233.576 100.22C232.876 98.92 232.526 97.42 232.526 95.72C232.526 94.02 232.866 92.53 233.546 91.25C234.246 89.95 235.216 88.95 236.456 88.25C237.716 87.55 239.156 87.2 240.776 87.2C242.336 87.2 243.726 87.54 244.946 88.22C246.166 88.9 247.116 89.86 247.796 91.1C248.476 92.32 248.816 93.73 248.816 95.33ZM245.246 94.25C245.226 92.99 244.776 91.98 243.896 91.22C243.016 90.46 241.926 90.08 240.626 90.08C239.446 90.08 238.436 90.46 237.596 91.22C236.756 91.96 236.256 92.97 236.096 94.25H245.246ZM253.562 104.21C252.942 104.21 252.422 104 252.002 103.58C251.582 103.16 251.372 102.64 251.372 102.02C251.372 101.4 251.582 100.88 252.002 100.46C252.422 100.04 252.942 99.83 253.562 99.83C254.162 99.83 254.672 100.04 255.092 100.46C255.512 100.88 255.722 101.4 255.722 102.02C255.722 102.64 255.512 103.16 255.092 103.58C254.672 104 254.162 104.21 253.562 104.21Z" fill="white"/>
<path d="M316.878 75.056V76.799H324.48V75.056H316.878ZM316.878 77.87V79.634H324.48V77.87H316.878ZM314.274 80.726V82.931H326.349V80.726H314.274ZM315.765 71.885V81.902H318.18V74.027H325.278V71.885H315.765ZM314.169 88.202L314.547 90.575C316.458 90.281 318.873 89.945 321.162 89.567L321.078 87.383C318.537 87.698 315.933 88.034 314.169 88.202ZM321.183 81.902L319.104 82.259C320.07 86.354 321.75 89.42 325.047 90.932C325.404 90.26 326.139 89.231 326.706 88.727C323.703 87.635 321.981 85.094 321.183 81.902ZM324.27 82.994C323.556 83.876 322.275 85.115 321.309 85.871L322.863 86.816C323.871 86.165 325.173 85.136 326.349 84.128L324.27 82.994ZM315.828 81.377V88.958L318.243 88.538V81.377H315.828ZM307.932 81.377V83.624H312.972V81.377H307.932ZM311.838 81.377V81.755C311.607 86.186 311.313 87.929 310.914 88.37C310.725 88.58 310.515 88.643 310.179 88.643C309.801 88.643 309.003 88.622 308.163 88.538C308.541 89.168 308.814 90.176 308.856 90.89C309.864 90.932 310.851 90.911 311.418 90.827C312.09 90.743 312.573 90.533 313.056 89.987C313.686 89.252 313.98 87.215 314.274 82.343C314.316 82.049 314.337 81.377 314.337 81.377H311.838ZM307.722 77.03C307.533 79.277 307.113 82.175 306.756 84.002L309.087 84.254C309.402 82.385 309.759 79.403 309.99 77.03H307.722ZM307.869 77.03V79.34H313.959V72.221H307.113V74.531H311.691V77.03H307.869ZM329.247 82.742V84.926H345.942V82.742H329.247ZM336.156 81.104V90.848H338.655V81.104H336.156ZM335.736 83.75C334.14 85.871 330.99 87.593 327.567 88.349C328.134 88.874 328.869 89.861 329.226 90.512C332.775 89.462 335.925 87.32 337.794 84.548L335.736 83.75ZM339.243 83.876L337.269 84.695C339.159 87.32 342.246 89.483 345.459 90.575C345.879 89.882 346.656 88.811 347.265 88.265C344.073 87.488 340.902 85.808 339.243 83.876ZM328.512 78.542V82.259H330.927V80.705H344.01V82.259H346.551V78.542H328.512ZM335.421 72.284C335.148 72.977 334.602 73.985 334.161 74.657L335.652 75.266C336.177 74.678 336.807 73.817 337.5 72.956L335.421 72.284ZM331.998 76.19C333.006 76.841 334.392 77.765 335.043 78.332L336.66 76.778C335.925 76.232 334.518 75.371 333.552 74.804L331.998 76.19ZM331.998 71.171C331.893 74.615 331.515 76.232 327.819 77.177C328.239 77.576 328.827 78.416 329.016 78.962C333.405 77.744 334.077 75.413 334.224 71.171H331.998ZM329.562 72.284C329.31 73.25 328.722 74.237 327.903 74.825L329.394 75.77C330.36 75.056 330.864 73.943 331.179 72.809L329.562 72.284ZM344.787 72.179C344.493 72.893 343.884 73.922 343.401 74.615L344.934 75.245C345.501 74.657 346.236 73.775 346.95 72.893L344.787 72.179ZM340.944 76.085C342.309 76.946 344.262 78.206 345.186 78.962L346.782 77.324C345.774 76.589 343.779 75.413 342.477 74.615L340.944 76.085ZM340.986 71.171C340.839 74.363 340.461 76.022 336.954 76.988C337.395 77.408 337.983 78.248 338.193 78.815C342.393 77.513 343.065 75.182 343.233 71.171H340.986ZM338.445 72.137C338.214 73.124 337.647 74.132 336.828 74.72L338.34 75.665C339.306 74.972 339.768 73.817 340.062 72.683L338.445 72.137ZM359.466 77.45V79.34H363.708V77.45H359.466ZM357.891 83.582V85.262H364.737V83.582H357.891ZM350.73 71.906V73.88H356.484V71.906H350.73ZM355.833 71.906V72.263C354.699 74.951 351.633 77.156 348.441 78.101C348.882 78.542 349.491 79.403 349.785 79.949C353.376 78.647 356.673 76.253 358.227 72.578L356.652 71.822L356.253 71.906H355.833ZM360.306 71.171L358.29 71.759C359.991 75.581 362.889 78.353 367.005 79.676C367.341 79.067 367.992 78.164 368.496 77.681C364.611 76.673 361.713 74.279 360.306 71.171ZM363.456 71.297C362.805 72.074 361.65 73.145 360.831 73.775L362.28 74.888C363.141 74.3 364.275 73.439 365.262 72.578L363.456 71.297ZM366.165 73.397C365.493 74.174 364.296 75.245 363.435 75.875L364.947 76.988C365.829 76.421 366.984 75.539 367.971 74.657L366.165 73.397ZM351.255 77.576V79.466H354.762V83.057H356.967V77.576H351.255ZM350.856 80.957C350.604 82.637 350.142 84.779 349.764 86.165L351.801 86.501C352.179 85.052 352.62 82.784 352.935 80.957H350.856ZM354.741 84.17V84.464C354.552 87.131 354.363 88.286 354.027 88.601C353.838 88.769 353.607 88.79 353.25 88.79C352.788 88.79 351.759 88.769 350.688 88.664C351.087 89.252 351.36 90.134 351.423 90.806C352.536 90.827 353.628 90.827 354.237 90.785C354.951 90.701 355.455 90.554 355.917 90.071C356.484 89.483 356.736 88.076 356.946 85.031C356.988 84.758 357.009 84.17 357.009 84.17H354.741ZM358.5 77.45V78.941C358.5 79.928 358.29 81.041 356.715 81.944C357.135 82.238 357.975 83.078 358.29 83.519C360.18 82.322 360.6 80.537 360.6 78.983V77.45H358.5ZM364.233 83.582V83.855C363.204 86.858 360.348 88.475 356.652 89.063C357.03 89.525 357.492 90.365 357.702 90.89C361.944 89.987 365.115 88.097 366.438 83.981L365.052 83.519L364.674 83.582H364.233ZM360.432 85.115L358.521 85.619C359.991 88.412 362.553 90.176 366.228 90.89C366.543 90.281 367.173 89.357 367.677 88.853C364.254 88.412 361.65 87.131 360.432 85.115ZM351.927 80.957L351.591 82.805H355.518V80.957H351.927ZM351.339 84.17L350.982 85.997H355.371V84.17H351.339ZM362.49 77.45V80.579C362.49 81.755 362.637 82.154 362.973 82.511C363.309 82.847 363.897 82.973 364.38 82.973C364.674 82.973 365.136 82.973 365.451 82.973C365.745 82.973 366.207 82.931 366.48 82.826C366.816 82.721 367.089 82.532 367.236 82.259C367.404 81.986 367.488 81.419 367.551 80.873C366.984 80.705 366.186 80.306 365.808 79.97C365.787 80.411 365.766 80.747 365.724 80.915C365.661 81.062 365.598 81.146 365.514 81.167C365.472 81.188 365.346 81.188 365.241 81.188C365.136 81.188 364.989 81.188 364.884 81.188C364.779 81.188 364.716 81.167 364.653 81.104C364.611 81.041 364.611 80.873 364.611 80.621V77.45H362.49ZM350.037 75.224C350.877 75.707 351.99 76.442 352.494 76.946L353.985 75.476C353.418 74.993 352.305 74.321 351.444 73.901L350.037 75.224ZM370.785 72.767V74.804H388.299V72.767H370.785ZM371.562 88.244V90.302H387.627V88.244H371.562ZM375.174 75.707V77.471H383.742V75.707H375.174ZM375.174 78.395V80.159H383.742V78.395H375.174ZM369.672 81.083V83.141H389.307V81.083H369.672ZM374.439 84.905V86.879H384.582V84.905H374.439ZM373.683 71.171V82.217H376.224V71.171H373.683ZM382.839 71.192V82.217H385.401V71.192H382.839ZM378.156 83.582V89.441H380.739V83.582H378.156ZM374.985 81.671C373.872 83.372 371.667 84.989 369.483 85.787C370.008 86.249 370.722 87.131 371.079 87.719C373.473 86.648 375.741 84.674 377.085 82.448L374.985 81.671ZM384.099 81.671L382.104 82.427C383.427 84.527 385.611 86.522 387.879 87.53C388.257 86.942 388.992 86.039 389.538 85.577C387.375 84.8 385.212 83.288 384.099 81.671ZM400.416 73.565C402.222 76.043 405.729 78.878 408.942 80.579C409.404 79.802 409.992 78.941 410.601 78.311C407.262 76.946 403.881 74.3 401.613 71.108H398.988C397.434 73.649 394.053 76.799 390.441 78.563C390.987 79.088 391.701 80.012 392.016 80.6C395.46 78.773 398.673 76.022 400.416 73.565ZM395.145 77.471V79.676H405.729V77.471H395.145ZM392.646 81.755V83.918H408.207V81.755H392.646ZM391.575 88.139V90.302H409.425V88.139H391.575ZM399.03 78.353V89.21H401.718V78.353H399.03ZM393.948 84.716C394.704 85.829 395.481 87.362 395.754 88.328L397.938 87.383C397.623 86.396 396.783 84.947 395.985 83.876L393.948 84.716ZM404.637 83.897C404.175 85.031 403.293 86.564 402.621 87.551L404.511 88.328C405.246 87.446 406.17 86.081 407.031 84.8L404.637 83.897ZM416.271 78.815H426.645V81.461H416.271V78.815ZM414.171 77.261V83.015H428.871V77.261H414.171ZM417.783 74.867V76.505H425.196V74.867H417.783ZM420.366 77.765V82.196H422.403V77.765H420.366ZM421.374 73.124C423.411 75.014 427.128 76.967 430.047 77.954C430.425 77.303 430.971 76.442 431.517 75.875C428.262 75.056 424.86 73.397 422.466 71.171H420.072C418.35 73.04 414.906 75.014 411.462 76.043C411.903 76.568 412.491 77.471 412.764 78.038C416.082 76.883 419.505 74.93 421.374 73.124ZM417.006 79.277C417.363 80.012 417.657 80.978 417.741 81.608L419.589 81.062C419.463 80.432 419.127 79.508 418.749 78.794L417.006 79.277ZM423.957 78.71C423.789 79.403 423.39 80.432 423.096 81.125L424.818 81.587C425.154 80.999 425.574 80.117 426.036 79.214L423.957 78.71ZM415.326 83.687V90.89H417.804V85.325H425.175V90.827H427.758V83.687H415.326ZM416.754 86.165V87.824H426.246V86.165H416.754ZM416.754 88.685V90.323H426.246V88.685H416.754ZM436.62 76.442V78.206H448.338V76.442H436.62ZM445.062 75.308C445.755 75.707 446.595 76.295 447.015 76.757L448.17 75.56C447.75 75.098 446.889 74.552 446.175 74.216L445.062 75.308ZM445.923 78.794C445.104 82.007 443.298 84.506 440.673 85.997C441.093 86.333 441.786 87.131 442.038 87.509C444.789 85.745 446.826 82.889 447.876 79.172L445.923 78.794ZM436.389 84.464L436.62 86.291C438.3 86.039 440.358 85.724 442.395 85.409L442.332 83.729C440.127 84.023 437.922 84.296 436.389 84.464ZM438.783 80.453H440.19V81.797H438.783V80.453ZM437.166 79.109V83.12H441.87V79.109H437.166ZM442.248 74.636C442.563 80.684 443.193 86.27 445.818 87.11C447.204 87.74 448.338 86.942 448.653 84.338C448.233 84.128 447.477 83.54 447.099 83.141C446.994 84.38 446.826 85.199 446.595 85.136C445.209 84.8 444.495 79.865 444.348 74.636H442.248ZM433.491 72.074V90.953H435.864V74.342H448.989V90.953H451.488V72.074H433.491ZM434.982 87.824V90.071H450.354V87.824H434.982ZM462.891 79.655V81.65H469.821V79.655H462.891ZM460.98 82.931V84.968H471.879V82.931H460.98ZM461.946 72.809V74.468H465.285V72.809H461.946ZM461.505 75.833C462.177 76.19 462.996 76.778 463.416 77.177L464.214 75.98C463.815 75.581 462.975 75.077 462.303 74.762L461.505 75.833ZM460.245 77.492C460.896 77.912 461.673 78.563 462.051 79.004L462.975 77.912C462.597 77.513 461.799 76.904 461.148 76.505L460.245 77.492ZM468.561 86.522C469.527 87.656 470.598 89.231 471.06 90.239L473.076 89.147C472.593 88.118 471.438 86.627 470.472 85.535L468.561 86.522ZM464.613 72.809V73.166C463.941 76.526 461.925 79.424 459.426 80.726C459.867 81.104 460.455 81.881 460.728 82.385C463.647 80.684 465.831 77.618 466.734 73.229L465.369 72.746L464.991 72.809H464.613ZM468.561 72.662V74.447H471.711V72.662H468.561ZM462.072 71.234C461.442 73.502 460.161 75.581 458.523 76.883C458.943 77.177 459.72 77.828 460.035 78.185C461.736 76.673 463.206 74.3 464.004 71.654L462.072 71.234ZM470.892 72.662V73.061C470.577 74.321 469.863 76.064 469.065 77.114C469.464 77.429 470.115 78.08 470.409 78.521C471.48 77.261 472.509 75.224 473.139 73.334L471.753 72.536L471.354 72.662H470.892ZM465.243 83.876V88.517C465.243 88.727 465.159 88.79 464.928 88.79C464.676 88.79 463.815 88.79 463.059 88.769C463.353 89.357 463.71 90.26 463.815 90.89C465.075 90.89 465.999 90.869 466.713 90.533C467.427 90.197 467.616 89.63 467.616 88.559V83.876H465.243ZM461.568 85.64C461.085 86.921 460.203 88.223 459.258 89.105C459.783 89.378 460.707 89.945 461.148 90.302C462.093 89.315 463.122 87.719 463.731 86.228L461.568 85.64ZM467.742 71.549L465.768 71.927C466.797 76.694 468.645 80.39 472.152 82.28C472.467 81.692 473.139 80.831 473.622 80.411C470.43 78.899 468.603 75.56 467.742 71.549ZM454.449 72.074V90.911H456.633V74.321H458.733V72.074H454.449ZM458.04 72.074V72.788C457.809 74.111 457.305 77.156 456.843 79.088C457.767 80.663 457.893 82.091 457.893 83.162C457.893 83.813 457.83 84.338 457.641 84.527C457.536 84.653 457.368 84.716 457.2 84.716C457.032 84.716 456.822 84.716 456.591 84.695C456.906 85.262 457.011 86.144 457.011 86.732C457.41 86.732 457.788 86.711 458.082 86.669C458.502 86.606 458.838 86.48 459.132 86.228C459.678 85.787 459.93 84.863 459.93 83.477C459.93 82.175 459.72 80.6 458.733 78.878C459.216 77.198 459.783 74.741 460.224 72.851L458.712 71.99L458.397 72.074H458.04ZM479.271 78.815H489.645V81.461H479.271V78.815ZM477.171 77.261V83.015H491.871V77.261H477.171ZM480.783 74.867V76.505H488.196V74.867H480.783ZM483.366 77.765V82.196H485.403V77.765H483.366ZM484.374 73.124C486.411 75.014 490.128 76.967 493.047 77.954C493.425 77.303 493.971 76.442 494.517 75.875C491.262 75.056 487.86 73.397 485.466 71.171H483.072C481.35 73.04 477.906 75.014 474.462 76.043C474.903 76.568 475.491 77.471 475.764 78.038C479.082 76.883 482.505 74.93 484.374 73.124ZM480.006 79.277C480.363 80.012 480.657 80.978 480.741 81.608L482.589 81.062C482.463 80.432 482.127 79.508 481.749 78.794L480.006 79.277ZM486.957 78.71C486.789 79.403 486.39 80.432 486.096 81.125L487.818 81.587C488.154 80.999 488.574 80.117 489.036 79.214L486.957 78.71ZM478.326 83.687V90.89H480.804V85.325H488.175V90.827H490.758V83.687H478.326ZM479.754 86.165V87.824H489.246V86.165H479.754ZM479.754 88.685V90.323H489.246V88.685H479.754ZM507.621 73.544V78.773H510.057V73.544H507.621ZM505.143 81.125V88.832C505.143 89.063 505.08 89.126 504.828 89.147C504.597 89.147 503.778 89.147 503.064 89.105C503.316 89.63 503.589 90.365 503.673 90.89C504.933 90.89 505.836 90.869 506.487 90.596C507.138 90.323 507.327 89.84 507.327 88.895V81.125H505.143ZM511.233 71.15C511.023 71.759 510.561 72.62 510.204 73.229L511.926 73.754C512.367 73.229 512.892 72.515 513.438 71.696L511.233 71.15ZM504.702 71.78C505.164 72.41 505.647 73.271 505.815 73.817L507.684 73.145C507.474 72.578 506.949 71.738 506.466 71.15L504.702 71.78ZM511.401 81.104C512.178 81.692 513.081 82.532 513.48 83.162L514.992 82.049C514.551 81.44 513.627 80.621 512.85 80.096L511.401 81.104ZM502.392 86.102L502.623 88.034C504.471 87.824 506.802 87.551 509.07 87.278L509.028 85.472C506.571 85.745 504.114 85.955 502.392 86.102ZM507.831 79.97C506.592 80.369 504.492 80.663 502.707 80.831C502.896 81.251 503.127 81.902 503.19 82.301C505.101 82.196 507.432 81.902 509.133 81.44L507.831 79.97ZM503.211 73.103V74.783H514.698V73.103H503.211ZM503.883 75.581V77.135H514.068V75.581H503.883ZM502.56 77.996V79.802H515.139V77.996H502.56ZM502.518 83.036V84.863H515.118V83.036H502.518ZM509.091 80.222C509.196 86.438 510.078 90.995 513.228 90.995C514.53 90.995 515.202 90.239 515.496 88.223C515.055 88.013 514.446 87.719 514.047 87.32C513.963 88.496 513.774 89.042 513.438 89.042C512.052 89.042 511.128 85.808 511.191 80.222H509.091ZM512.703 85.094C511.569 86.963 509.427 88.475 507.369 89.315C507.768 89.651 508.314 90.26 508.566 90.638C510.75 89.693 513.081 87.992 514.404 85.934L512.703 85.094ZM496.491 77.618V79.508H502.077V77.618H496.491ZM496.617 71.822V73.733H502.014V71.822H496.617ZM496.491 80.474V82.385H502.077V80.474H496.491ZM495.609 74.657V76.652H502.602V74.657H495.609ZM497.646 83.393V85.367H500.019V87.761H497.646V89.735H502.035V83.393H497.646ZM496.428 83.393V90.617H498.402V83.393H496.428ZM517.827 74.825V85.472H520.368V77.303H532.548V85.367H535.194V74.825H517.827ZM519.15 81.818V84.296H534.018V81.818H519.15ZM525.114 71.171V90.89H527.781V71.171H525.114ZM543.237 77.177V87.215C543.237 89.861 543.993 90.68 546.681 90.68C547.227 90.68 549.537 90.68 550.104 90.68C552.624 90.68 553.317 89.441 553.611 85.493C552.897 85.325 551.826 84.863 551.259 84.401C551.091 87.698 550.923 88.391 549.894 88.391C549.348 88.391 547.458 88.391 547.017 88.391C546.03 88.391 545.862 88.244 545.862 87.215V77.177H543.237ZM543.321 73.187C545.799 74.153 548.739 75.791 550.335 77.135L552.015 74.909C550.335 73.691 547.437 72.116 544.959 71.234L543.321 73.187ZM539.457 78.668C539.184 81.482 538.575 84.233 537.336 86.039L539.688 87.383C541.074 85.325 541.62 82.091 541.935 79.172L539.457 78.668ZM551.553 79.004C553.233 81.314 554.703 84.548 555.123 86.711L557.685 85.451C557.181 83.246 555.669 80.159 553.863 77.849L551.553 79.004Z" fill="white"/>
<path d="M283.76 13.7L280.8 15.84V13.48L284.16 11.02H286.28V25H283.76V13.7ZM292.66 25.3C291.834 25.3 291.034 25.2333 290.26 25.1C289.5 24.9667 288.84 24.7667 288.28 24.5V22.56C289.547 23.1333 290.894 23.42 292.32 23.42C293.454 23.42 294.3 23.22 294.86 22.82C295.434 22.4067 295.72 21.82 295.72 21.06C295.72 20.2733 295.44 19.72 294.88 19.4C294.334 19.0667 293.48 18.9 292.32 18.9H290.58V16.94H292.26C293.194 16.94 293.934 16.7667 294.48 16.42C295.027 16.06 295.3 15.52 295.3 14.8C295.3 14.08 295.054 13.5333 294.56 13.16C294.08 12.7867 293.4 12.6 292.52 12.6C291.76 12.6 291.074 12.6933 290.46 12.88C289.86 13.0533 289.247 13.3333 288.62 13.72V11.76C289.82 11.0667 291.234 10.72 292.86 10.72C294.514 10.72 295.76 11.0733 296.6 11.78C297.44 12.4733 297.86 13.4467 297.86 14.7C297.86 15.3933 297.674 16.02 297.3 16.58C296.94 17.14 296.4 17.58 295.68 17.9C296.534 18.1533 297.18 18.56 297.62 19.12C298.06 19.6667 298.28 20.3533 298.28 21.18C298.28 22.4733 297.834 23.4867 296.94 24.22C296.047 24.94 294.62 25.3 292.66 25.3ZM301.202 17.88C300.842 17.88 300.529 17.7533 300.262 17.5C300.009 17.2333 299.882 16.92 299.882 16.56C299.882 16.2 300.009 15.8933 300.262 15.64C300.529 15.3733 300.842 15.24 301.202 15.24C301.562 15.24 301.869 15.3733 302.122 15.64C302.389 15.8933 302.522 16.2 302.522 16.56C302.522 16.92 302.389 17.2333 302.122 17.5C301.869 17.7533 301.562 17.88 301.202 17.88ZM301.202 24.68C300.842 24.68 300.529 24.5533 300.262 24.3C300.009 24.0333 299.882 23.72 299.882 23.36C299.882 23 300.009 22.6933 300.262 22.44C300.529 22.1733 300.842 22.04 301.202 22.04C301.562 22.04 301.869 22.1733 302.122 22.44C302.389 22.6933 302.522 23 302.522 23.36C302.522 23.72 302.389 24.0333 302.122 24.3C301.869 24.5533 301.562 24.68 301.202 24.68ZM310.14 25.3C308.914 25.3 307.847 25.0067 306.94 24.42C306.034 23.8333 305.334 22.9933 304.84 21.9C304.36 20.8067 304.12 19.5133 304.12 18.02C304.12 16.5267 304.36 15.2333 304.84 14.14C305.32 13.0333 306.007 12.1867 306.9 11.6C307.807 11.0133 308.887 10.72 310.14 10.72C311.38 10.72 312.454 11.0133 313.36 11.6C314.267 12.1867 314.96 13.0333 315.44 14.14C315.92 15.2333 316.16 16.5267 316.16 18.02C316.16 19.5133 315.92 20.8067 315.44 21.9C314.96 22.9933 314.267 23.8333 313.36 24.42C312.454 25.0067 311.38 25.3 310.14 25.3ZM310.14 23.02C311.247 23.02 312.1 22.58 312.7 21.7C313.314 20.8067 313.62 19.5867 313.62 18.04C313.62 16.4933 313.32 15.2733 312.72 14.38C312.12 13.4867 311.267 13.04 310.16 13.04C309.054 13.04 308.194 13.4867 307.58 14.38C306.98 15.2733 306.68 16.4933 306.68 18.04C306.68 19.5867 306.98 20.8067 307.58 21.7C308.194 22.58 309.047 23.02 310.14 23.02ZM323.773 25.3C322.546 25.3 321.48 25.0067 320.573 24.42C319.666 23.8333 318.966 22.9933 318.473 21.9C317.993 20.8067 317.753 19.5133 317.753 18.02C317.753 16.5267 317.993 15.2333 318.473 14.14C318.953 13.0333 319.64 12.1867 320.533 11.6C321.44 11.0133 322.52 10.72 323.773 10.72C325.013 10.72 326.086 11.0133 326.993 11.6C327.9 12.1867 328.593 13.0333 329.073 14.14C329.553 15.2333 329.793 16.5267 329.793 18.02C329.793 19.5133 329.553 20.8067 329.073 21.9C328.593 22.9933 327.9 23.8333 326.993 24.42C326.086 25.0067 325.013 25.3 323.773 25.3ZM323.773 23.02C324.88 23.02 325.733 22.58 326.333 21.7C326.946 20.8067 327.253 19.5867 327.253 18.04C327.253 16.4933 326.953 15.2733 326.353 14.38C325.753 13.4867 324.9 13.04 323.793 13.04C322.686 13.04 321.826 13.4867 321.213 14.38C320.613 15.2733 320.313 16.4933 320.313 18.04C320.313 19.5867 320.613 20.8067 321.213 21.7C321.826 22.58 322.68 23.02 323.773 23.02ZM345.553 19.74C345.18 19.74 344.806 19.6867 344.433 19.58C344.073 19.4733 343.646 19.32 343.153 19.12C342.606 18.92 342.173 18.7733 341.853 18.68C341.533 18.5867 341.2 18.54 340.853 18.54C339.92 18.54 339.166 18.9333 338.593 19.72V17.46C338.806 17.14 339.106 16.8933 339.493 16.72C339.893 16.5467 340.346 16.46 340.853 16.46C341.226 16.46 341.586 16.5133 341.933 16.62C342.293 16.7133 342.753 16.8667 343.313 17.08C343.793 17.2667 344.2 17.4133 344.533 17.52C344.88 17.6133 345.22 17.66 345.553 17.66C346.486 17.66 347.24 17.2667 347.813 16.48V18.74C347.6 19.06 347.293 19.3067 346.893 19.48C346.506 19.6533 346.06 19.74 345.553 19.74ZM359.58 13.7L356.62 15.84V13.48L359.98 11.02H362.1V25H359.58V13.7ZM371.001 13.12H363.901V11.02H373.601V12.78L368.081 25H365.621L371.001 13.12ZM376.319 17.88C375.959 17.88 375.646 17.7533 375.379 17.5C375.126 17.2333 374.999 16.92 374.999 16.56C374.999 16.2 375.126 15.8933 375.379 15.64C375.646 15.3733 375.959 15.24 376.319 15.24C376.679 15.24 376.986 15.3733 377.239 15.64C377.506 15.8933 377.639 16.2 377.639 16.56C377.639 16.92 377.506 17.2333 377.239 17.5C376.986 17.7533 376.679 17.88 376.319 17.88ZM376.319 24.68C375.959 24.68 375.646 24.5533 375.379 24.3C375.126 24.0333 374.999 23.72 374.999 23.36C374.999 23 375.126 22.6933 375.379 22.44C375.646 22.1733 375.959 22.04 376.319 22.04C376.679 22.04 376.986 22.1733 377.239 22.44C377.506 22.6933 377.639 23 377.639 23.36C377.639 23.72 377.506 24.0333 377.239 24.3C376.986 24.5533 376.679 24.68 376.319 24.68ZM383.618 25.3C382.791 25.3 381.991 25.2333 381.218 25.1C380.458 24.9667 379.798 24.7667 379.238 24.5V22.56C380.504 23.1333 381.851 23.42 383.278 23.42C384.411 23.42 385.258 23.22 385.818 22.82C386.391 22.4067 386.678 21.82 386.678 21.06C386.678 20.2733 386.398 19.72 385.838 19.4C385.291 19.0667 384.438 18.9 383.278 18.9H381.538V16.94H383.218C384.151 16.94 384.891 16.7667 385.438 16.42C385.984 16.06 386.258 15.52 386.258 14.8C386.258 14.08 386.011 13.5333 385.518 13.16C385.038 12.7867 384.358 12.6 383.478 12.6C382.718 12.6 382.031 12.6933 381.418 12.88C380.818 13.0533 380.204 13.3333 379.578 13.72V11.76C380.778 11.0667 382.191 10.72 383.818 10.72C385.471 10.72 386.718 11.0733 387.558 11.78C388.398 12.4733 388.818 13.4467 388.818 14.7C388.818 15.3933 388.631 16.02 388.258 16.58C387.898 17.14 387.358 17.58 386.638 17.9C387.491 18.1533 388.138 18.56 388.578 19.12C389.018 19.6667 389.238 20.3533 389.238 21.18C389.238 22.4733 388.791 23.4867 387.898 24.22C387.004 24.94 385.578 25.3 383.618 25.3ZM396.859 25.3C395.632 25.3 394.566 25.0067 393.659 24.42C392.752 23.8333 392.052 22.9933 391.559 21.9C391.079 20.8067 390.839 19.5133 390.839 18.02C390.839 16.5267 391.079 15.2333 391.559 14.14C392.039 13.0333 392.726 12.1867 393.619 11.6C394.526 11.0133 395.606 10.72 396.859 10.72C398.099 10.72 399.172 11.0133 400.079 11.6C400.986 12.1867 401.679 13.0333 402.159 14.14C402.639 15.2333 402.879 16.5267 402.879 18.02C402.879 19.5133 402.639 20.8067 402.159 21.9C401.679 22.9933 400.986 23.8333 400.079 24.42C399.172 25.0067 398.099 25.3 396.859 25.3ZM396.859 23.02C397.966 23.02 398.819 22.58 399.419 21.7C400.032 20.8067 400.339 19.5867 400.339 18.04C400.339 16.4933 400.039 15.2733 399.439 14.38C398.839 13.4867 397.986 13.04 396.879 13.04C395.772 13.04 394.912 13.4867 394.299 14.38C393.699 15.2733 393.399 16.4933 393.399 18.04C393.399 19.5867 393.699 20.8067 394.299 21.7C394.912 22.58 395.766 23.02 396.859 23.02Z" fill="white"/>
<path d="M283.294 162.176C280.894 159.232 279.694 155.68 279.694 151.52C279.694 147.36 280.894 143.808 283.294 140.864H286.414C283.982 143.984 282.766 147.536 282.766 151.52C282.766 155.504 283.982 159.056 286.414 162.176H283.294ZM292.051 157.112V158.864H305.563V157.112H292.051ZM291.235 149.696V159.92H293.059V151.424H304.627V159.872H306.523V149.696H291.235ZM296.059 137.768C294.955 140.336 292.987 143.864 291.403 146L292.963 146.672C294.571 144.56 296.587 141.248 298.027 138.464L296.059 137.768ZM301.819 141.656C304.291 143.672 307.027 146.576 308.227 148.568L309.763 147.368C308.515 145.376 305.683 142.544 303.235 140.6L301.819 141.656ZM288.403 145.208L288.523 147.056C293.107 146.864 300.355 146.552 307.099 146.192L307.195 144.464C300.355 144.776 292.963 145.088 288.403 145.208ZM312.427 143.936V145.736H319.483V143.936H312.427ZM324.451 138.296V156.08C324.451 158.672 325.123 159.392 327.355 159.392C327.835 159.392 330.715 159.392 331.219 159.392C333.571 159.392 334.051 157.832 334.267 153.44C333.763 153.32 332.995 152.96 332.539 152.6C332.371 156.584 332.203 157.616 331.099 157.616C330.475 157.616 328.075 157.616 327.547 157.616C326.515 157.616 326.299 157.376 326.299 156.128V138.296H324.451ZM318.595 138.296V159.728H320.443V138.296H318.595ZM332.275 141.992C330.475 143.648 327.499 145.688 324.835 147.152C325.099 147.536 325.459 148.16 325.603 148.568C328.315 147.08 331.387 145.256 333.595 143.552L332.275 141.992ZM311.683 155.072L312.523 156.872C314.587 156.008 317.299 154.88 319.819 153.776L319.483 152.144C316.627 153.272 313.627 154.424 311.683 155.072ZM345.859 137.744V142.232H347.755V137.744H345.859ZM345.883 142.808V159.992H347.731V142.808H345.883ZM336.091 141.176V142.928H357.715V141.176H336.091ZM338.563 146.216V156.944H340.363V147.968H354.331V146.216H338.563ZM353.635 146.216V154.664C353.635 155 353.515 155.096 353.083 155.12C352.675 155.144 351.211 155.144 349.579 155.096C349.843 155.6 350.131 156.32 350.203 156.872C352.267 156.872 353.611 156.848 354.451 156.56C355.243 156.248 355.483 155.696 355.483 154.664V146.216H353.635ZM361.195 142.136V153.56H362.995V143.912H378.667V153.44H380.539V142.136H361.195ZM362.155 150.296V152.048H379.747V150.296H362.155ZM369.883 137.84V159.896H371.755V137.84H369.883ZM385.027 139.616V141.368H404.899V139.616H385.027ZM395.419 147.776V149.552H403.939V147.776H395.419ZM384.115 157.112V158.864H405.691V157.112H384.115ZM394.555 140.264V157.976H396.427V140.264H394.555ZM387.403 145.784V158.048H389.251V145.784H387.403ZM417.259 143.432H422.779V146.192H417.259V143.432ZM415.579 142.136V147.488H424.555V142.136H415.579ZM414.475 150.44H417.667V153.992H414.475V150.44ZM412.939 149.12V155.312H419.251V149.12H412.939ZM422.419 150.44H425.779V153.992H422.419V150.44ZM420.883 149.12V155.312H427.363V149.12H420.883ZM409.123 138.896V159.944H410.875V140.504H429.187V138.896H409.123ZM410.275 157.112V158.768H429.811V157.112H410.275ZM433.195 142.136V153.56H434.995V143.912H450.667V153.44H452.539V142.136H433.195ZM434.155 150.296V152.048H451.747V150.296H434.155ZM441.883 137.84V159.896H443.755V137.84H441.883ZM465.835 138.344V156.92H467.731V138.344H465.835ZM457.411 143.576V159.632H459.235V143.576H457.411ZM474.595 143.552V159.536H476.443V143.552H474.595ZM458.299 155.84V157.688H475.411V155.84H458.299ZM480.331 140.264V141.968H501.475V140.264H480.331ZM485.275 149.888V151.352H496.627V149.888H485.275ZM484.771 153.8V155.312H497.059V153.8H484.771ZM489.931 150.584V159.464H491.659V150.584H489.931ZM481.627 144.488V159.896H483.427V146.168H498.979V144.488H481.627ZM498.355 144.488V157.832C498.355 158.216 498.259 158.336 497.827 158.36C497.395 158.384 495.907 158.384 494.395 158.312C494.659 158.768 494.947 159.464 495.043 159.944C497.011 159.944 498.379 159.92 499.147 159.656C499.939 159.392 500.203 158.888 500.203 157.832V144.488H498.355ZM486.475 146.96C487.075 147.848 487.699 149.072 487.939 149.888L489.451 149.336C489.187 148.544 488.563 147.368 487.915 146.504L486.475 146.96ZM493.819 146.48C493.411 147.512 492.667 149.024 492.067 150.008L493.363 150.44C493.987 149.528 494.731 148.184 495.355 146.936L493.819 146.48ZM489.883 137.864V145.616H491.875V137.864H489.883ZM515.611 157.424V159.008H523.531V157.424H515.611ZM516.787 140.312V141.872H523.123V140.312H516.787ZM514.915 151.232V159.872H516.571V152.792H522.619V159.8H524.347V151.232H514.915ZM522.475 140.312V140.624C520.915 145.64 516.667 149.504 512.419 151.136C512.779 151.472 513.259 152.096 513.475 152.504C518.035 150.56 522.427 146.624 524.275 140.72L523.123 140.24L522.787 140.312H522.475ZM517.195 137.84C516.283 140.792 514.627 143.6 512.659 145.4C513.091 145.664 513.787 146.24 514.075 146.552C516.067 144.56 517.843 141.512 518.923 138.248L517.195 137.84ZM516.715 141.296L515.539 142.28C517.003 145.736 520.171 150.08 525.115 152.216C525.355 151.76 525.859 151.064 526.243 150.728C521.323 148.856 518.107 144.728 516.715 141.296ZM505.027 148.496V157.208H506.539V148.496H505.027ZM506.635 140.432H511.147V144.656H506.635V140.432ZM505.027 138.848V146.24H512.827V138.848H505.027ZM508.411 145.448V156.416H510.043V145.448H508.411ZM503.779 157.016L504.115 158.768C506.635 158.144 510.091 157.304 513.379 156.488L513.211 154.88C509.755 155.696 506.155 156.536 503.779 157.016ZM508.987 149.72V151.328H513.043V149.72H508.987ZM531.403 144.44L527.851 147.008V144.176L531.883 141.224H534.427V158H531.403V144.44ZM540.379 144.44L536.827 147.008V144.176L540.859 141.224H543.403V158H540.379V144.44ZM548.54 140.264H552.116V143.912H548.54V140.264ZM546.908 138.752V145.448H553.82V138.752H546.908ZM545.804 147.128V148.712H554.852V147.128H545.804ZM548.06 147.848C547.7 149.672 547.148 152.072 546.668 153.608L548.3 153.92C548.732 152.336 549.308 149.84 549.716 147.848H548.06ZM548.252 150.848L547.844 152.384H552.716V150.848H548.252ZM552.044 150.848V151.136C551.756 155.864 551.396 157.712 550.916 158.192C550.724 158.408 550.484 158.456 550.124 158.432C549.74 158.432 548.804 158.432 547.772 158.336C548.06 158.768 548.252 159.464 548.276 159.92C549.284 159.968 550.268 159.968 550.796 159.944C551.444 159.872 551.852 159.728 552.26 159.296C552.932 158.576 553.292 156.608 553.676 151.592C553.7 151.328 553.724 150.848 553.724 150.848H552.044ZM561.092 139.496V140.984H566.828V139.496H561.092ZM556.268 142.616V144.08H566.852V142.616H556.268ZM560.228 137.84V143.384H561.956V137.84H560.228ZM555.5 142.616V148.76C555.5 151.856 555.284 156.032 553.196 159.08C553.604 159.248 554.276 159.752 554.564 160.064C556.796 156.872 557.132 152.12 557.132 148.76V142.616H555.5ZM557.708 146.576L557.876 147.896L564.98 147.128L564.812 145.88L557.708 146.576ZM560.324 144.248V148.544C560.324 150.08 560.756 150.464 562.484 150.464C562.844 150.464 564.764 150.464 565.124 150.464C566.42 150.464 566.876 149.984 567.02 148.136C566.588 148.04 565.964 147.824 565.628 147.608C565.556 148.952 565.46 149.12 564.932 149.12C564.524 149.12 562.988 149.12 562.7 149.12C562.028 149.12 561.932 149.048 561.932 148.544V144.248H560.324ZM566.348 142.616V142.856C566.204 144.128 565.916 145.76 565.676 146.768L567.068 147.104C567.356 146.024 567.74 144.296 568.028 142.832L566.9 142.544L566.612 142.616H566.348ZM559.076 151.52C558.932 155.048 558.404 157.376 555.788 158.72C556.148 159.008 556.628 159.608 556.844 160.016C559.772 158.408 560.468 155.6 560.636 151.52H559.076ZM562.604 151.496V157.376C562.604 158.48 562.7 158.84 563.084 159.176C563.444 159.464 563.996 159.56 564.524 159.56C564.788 159.56 565.58 159.56 565.892 159.56C566.348 159.56 566.876 159.464 567.164 159.32C567.524 159.104 567.788 158.84 567.932 158.384C568.052 157.976 568.172 156.776 568.196 155.648C567.74 155.504 567.14 155.192 566.828 154.904C566.828 155.984 566.804 156.92 566.732 157.304C566.684 157.568 566.564 157.736 566.42 157.808C566.3 157.88 565.988 157.928 565.772 157.928C565.484 157.928 565.1 157.928 564.908 157.928C564.668 157.928 564.476 157.88 564.332 157.808C564.212 157.76 564.164 157.592 564.164 157.424V151.496H562.604ZM569.324 162.176C571.756 159.056 572.972 155.504 572.972 151.52C572.972 147.536 571.756 143.984 569.324 140.864H572.444C574.844 143.808 576.044 147.36 576.044 151.52C576.044 155.68 574.844 159.232 572.444 162.176H569.324Z" fill="white"/>
</svg>
