<svg width="620" height="773" viewBox="0 0 620 773" fill="none" xmlns="http://www.w3.org/2000/svg">
<g clip-path="url(#clip0_1311_204)">
<path d="M246.056 614.997L451.793 608.354C451.793 608.354 533.464 675.442 553.879 795.035C574.293 914.627 439.526 1724.23 439.526 1724.23H335.322L356.814 1013.37L179.927 1719.27L65.8628 1717.63L118.758 1249.79C118.758 1249.79 157.078 894.929 171.661 824.925C186.245 754.922 246.056 614.997 246.056 614.997Z" fill="#FF938B"/>
<path d="M191.795 825.176C189.712 825.215 187.661 824.651 185.891 823.552C175.558 816.976 179.913 792.946 180.104 791.92L182.968 792.458C181.772 798.872 180.237 816.511 187.455 821.095C191.928 823.929 199.685 821.545 209.892 814.187C247.864 786.827 294.996 629.454 295.468 627.868L298.265 628.702C298.147 629.1 286.228 669.028 269.725 711.864C247.488 769.564 227.93 804.791 211.597 816.556C203.611 822.298 196.991 825.176 191.795 825.176Z" fill="#E07000"/>
<path d="M543.856 760.782C539.214 740.899 414.699 617.742 413.466 616.495L415.518 614.421C420.684 619.513 541.863 739.423 546.698 760.118L543.856 760.782Z" fill="#E07000"/>
<path d="M203.072 722.433C207.036 708.182 222.261 677.169 226.217 662.917C313.21 652.105 396.956 659.633 483.447 673.936C479.639 673.309 463.225 685.546 457.978 687.221C447.645 690.439 436.995 692.041 426.242 691.059C403.842 689 395.281 689.096 371.686 689.406C319.543 690.048 251.518 703.089 203.072 722.433Z" fill="white"/>
<path d="M424.264 277.947L425.932 279.349C428.439 281.451 430.358 284.168 431.5 287.234C432.642 290.3 432.969 293.61 432.449 296.841L429.105 317.639C429.105 317.639 537.007 338.894 574.16 456.944C605.549 556.676 655.389 624.878 581.747 681.796C522.091 727.909 353.641 671.191 353.641 671.191C353.641 671.191 194.865 693.856 171.956 617.742C149.048 541.627 141.623 469.439 161.742 376.918C181.861 284.397 239.443 277.733 273.814 282.449C290.802 284.684 307.914 285.84 325.049 285.91L326.052 271.341C326.27 269.256 327.055 267.269 328.32 265.598C329.586 263.926 331.285 262.633 333.234 261.857L335.042 261.119L424.264 277.947Z" fill="white"/>
<path d="M393.377 502.91C387.493 498.345 383.552 491.725 382.343 484.377L382.299 484.112L366.423 484.422L365.279 425.961C366.652 426.795 368.04 427.644 369.412 428.493C375.177 432.05 375.885 432.582 376.579 433.298C378.608 435.394 379.893 438.405 380.395 442.265L382.712 459.793H382.04H382.003C381.215 460.03 380.477 460.411 379.826 460.915C379.189 461.358 378.665 461.945 378.298 462.628C377.932 463.312 377.732 464.073 377.715 464.849C377.745 465.955 378.107 467.027 378.753 467.926C379.399 468.825 380.3 469.509 381.339 469.89L384.085 470.532L384.476 469.196C384.476 469.144 386.321 463.395 386.69 462.354V462.303C386.704 462.255 386.721 462.208 386.742 462.162C386.838 461.875 386.941 461.579 387.044 461.291C387.421 460.17 387.782 459.151 388.055 458.17C389.65 452.944 391.067 447.837 390.845 442.53C390.74 439.561 390.317 436.612 389.583 433.733C388.866 430.916 388.443 428.032 388.321 425.127C388.269 422.537 389.376 419.806 391.694 416.802C394.122 419.71 395.332 422.397 395.384 424.995C395.379 427.9 395.07 430.796 394.462 433.637C393.842 436.548 393.535 439.517 393.546 442.494C393.546 447.793 395.148 452.826 396.941 457.992C397.281 458.967 397.68 459.97 398.078 461.07L398.418 461.941C398.434 461.989 398.454 462.036 398.477 462.081V462.081C398.883 463.107 400.934 468.783 400.956 468.842L401.399 470.155L404.115 469.417C405.137 468.998 406.01 468.282 406.619 467.36C407.229 466.439 407.547 465.356 407.532 464.251C407.486 463.476 407.258 462.723 406.865 462.054C406.473 461.384 405.927 460.817 405.274 460.398C404.611 459.914 403.858 459.565 403.06 459.373H402.322L403.953 441.77C404.307 437.888 405.473 434.825 407.414 432.663C408.078 431.925 408.772 431.356 414.389 427.578L418.419 424.884L419.562 483.344L403.687 483.654V483.92C402.753 491.307 399.079 498.074 393.391 502.88L393.377 502.91ZM385.915 484.459C386.742 487.935 388.491 492.577 390.912 495.19L391.473 495.795L391.244 483.986L385.826 484.09L385.915 484.459ZM395 495.729L395.539 495.101C397.857 492.4 399.414 487.721 400.108 484.178L400.181 483.794L394.764 483.898L395 495.729ZM402.381 473.13L402.528 473.462C403.307 475.442 403.803 477.521 404.005 479.639V479.934L416.005 479.698L415.769 465.912L415.489 465.838L410.78 465.926L410.728 466.17C410.436 467.586 409.779 468.9 408.822 469.984C407.866 471.067 406.642 471.882 405.274 472.347L402.381 473.13ZM369.567 466.79L369.841 480.599L381.834 480.37V480.067C381.959 477.944 382.384 475.85 383.096 473.846L383.229 473.506L380.276 472.82C378.892 472.406 377.638 471.638 376.641 470.592C375.643 469.547 374.935 468.259 374.586 466.856L374.52 466.613L369.818 466.709L369.567 466.79ZM398.506 474.229C398.135 474.31 397.772 474.424 397.421 474.569C396.902 474.758 396.407 475.005 395.945 475.307C394.469 476.392 394.69 479.632 394.698 479.772V480.075L400.602 479.957L400.514 479.58C400.314 478.702 400.078 477.816 399.776 476.96C399.473 476.104 399.193 475.218 398.853 474.377L398.75 474.133L398.506 474.229ZM386.801 474.65C386.491 475.506 386.21 476.384 385.974 477.27C385.738 478.156 385.531 479.027 385.369 479.912L385.295 480.296L391.163 480.178V479.875C391.163 479.743 391.229 476.488 389.746 475.447C389.285 475.142 388.789 474.895 388.269 474.709C387.911 474.581 387.544 474.483 387.17 474.414L386.904 474.362L386.801 474.65ZM392.853 473.742L392.971 473.632H393.126C393.126 473.632 393.126 473.55 393.126 473.499V473.454C393.686 472.911 394.329 472.46 395.03 472.119C395.367 471.969 395.712 471.839 396.063 471.727C396.417 471.609 397.185 471.395 397.406 471.336L397.746 471.255L392.698 457.107H392.218L387.723 471.447L388.07 471.513C388.292 471.558 389.067 471.742 389.428 471.845C389.79 471.949 390.255 472.111 390.469 472.2C391.187 472.512 391.849 472.939 392.432 473.462V473.506V473.639H392.58L392.705 473.742V473.705L392.853 473.742ZM414.699 433.024C413.717 433.507 412.776 434.07 411.887 434.707C411.124 435.229 410.41 435.82 409.754 436.471C408.346 438.05 407.484 440.04 407.296 442.147V442.147L406.174 456.369L406.359 456.465C407.414 457.013 408.342 457.779 409.081 458.711C409.82 459.644 410.354 460.722 410.647 461.875L410.706 462.118L415.688 462.022L415.112 432.803L414.699 433.024ZM369.472 462.959L374.446 462.863L374.498 462.62C374.746 461.457 375.237 460.359 375.939 459.398C376.641 458.438 377.538 457.637 378.572 457.048L378.756 456.944L377.11 442.781C376.849 440.659 375.913 438.677 374.439 437.128C373.75 436.507 373.009 435.947 372.224 435.453C371.308 434.853 370.346 434.327 369.346 433.881L368.896 433.681L369.472 462.959Z" fill="#FF938B"/>
<path d="M555.015 609.195C548.889 595.638 532.202 587.726 517.833 591.556L517.405 589.962C532.534 585.918 550.078 594.25 556.521 608.516L555.015 609.195Z" fill="#9C9C9E"/>
<path d="M520.571 585.563L519.619 584.212C526.752 579.257 534.852 575.866 543.388 574.262C551.925 572.658 560.704 572.877 569.149 574.906L568.758 576.515C560.542 574.54 552.001 574.325 543.697 575.885C535.392 577.444 527.511 580.743 520.571 585.563V585.563Z" fill="#9C9C9E"/>
<path d="M343.588 672.837C343.588 672.837 232.882 681.154 216.298 689.369C219.462 681.039 222.626 672.704 225.789 664.364L343.588 672.837Z" fill="#9C9C9E"/>
<path d="M506.341 469.978C506.341 469.978 522.209 550.565 500.644 576.95L525.442 606.708C525.442 606.708 519.434 514.623 506.341 469.978Z" fill="#9C9C9E"/>
<path d="M252.484 470C251.532 454.656 252.898 440.117 254.344 424.729C254.912 418.64 255.51 412.344 255.975 405.79L257.628 405.909C257.156 412.477 256.566 418.787 255.99 424.884C254.514 440.205 253.193 454.678 254.137 469.904L252.484 470Z" fill="#9C9C9E"/>
<path d="M483.735 574.854C398.354 574.842 313.247 565.204 230.026 546.122L230.395 544.513C316.183 564.192 403.972 573.81 491.987 573.171V574.824C489.248 574.847 486.488 574.854 483.735 574.854Z" fill="#9C9C9E"/>
<path d="M253.399 480.776L246.019 548.816L277.187 555.207C277.187 555.207 258.182 530.38 253.399 480.776Z" fill="#9C9C9E"/>
<path d="M497.743 575.754C497.743 575.754 515.929 574.153 517.56 582.396C519.191 590.64 525.767 600.604 527.405 607.224C529.044 613.844 532.298 627.078 527.324 632.022C522.35 636.967 525.641 641.934 522.327 645.226C519.014 648.518 505.766 655.101 505.766 655.101C505.766 655.101 514.194 600.597 497.743 575.754Z" fill="#FFC6B0"/>
<path d="M256.994 375.87L255.348 375.73C256.89 357.279 244.048 340.503 236.247 332.127L237.458 331.005C245.443 339.581 258.566 356.814 256.994 375.87Z" fill="#9C9C9E"/>
<path d="M406.292 318.635C391.324 318.635 376.487 315.834 362.549 310.377L363.154 308.834C382.231 316.306 402.924 318.691 423.201 315.757L423.437 317.395C417.759 318.22 412.03 318.635 406.292 318.635V318.635Z" fill="#9C9C9E"/>
<path d="M186.806 561.857L185.367 561.038C193.766 546.344 211.936 537.864 228.594 540.853L228.299 542.484C212.32 539.635 194.858 547.783 186.806 561.857Z" fill="#9C9C9E"/>
<path d="M187.337 535.811L186.835 534.232C200.965 529.801 216.077 529.57 230.336 533.568L229.878 535.155C215.933 531.251 201.155 531.479 187.337 535.811Z" fill="#9C9C9E"/>
<path d="M342.09 302.967C338.581 302.904 335.184 301.72 332.396 299.589C329.607 297.458 327.573 294.491 326.591 291.121L328.185 290.686C329.839 296.782 336.09 301.468 342.393 301.313V302.967H342.09Z" fill="#9C9C9E"/>
<path d="M401.938 555.215C372.889 555.215 344.666 539.561 329.418 514.763L330.82 513.899C346.275 538.993 375.383 554.558 404.794 553.51L404.853 555.163C403.886 555.215 402.912 555.215 401.938 555.215Z" fill="#9C9C9E"/>
<path d="M393.451 426.5L392.639 425.275C368.032 388.218 339.227 337.647 315.587 290.007L317.063 289.269C340.415 336.319 368.8 386.233 393.192 423.12C411.289 384.122 420.655 355.22 432.471 318.658L433.128 316.621L434.7 317.13L434.043 319.167C422.072 356.165 412.64 385.384 394.071 425.164L393.451 426.5Z" fill="#FF938B"/>
<path d="M303.918 558.765C303.918 558.765 293.003 497.426 284.781 482.517C272.507 469.498 244.403 436.434 235.332 444.346C228.439 450.346 255.997 476.082 255.997 476.082C255.997 476.082 207.146 470.686 207.124 477.299C207.102 483.912 208.748 487.219 215.353 488.894C221.959 490.569 256.684 493.979 263.252 502.267C251.695 497.271 207.072 490.525 207.05 498.791C207.028 507.057 210.327 508.718 231.804 512.076C253.281 515.434 263.178 528.697 264.81 533.664C264.81 533.664 226.239 528.962 225.14 533.546C223.206 541.583 236.166 543.812 246.078 547.148C255.99 550.484 303.918 558.765 303.918 558.765Z" fill="#FFC6B0"/>
<path d="M273.519 482.724C270.741 481.557 267.891 480.571 264.987 479.772C262.019 478.94 259.108 477.92 256.27 476.716L256.942 475.24C259.718 476.404 262.565 477.39 265.467 478.192C268.437 479.024 271.35 480.045 274.19 481.248L273.519 482.724Z" fill="#FF9887"/>
<path d="M492.142 201.057C495.898 204.519 500.4 207.419 504.29 210.77C518.637 223.162 525.103 243.982 520.291 262.322L490.031 257.806C489.662 259.843 489.293 261.872 488.916 263.902L454.317 267.666L446.936 239.111C446.331 247.52 445.729 255.928 445.128 264.337C418.204 270.98 361.501 264.212 333.684 264.507C324.458 264.596 251.444 270.773 251.444 268.5C251.193 260.824 250.947 253.144 250.706 245.458L238.676 266.123L217.464 266.994C217.981 258.093 216.128 244.292 220.151 236.233C223.457 229.59 232.801 225.479 238.89 222.165C244.978 218.852 251.178 214.63 253.363 208.091C257.983 194.29 242.292 179.049 248.3 165.816C253.045 155.439 267.784 154.14 275.09 145.38C281.261 137.999 280.685 127.334 282.604 117.902C287.453 94.1151 305.823 85.1257 326.613 78.904C350.504 71.7598 368.313 60.3718 394.432 69.1766C414.905 76.0773 432.663 73.9591 447.822 93.4287C456.442 104.499 459.468 118.131 464.31 130.995C466.096 135.733 467.705 140.649 471.277 144.324C475.373 148.531 480.621 149.269 483.086 155.395C485.44 161.299 484.857 167.941 484.333 174.303C483.809 180.665 483.425 187.345 486.119 193.131C487.589 196.142 489.635 198.835 492.142 201.057V201.057Z" fill="#0F0D16"/>
<path d="M308.878 193.419H298.959V234.75H308.878V193.419Z" fill="white"/>
<path d="M452.464 176.887C450.811 181.847 447.505 193.419 439.246 193.419L425.526 283.232C425.278 284.851 424.402 286.307 423.089 287.287C421.776 288.266 420.13 288.689 418.507 288.464L376.653 282.693L339.064 275.46C337.566 275.167 336.223 274.349 335.275 273.152C334.328 271.956 333.84 270.461 333.898 268.936L334.2 261.135L335.108 244.669C332.305 242.61 329.621 240.392 327.071 238.026V238.026C318.443 230.174 305.712 216.084 303.712 200.017C302.937 193.855 302.177 186.526 301.446 178.821C300.767 171.647 300.125 164.141 299.549 156.967C298.073 138.782 297.099 122.648 297.099 119.01C297.099 112.367 315.284 59.5013 363.228 64.461C411.171 69.4206 434.316 109.09 432.663 117.356C431.009 125.623 432.663 158.687 432.663 158.687C432.663 158.687 444.228 138.848 455.8 147.114C467.373 155.38 454.147 171.927 452.464 176.887Z" fill="#FFC6B0"/>
<path d="M335.093 244.669L334.186 261.135C337.536 260.817 351.825 259.548 364.851 259.548C379.73 259.548 416.33 244.669 422.943 209.951C422.943 209.951 414.677 229.79 393.185 234.749C365.375 241.163 367.213 238.654 356.814 239.709C340.518 241.362 341.935 239.709 323.75 234.749C328.363 238.964 335.093 244.669 335.093 244.669Z" fill="#FF9887"/>
<path d="M359.914 125.15L358.29 121.356C358.074 120.857 357.969 120.317 357.98 119.773C357.992 119.228 358.12 118.693 358.357 118.203C358.593 117.713 358.933 117.28 359.352 116.932C359.771 116.585 360.259 116.332 360.785 116.19C366.246 114.714 379.28 112.411 384.919 112.411C393.185 112.411 407.835 123.984 407.835 123.984C407.835 123.984 383.133 118.175 365.028 126.98C364.575 127.208 364.079 127.341 363.572 127.372C363.066 127.402 362.558 127.33 362.08 127.159C361.602 126.988 361.163 126.721 360.791 126.376C360.419 126.031 360.12 125.614 359.914 125.15V125.15Z" fill="#0F0D16"/>
<path d="M336.975 127.246V120.338C336.969 119.978 336.835 119.632 336.597 119.362C336.359 119.091 336.033 118.914 335.676 118.862C331.182 118.198 316.369 116.271 312.177 119.061C307.225 122.368 300.612 132.287 300.612 132.287C300.612 132.287 308.878 127.327 315.484 127.327C320.739 127.327 331.219 128.375 335.293 128.803C335.509 128.827 335.727 128.803 335.933 128.735C336.14 128.667 336.329 128.555 336.488 128.408C336.648 128.26 336.774 128.08 336.858 127.88C336.942 127.679 336.982 127.463 336.975 127.246V127.246Z" fill="#0F0D16"/>
<path d="M352.452 168.621C351.013 168.621 338.429 168.458 338.429 162.835C338.429 157.89 340.813 134.789 340.917 133.822L342.555 133.992C342.555 134.228 340.083 157.978 340.083 162.835C340.083 166.207 349.264 166.968 352.482 166.968L352.452 168.621Z" fill="#FF9887"/>
<path d="M327.041 94.3885C328.078 96.634 329.474 98.6956 331.174 100.492C334.341 103.599 338.865 105.002 343.293 105.216C347.721 105.43 352.15 104.581 356.474 103.74C355.731 99.0259 354.993 94.3123 354.26 89.5986C358.084 94.2284 363.035 97.7948 368.638 99.9537C374.241 102.113 380.306 102.791 386.247 101.924C383.834 94.979 382.52 88.4104 381.332 81.1554C388.675 94.1597 403.023 109.201 417.953 109.105C418.581 105.415 415.673 99.577 416.3 95.8868C424.566 120.678 431.179 132.25 432.729 154.79L449.305 138.789L452.258 141.254C458.206 124.279 455.262 104.891 446.206 89.3698C437.15 73.8488 421.112 56.9919 404.72 49.5967C378.66 37.825 347.153 39.2051 322.06 52.9032C296.966 66.6012 281.268 98.5068 284.774 126.892C285.091 129.468 286.021 132.545 288.552 133.136C290.951 133.689 293.084 131.608 294.671 129.719C300.216 123.135 305.756 116.547 311.291 109.954C314.893 105.673 318.569 101.26 320.443 95.9827C322.318 90.7057 323.218 83.9231 321.477 78.6239C318.945 81.8861 324.598 89.4436 326.104 92.5434C326.466 93.2003 326.731 93.7759 327.041 94.3885Z" fill="#0F0D16"/>
<path d="M381.62 148.782C385.272 148.782 388.232 144.711 388.232 139.69C388.232 134.668 385.272 130.597 381.62 130.597C377.967 130.597 375.007 134.668 375.007 139.69C375.007 144.711 377.967 148.782 381.62 148.782Z" fill="#0F0D16"/>
<path d="M322.104 152.088C325.756 152.088 328.717 148.017 328.717 142.996C328.717 137.974 325.756 133.903 322.104 133.903C318.452 133.903 315.491 137.974 315.491 142.996C315.491 148.017 318.452 152.088 322.104 152.088Z" fill="#0F0D16"/>
<path d="M451.047 183.5H441.128V224.83H451.047V183.5Z" fill="white"/>
<path d="M347.64 190.253C341.389 190.253 335.411 189.699 330.968 188.43L331.418 186.836C342.629 190.039 363.825 188.555 373.914 185.197L374.438 186.762C368.121 188.873 357.537 190.253 347.64 190.253Z" fill="#FF9887"/>
<path d="M441.741 162.421L440.575 161.248C444.539 157.299 449.328 154.274 454.597 152.391L455.151 153.948C450.112 155.751 445.533 158.644 441.741 162.421Z" fill="#FF9887"/>
<path d="M450.08 168.731L448.604 167.993C450.41 164.17 450.733 159.812 449.512 155.764L451.099 155.284C452.434 159.738 452.071 164.529 450.08 168.731V168.731Z" fill="#FF9887"/>
<path d="M294.929 152.052C292.781 153.247 291.652 155.742 291.483 158.229C291.313 160.716 291.962 163.107 292.597 165.477C294.339 171.952 296.078 178.419 297.815 184.88C298.479 187.352 299.188 189.906 300.834 191.862C302.479 193.817 305.365 194.976 307.668 193.869C310.221 192.644 310.952 189.396 311.137 186.57C311.535 180.518 306.443 145.601 294.929 152.052Z" fill="#FFC6B0"/>
<path d="M351.98 200.615C348.175 200.641 344.451 199.52 341.293 197.397L342.23 196.032C345.231 198.014 348.763 199.036 352.358 198.962C355.953 198.888 359.44 197.722 362.357 195.618L363.353 196.947C360.053 199.356 356.066 200.642 351.98 200.615V200.615Z" fill="#FF9887"/>
<path d="M401.493 175.058C410.573 171.983 416.224 164.442 414.115 158.215C412.006 151.987 402.935 149.432 393.855 152.507C384.775 155.583 379.123 163.124 381.232 169.351C383.341 175.579 392.412 178.134 401.493 175.058Z" fill="#FF9887"/>
<path d="M324.864 174.458C322.746 180.687 313.683 183.248 304.612 180.178C303.516 179.809 302.448 179.36 301.417 178.835C300.738 171.661 300.095 164.155 299.52 156.982C303.729 155.919 308.159 156.137 312.244 157.609C321.299 160.687 326.975 168.244 324.864 174.458Z" fill="#FF9887"/>
<path d="M373.354 49.5965C385.223 49.5965 394.845 38.4939 394.845 24.7982C394.845 11.1025 385.223 0 373.354 0C361.484 0 351.862 11.1025 351.862 24.7982C351.862 38.4939 361.484 49.5965 373.354 49.5965Z" fill="#0F0D16"/>
</g>
<defs>
<clipPath id="clip0_1311_204">
<rect width="620" height="1946" fill="white"/>
</clipPath>
</defs>
</svg>
